<?xml version="1.0" encoding="UTF-8" standalone="no"?>
<!DOCTYPE svg PUBLIC "-//W3C//DTD SVG 1.1//EN" "http://www.w3.org/Graphics/SVG/1.1/DTD/svg11.dtd">
<!-- Generated by Microsoft Visio, SVG Export aspnetcore-webapp-tutorial-alt.svg Page-1 -->
<svg xmlns="http://www.w3.org/2000/svg" xmlns:xlink="http://www.w3.org/1999/xlink" xmlns:ev="http://www.w3.org/2001/xml-events"
		xmlns:v="http://schemas.microsoft.com/visio/2003/SVGExtensions/" width="13.4165in" height="9.73483in"
		viewBox="0 0 965.989 700.907" xml:space="preserve" color-interpolation-filters="sRGB" class="st27">
	<v:documentProperties v:langID="1036" v:metric="true" v:viewMarkup="false"/>

	<style type="text/css">
	<![CDATA[
		.st1 {fill:#00b050;stroke:none;stroke-linecap:round;stroke-linejoin:round;stroke-width:0.75}
		.st2 {stroke:#00b050;stroke-linecap:round;stroke-linejoin:round;stroke-width:4.5}
		.st3 {stroke:#00b0f0;stroke-linecap:round;stroke-linejoin:round;stroke-width:4.5}
		.st4 {fill:none;stroke:#7f7f7f;stroke-linecap:round;stroke-linejoin:round;stroke-width:0.75}
		.st5 {fill:#000000;font-family:Segoe UI;font-size:1.00001em}
		.st6 {fill:#808080;stroke:none;stroke-linecap:round;stroke-linejoin:round;stroke-width:0.75}
		.st7 {fill:#ffffff;stroke:none;stroke-linecap:round;stroke-linejoin:round;stroke-width:0.75}
		.st8 {fill:#ffffff;stroke:none;stroke-linecap:round;stroke-linejoin:round;stroke-width:0.75;visibility:hidden}
		.st9 {fill:#7f7f7f;font-family:Segoe UI;font-size:0.833336em}
		.st10 {font-size:1em}
		.st11 {fill:#00b0f0;stroke:none;stroke-linecap:round;stroke-linejoin:round;stroke-width:0.75}
		.st12 {fill:#7f7f7f;stroke:none;stroke-linecap:round;stroke-linejoin:round;stroke-width:0.75}
		.st13 {fill:#7f7f7f;stroke:none;stroke-linecap:round;stroke-linejoin:round;stroke-width:0.75;visibility:hidden}
		.st14 {fill:#7f7f7f;font-family:Segoe UI;font-size:0.666664em}
		.st15 {stroke:#0070c0;stroke-linecap:round;stroke-linejoin:round;stroke-width:3}
		.st16 {fill:#7f7f7f;font-family:Calibri;font-size:0.833336em}
		.st17 {fill:none;stroke:none;stroke-linecap:round;stroke-linejoin:round;stroke-width:0.75}
		.st18 {fill:#000000;font-family:Calibri;font-size:0.833336em}
		.st19 {stroke:#a5a5a5;stroke-linecap:round;stroke-linejoin:round;stroke-width:4.5}
		.st20 {fill:#000000;font-family:Segoe UI;font-size:0.833336em}
		.st21 {stroke:#a5a5a5;stroke-dasharray:3,6;stroke-linecap:round;stroke-linejoin:round;stroke-width:3}
		.st22 {stroke:#0070c0;stroke-linecap:round;stroke-linejoin:round;stroke-width:4.5}
		.st23 {fill:#ffffff;stroke:#000000;stroke-dasharray:5.25,3.75;stroke-linecap:round;stroke-linejoin:round;stroke-width:0.75}
		.st24 {marker-end:url(#mrkr13-252);stroke:#00b050;stroke-linecap:round;stroke-linejoin:round;stroke-width:3}
		.st25 {fill:#00b050;fill-opacity:1;stroke:#00b050;stroke-opacity:1;stroke-width:0.54347826086957}
		.st26 {fill:#000000;font-family:Calibri;font-size:1.00001em}
		.st27 {fill:none;fill-rule:evenodd;font-size:12px;overflow:visible;stroke-linecap:square;stroke-miterlimit:3}
	]]>
	</style>

	<defs id="Markers">
		<g id="lend13">
			<path d="M 3 1 L 0 0 L 3 -1 L 3 1 " style="stroke:none"/>
		</g>
		<marker id="mrkr13-252" class="st25" v:arrowType="13" v:arrowSize="2" v:setback="5.52" refX="-5.52" orient="auto"
				markerUnits="strokeWidth" overflow="visible">
			<use xlink:href="#lend13" transform="scale(-1.84,-1.84) "/>
		</marker>
	</defs>
	<g v:mID="0" v:index="1" v:groupContext="foregroundPage">
		<v:custProps>
			<v:cp v:nameU="MetroThickness" v:lbl="Metro Width" v:type="2" v:langID="1033" v:val="VT0(0.059055118110236):24"/>
		</v:custProps>
		<title>Page-1</title>
		<v:pageProperties v:drawingScale="0.0393701" v:pageScale="0.0393701" v:drawingUnits="24" v:shadowOffsetX="8.50394"
				v:shadowOffsetY="-8.50394"/>
		<v:layer v:name="Metro" v:index="0"/>
		<v:layer v:name="Connector" v:index="1"/>
		<g id="shape333-1" v:mID="333" v:groupContext="shape" v:layerMember="0" transform="translate(524.784,-308.784)">
			<title>Metro curve 1.333</title>
			<v:custProps>
				<v:cp v:nameU="MetroThickness" v:lbl="Metro Width" v:type="2" v:langID="1033" v:val="VT0(0.059055118110236):24"/>
			</v:custProps>
			<v:userDefs>
				<v:ud v:nameU="Thickness" v:val="VT0(1):26"/>
				<v:ud v:nameU="ScaleFactor" v:val="VT0(1):26"/>
				<v:ud v:nameU="visVersion" v:val="VT0(15):26"/>
				<v:ud v:nameU="Thickness" v:prompt="" v:val="VT0(0):26"/>
			</v:userDefs>
			<path d="M2.13 569.02 L-2.13 569.02 L-2.13 694.53 A8.5038 8.5038 -180 0 0 6.38 703.03 L56.69 703.03 L56.69 698.78 L6.38
						 698.78 A4.2519 4.2519 0 0 1 2.13 694.53 L2.13 569.02 Z" class="st1"/>
		</g>
		<g id="shape297-3" v:mID="297" v:groupContext="shape" v:layerMember="1" transform="translate(435.938,-432.172)">
			<title>Dynamic connector.297</title>
			<path d="M0 693.82 L74.74 693.82" class="st2"/>
		</g>
		<g id="shape294-6" v:mID="294" v:groupContext="shape" v:layerMember="1" transform="translate(106.318,-498.348)">
			<title>Dynamic connector.294</title>
			<path d="M0 700.91 L329.62 700.91 L329.62 760" class="st2"/>
		</g>
		<g id="shape295-9" v:mID="295" v:groupContext="shape" v:layerMember="1" transform="translate(155.291,-433.799)">
			<title>Dynamic connector.295</title>
			<path d="M0 693.82 L266.57 693.82" class="st2"/>
		</g>
		<g id="shape296-12" v:mID="296" v:groupContext="shape" v:layerMember="1" transform="translate(203.472,-351.373)">
			<title>Dynamic connector.296</title>
			<path d="M0 700.91 L0 696.16 L232.47 696.16 L232.47 613.02" class="st2"/>
		</g>
		<g id="shape293-15" v:mID="293" v:groupContext="shape" v:layerMember="1" transform="translate(46.3158,-448.111)">
			<title>Dynamic connector.293</title>
			<path d="M0 707.86 L108.97 708.13" class="st2"/>
		</g>
		<g id="shape292-18" v:mID="292" v:groupContext="shape" v:layerMember="1" transform="translate(234.227,-594.774)">
			<title>Dynamic connector</title>
			<path d="M0 693.85 L201.44 693.79" class="st3"/>
		</g>
		<g id="shape162-21" v:mID="162" v:groupContext="shape" transform="translate(0.375,-214.391)">
			<title>Sheet.162</title>
			<desc>Sign-in user (authentication)</desc>
			<v:textBlock v:margins="rect(4,4,4,4)" v:tabSpace="42.5197" v:verticalAlign="0"/>
			<v:textRect cx="177.278" cy="457.837" width="354.56" height="486.142"/>
			<rect x="0" y="214.766" width="354.556" height="486.142" class="st4"/>
			<text x="4" y="229.57" class="st5" v:langID="1033"><v:paragraph/><v:tabList/>Sign-in user (authentication)</text>		</g>
		<g id="shape249-24" v:mID="249" v:groupContext="shape" transform="translate(360.717,-214.391)">
			<title>Sheet.249</title>
			<desc>Call Web APIs on behalf of signed-in user</desc>
			<v:textBlock v:margins="rect(4,4,4,4)" v:tabSpace="42.5197" v:verticalAlign="0"/>
			<v:textRect cx="177.278" cy="457.837" width="354.56" height="486.142"/>
			<rect x="0" y="214.766" width="354.556" height="486.142" class="st4"/>
			<text x="4" y="229.57" class="st5" v:langID="1033"><v:paragraph/><v:tabList/>Call Web APIs on behalf of signed-in user</text>		</g>
		<g id="shape250-27" v:mID="250" v:groupContext="shape" transform="translate(728.01,-214.391)">
			<title>Sheet.250</title>
			<desc>Restrict access to users (authorization)</desc>
			<v:textBlock v:margins="rect(4,4,4,4)" v:tabSpace="42.5197" v:verticalAlign="0"/>
			<v:textRect cx="118.802" cy="457.837" width="237.61" height="486.142"/>
			<rect x="0" y="214.766" width="237.605" height="486.142" class="st4"/>
			<text x="4" y="229.57" class="st5" v:langID="1033"><v:paragraph/><v:tabList/>Restrict access to users (authorization)</text>		</g>
		<g id="shape257-30" v:mID="257" v:groupContext="shape" v:layerMember="0" transform="translate(747.223,203.052) rotate(90)">
			<title>Metro curve 1.257</title>
			<v:custProps>
				<v:cp v:nameU="MetroThickness" v:lbl="Metro Width" v:type="2" v:langID="1033" v:val="VT0(0.059055118110236):24"/>
			</v:custProps>
			<v:userDefs>
				<v:ud v:nameU="Thickness" v:val="VT0(1):26"/>
				<v:ud v:nameU="ScaleFactor" v:val="VT0(1):26"/>
				<v:ud v:nameU="visVersion" v:val="VT0(15):26"/>
				<v:ud v:nameU="Thickness" v:prompt="" v:val="VT0(0):26"/>
			</v:userDefs>
			<path d="M2.13 644.21 L-2.13 644.21 L-2.13 694.53 A8.5038 8.5038 -180 0 0 6.38 703.03 L56.69 703.03 L56.69 698.78 L6.38
						 698.78 A4.2519 4.2519 0 0 1 2.13 694.53 L2.13 644.21 Z" class="st1"/>
		</g>
		<g id="shape259-32" v:mID="259" v:groupContext="shape" v:layerMember="0" transform="translate(45.7293,-352.721)">
			<title>Metro curve 1.259</title>
			<v:custProps>
				<v:cp v:nameU="MetroThickness" v:lbl="Metro Width" v:type="2" v:langID="1033" v:val="VT0(0.059055118110236):24"/>
			</v:custProps>
			<v:userDefs>
				<v:ud v:nameU="Thickness" v:val="VT0(1):26"/>
				<v:ud v:nameU="ScaleFactor" v:val="VT0(1):26"/>
				<v:ud v:nameU="visVersion" v:val="VT0(15):26"/>
				<v:ud v:nameU="Thickness" v:prompt="" v:val="VT0(0):26"/>
			</v:userDefs>
			<path d="M2.13 613.41 L-2.13 613.41 L-2.13 694.53 A8.5038 8.5038 -180 0 0 6.38 703.03 L157.32 703.03 L157.32 698.78 L6.38
						 698.78 A4.2519 4.2519 0 0 1 2.13 694.53 L2.13 613.41 Z" class="st1"/>
		</g>
		<a
				xlink:href="https://github.com/Azure-Samples/active-directory-aspnetcore-webapp-openidconnect-v2/blob/master/1-WebApp-OIDC/1-2-AnyOrg/README-1-1-to-1-2.md"
				xlink:title="Changing sign in audience from MyOrg to AnyOrg">
			<g id="shape261-34" v:mID="261" v:groupContext="shape" v:layerMember="0"
					transform="translate(155.291,904.236) rotate(180)">
				<title>Metro curve 1.261</title>
				<v:custProps>
					<v:cp v:nameU="MetroThickness" v:lbl="Metro Width" v:type="2" v:langID="1033" v:val="VT0(0.059055118110236):24"/>
				</v:custProps>
				<v:userDefs>
					<v:ud v:nameU="Thickness" v:val="VT0(1):26"/>
					<v:ud v:nameU="ScaleFactor" v:val="VT0(1):26"/>
					<v:ud v:nameU="visVersion" v:val="VT0(15):26"/>
					<v:ud v:nameU="Thickness" v:prompt="" v:val="VT0(0):26"/>
				</v:userDefs>
				<path d="M2.13 644.21 L-2.13 644.21 L-2.13 694.53 A8.5038 8.5038 -180 0 0 6.38 703.03 L56.69 703.03 L56.69 698.78
							 L6.38 698.78 A4.2519 4.2519 0 0 1 2.13 694.53 L2.13 644.21 Z" class="st1"/>
			</g>
		</a>
		<a
				xlink:href="https://github.com/Azure-Samples/active-directory-aspnetcore-webapp-openidconnect-v2/blob/master/1-WebApp-OIDC/1-3-AnyOrgOrPersonal/README-1-1-to-1-3.md"
				xlink:title="Changing sign in audience from Any-Org to AnyOrg">
			<g id="shape262-36" v:mID="262" v:groupContext="shape" v:layerMember="0"
					transform="translate(197.346,967.47) rotate(180)">
				<title>Metro curve 1.262</title>
				<v:custProps>
					<v:cp v:nameU="MetroThickness" v:lbl="Metro Width" v:type="2" v:langID="1033" v:val="VT0(0.059055118110236):24"/>
				</v:custProps>
				<v:userDefs>
					<v:ud v:nameU="Thickness" v:val="VT0(1):26"/>
					<v:ud v:nameU="ScaleFactor" v:val="VT0(1):26"/>
					<v:ud v:nameU="visVersion" v:val="VT0(15):26"/>
					<v:ud v:nameU="Thickness" v:prompt="" v:val="VT0(0):26"/>
				</v:userDefs>
				<path d="M2.13 622.69 L-2.13 622.69 L-2.13 694.53 A8.5038 8.5038 -180 0 0 6.38 703.03 L40.09 703.03 L40.09 698.78
							 L6.38 698.78 A4.2519 4.2519 0 0 1 2.13 694.53 L2.13 622.69 Z" class="st1"/>
			</g>
		</a>
		<a
				xlink:href="https://github.com/Azure-Samples/active-directory-aspnetcore-webapp-openidconnect-v2/blob/master/1-WebApp-OIDC/1-3-AnyOrgOrPersonal/README-1-1-to-1-3.md"
				xlink:title="Changing sign in audience from MyOrg to AnyOrg+Personal accounts">
			<g id="shape263-38" v:mID="263" v:groupContext="shape" v:layerMember="0"
					transform="translate(207.304,903.246) rotate(180)">
				<title>Metro curve 1.263</title>
				<v:custProps>
					<v:cp v:nameU="MetroThickness" v:lbl="Metro Width" v:type="2" v:langID="1033" v:val="VT0(0.059055118110236):24"/>
				</v:custProps>
				<v:userDefs>
					<v:ud v:nameU="Thickness" v:val="VT0(1):26"/>
					<v:ud v:nameU="ScaleFactor" v:val="VT0(1):26"/>
					<v:ud v:nameU="visVersion" v:val="VT0(15):26"/>
					<v:ud v:nameU="Thickness" v:prompt="" v:val="VT0(3):26"/>
				</v:userDefs>
				<path d="M2.13 558.46 L-2.13 558.46 L-2.13 694.53 A8.5038 8.5038 -180 0 0 6.38 703.03 L99.78 703.03 L99.78 698.78
							 L6.38 698.78 A4.2519 4.2519 0 0 1 2.13 694.53 L2.13 558.46 Z" class="st1"/>
			</g>
		</a>
		<a
				xlink:href="https://github.com/Azure-Samples/active-directory-aspnetcore-webapp-openidconnect-v2/tree/master/1-WebApp-OIDC/1-3-AnyOrgOrPersonal"
				xlink:title="1-3-AnyOrgOrPersonal">
			<g id="group170-40" transform="translate(-292.144,-126.038) rotate(-45)" v:mID="170" v:groupContext="group"
					v:layerMember="0">
				<v:userDefs>
					<v:ud v:nameU="visVersion" v:val="VT0(15):26"/>
				</v:userDefs>
				<title>Station.170</title>
				<g id="shape171-41" v:mID="171" v:groupContext="shape" v:layerMember="0">
					<title>Sheet.171</title>
					<path d="M0 686.73 A14.1732 14.1732 0 0 1 28.35 686.73 A14.1732 14.1732 0 1 1 0 686.73 Z" class="st6"/>
				</g>
				<g id="shape172-43" v:mID="172" v:groupContext="shape" v:layerMember="0" transform="translate(4.25197,-4.25197)">
					<title>Sheet.172</title>
					<path d="M0 690.99 A9.92126 9.92126 0 0 1 19.84 690.99 A9.92126 9.92126 0 1 1 0 690.99 Z" class="st7"/>
				</g>
				<g id="shape173-45" v:mID="173" v:groupContext="shape" transform="translate(28.3465,0)">
					<title>Sheet.173</title>
					<desc>With work or school and personal Microsoft accounts</desc>
					<v:textBlock v:margins="rect(0,0,0,0)" v:tabSpace="42.5197"/>
					<v:textRect cx="47.0686" cy="686.734" width="94.14" height="28.3465"/>
					<rect x="0" y="672.561" width="94.1371" height="28.3465" class="st8"/>
					<text x="2.79" y="677.73" class="st9" v:langID="1033"><v:paragraph v:horizAlign="1"/><v:tabList/>With work or school<v:newlineChar/><tspan
								x="17.08" dy="1.2em" class="st10"> </tspan>and personal <v:newlineChar/><tspan x="5.14" dy="1.2em"
								class="st10">Microsoft accounts</tspan></text>				</g>
			</g>
		</a>
		<g id="shape264-50" v:mID="264" v:groupContext="shape" v:layerMember="0"
				transform="translate(-466.958,195.985) rotate(-90)">
			<title>Metro curve 1.264</title>
			<v:custProps>
				<v:cp v:nameU="MetroThickness" v:lbl="Metro Width" v:type="2" v:langID="1033" v:val="VT0(0.059055118110236):24"/>
			</v:custProps>
			<v:userDefs>
				<v:ud v:nameU="Thickness" v:val="VT0(1):26"/>
				<v:ud v:nameU="ScaleFactor" v:val="VT0(1):26"/>
				<v:ud v:nameU="visVersion" v:val="VT0(15):26"/>
				<v:ud v:nameU="Thickness" v:prompt="" v:val="VT0(0):26"/>
			</v:userDefs>
			<path d="M2.13 574.48 L-2.13 574.48 L-2.13 694.53 A8.5038 8.5038 -180 0 0 6.38 703.03 L100.06 703.03 L100.06 698.78 L6.38
						 698.78 A4.2519 4.2519 0 0 1 2.13 694.53 L2.13 574.48 Z" class="st11"/>
		</g>
		<a
				xlink:href="https://github.com/Azure-Samples/active-directory-aspnetcore-webapp-openidconnect-v2/tree/master/1-WebApp-OIDC/1-1-MyOrg"
				xlink:title="1-1-MyOrg">
			<g id="group174-52" transform="translate(-389.299,-273.013) rotate(-45)" v:mID="174" v:groupContext="group"
					v:layerMember="0">
				<v:userDefs>
					<v:ud v:nameU="visVersion" v:val="VT0(15):26"/>
				</v:userDefs>
				<title>Station.174</title>
				<g id="shape175-53" v:mID="175" v:groupContext="shape" v:layerMember="0">
					<title>Sheet.175</title>
					<path d="M0 686.73 A14.1732 14.1732 0 0 1 28.35 686.73 A14.1732 14.1732 0 1 1 0 686.73 Z" class="st6"/>
				</g>
				<g id="shape176-55" v:mID="176" v:groupContext="shape" v:layerMember="0" transform="translate(4.25197,-4.25197)">
					<title>Sheet.176</title>
					<path d="M0 690.99 A9.92126 9.92126 0 0 1 19.84 690.99 A9.92126 9.92126 0 1 1 0 690.99 Z" class="st7"/>
				</g>
				<g id="shape177-57" v:mID="177" v:groupContext="shape" transform="translate(28.3465,0)">
					<title>Sheet.177</title>
					<desc>In My Org</desc>
					<v:textBlock v:margins="rect(0,0,0,0)" v:tabSpace="42.5197"/>
					<v:textRect cx="26.4191" cy="686.734" width="52.84" height="28.3465"/>
					<rect x="0" y="672.561" width="52.8381" height="28.3465" class="st8"/>
					<text x="2.79" y="689.73" class="st9" v:langID="1033"><v:paragraph v:horizAlign="1"/><v:tabList/>In  My Org</text>				</g>
			</g>
		</a>
		<g id="shape265-60" v:mID="265" v:groupContext="shape" v:layerMember="0"
				transform="translate(-466.958,254.076) rotate(-90)">
			<title>Metro curve 1.265</title>
			<v:custProps>
				<v:cp v:nameU="MetroThickness" v:lbl="Metro Width" v:type="2" v:langID="1033" v:val="VT0(0.059055118110236):24"/>
			</v:custProps>
			<v:userDefs>
				<v:ud v:nameU="Thickness" v:val="VT0(1):26"/>
				<v:ud v:nameU="ScaleFactor" v:val="VT0(1):26"/>
				<v:ud v:nameU="visVersion" v:val="VT0(15):26"/>
				<v:ud v:nameU="Thickness" v:prompt="" v:val="VT0(0):26"/>
			</v:userDefs>
			<path d="M2.13 632.27 L-2.13 632.27 L-2.13 694.53 A8.5038 8.5038 -180 0 0 6.38 703.03 L156.47 703.03 L156.47 698.78 L6.38
						 698.78 A4.2519 4.2519 0 0 1 2.13 694.53 L2.13 632.27 Z" class="st11"/>
		</g>
		<a
				xlink:href="https://github.com/Azure-Samples/active-directory-aspnetcore-webapp-openidconnect-v2/tree/master/1-WebApp-OIDC/1-2-AnyOrg"
				xlink:title="1-2-AnyOrg">
			<g id="group180-62" transform="translate(-340.326,-215.551) rotate(-45)" v:mID="180" v:groupContext="group"
					v:layerMember="0">
				<v:userDefs>
					<v:ud v:nameU="visVersion" v:val="VT0(15):26"/>
				</v:userDefs>
				<title>Station.180</title>
				<g id="shape181-63" v:mID="181" v:groupContext="shape" v:layerMember="0">
					<title>Sheet.181</title>
					<path d="M0 686.73 A14.1732 14.1732 0 0 1 28.35 686.73 A14.1732 14.1732 0 1 1 0 686.73 Z" class="st12"/>
				</g>
				<g id="shape182-65" v:mID="182" v:groupContext="shape" v:layerMember="0" transform="translate(4.25197,-4.25197)">
					<title>Sheet.182</title>
					<path d="M0 690.99 A9.92126 9.92126 0 0 1 19.84 690.99 A9.92126 9.92126 0 1 1 0 690.99 Z" class="st7"/>
				</g>
				<g id="shape183-67" v:mID="183" v:groupContext="shape" transform="translate(28.3465,0)">
					<title>Sheet.183</title>
					<desc>In Any Org</desc>
					<v:textBlock v:margins="rect(4,4,4,4)" v:tabSpace="42.5197"/>
					<v:textRect cx="25.5752" cy="686.734" width="51.16" height="28.3465"/>
					<rect x="0" y="672.561" width="51.1504" height="28.3465" class="st13"/>
					<text x="6.51" y="689.13" class="st14" v:langID="1033"><v:paragraph v:horizAlign="1"/><v:tabList/>In Any Org</text>				</g>
			</g>
		</a>
		<a
				xlink:href="https://github.com/Azure-Samples/active-directory-aspnetcore-webapp-openidconnect-v2/tree/master/1-WebApp-OIDC/1-4-Sovereign">
			<g id="group187-70" transform="translate(-261.389,-376.491) rotate(-45)" v:mID="187" v:groupContext="group"
					v:layerMember="0">
				<v:userDefs>
					<v:ud v:nameU="visVersion" v:val="VT0(15):26"/>
				</v:userDefs>
				<title>Station.187</title>
				<g id="shape188-71" v:mID="188" v:groupContext="shape" v:layerMember="0">
					<title>Sheet.188</title>
					<path d="M0 686.73 A14.1732 14.1732 0 0 1 28.35 686.73 A14.1732 14.1732 0 1 1 0 686.73 Z" class="st6"/>
				</g>
				<g id="shape189-73" v:mID="189" v:groupContext="shape" v:layerMember="0" transform="translate(4.25197,-4.25197)">
					<title>Sheet.189</title>
					<path d="M0 690.78 A9.92126 10.1295 0 0 1 19.84 690.78 A9.92126 10.1295 0 1 1 0 690.78 Z" class="st7"/>
				</g>
				<g id="shape190-75" v:mID="190" v:groupContext="shape" transform="translate(28.3465,0)">
					<title>Sheet.190</title>
					<desc>Sign-in user in National clouds</desc>
					<v:textBlock v:margins="rect(0,0,0,0)" v:tabSpace="42.5197"/>
					<v:textRect cx="42.6183" cy="686.734" width="85.24" height="28.3465"/>
					<rect x="0" y="672.561" width="85.2365" height="28.3465" class="st8"/>
					<text x="16.26" y="683.73" class="st9" v:langID="1033"><v:paragraph v:horizAlign="1"/><v:tabList/>Sign-in user<v:lf/><tspan
								x="2.79" dy="1.2em" class="st10">in National clouds</tspan></text>				</g>
			</g>
		</a>
		<a
				xlink:href="https://github.com/Azure-Samples/active-directory-aspnetcore-webapp-openidconnect-v2/tree/master/2-WebApp-graph-user/2-1-Call-MSGraph">
			<g id="group271-79" transform="translate(-59.6786,-213.924) rotate(-45)" v:mID="271" v:groupContext="group"
					v:layerMember="0">
				<v:userDefs>
					<v:ud v:nameU="visVersion" v:val="VT0(15):26"/>
				</v:userDefs>
				<title>Station.271</title>
				<g id="shape272-80" v:mID="272" v:groupContext="shape" v:layerMember="0">
					<title>Sheet.272</title>
					<path d="M0 686.73 A14.1732 14.1732 0 0 1 28.35 686.73 A14.1732 14.1732 0 1 1 0 686.73 Z" class="st6"/>
				</g>
				<g id="shape273-82" v:mID="273" v:groupContext="shape" v:layerMember="0" transform="translate(4.25197,-4.25197)">
					<title>Sheet.273</title>
					<path d="M0 690.99 A9.92126 9.92126 0 0 1 19.84 690.99 A9.92126 9.92126 0 1 1 0 690.99 Z" class="st7"/>
				</g>
				<g id="shape274-84" v:mID="274" v:groupContext="shape" transform="translate(28.3465,0)">
					<title>Sheet.274</title>
					<desc>Call Microsoft Graph</desc>
					<v:textBlock v:margins="rect(0,0,0,0)" v:tabSpace="42.5197"/>
					<v:textRect cx="38.6289" cy="686.734" width="77.26" height="28.3465"/>
					<rect x="0" y="672.561" width="77.2577" height="28.3465" class="st8"/>
					<text x="30.57" y="683.73" class="st9" v:langID="1033"><v:paragraph v:horizAlign="1"/><v:tabList/>Call <v:lf/><tspan
								x="2.79" dy="1.2em" class="st10">Microsoft Graph</tspan></text>				</g>
			</g>
		</a>
		<g id="shape302-88" v:mID="302" v:groupContext="shape" v:layerMember="1" transform="translate(435.669,-601.894)">
			<title>Dynamic connector.302</title>
			<path d="M0 700.91 L89.12 700.91 L89.12 862.13" class="st3"/>
		</g>
		<g id="shape303-91" v:mID="303" v:groupContext="shape" v:layerMember="1" transform="translate(538.958,-433.587)">
			<title>Dynamic connector.303</title>
			<path d="M0 693.82 L130.38 693.82" class="st2"/>
		</g>
		<g id="shape304-94" v:mID="304" v:groupContext="shape" v:layerMember="1" transform="translate(683.512,-433.587)">
			<title>Dynamic connector.304</title>
			<path d="M0 693.82 L66.63 693.82" class="st2"/>
		</g>
		<g id="shape318-97" v:mID="318" v:groupContext="shape" v:layerMember="1" transform="translate(40.7226,-441.162)">
			<title>Dynamic connector.318</title>
			<path d="M0 700.91 L0 895.08 L213.45 895.08" class="st15"/>
		</g>
		<g id="shape319-100" v:mID="319" v:groupContext="shape" v:layerMember="1" transform="translate(254.177,-239.903)">
			<title>Dynamic connector.319</title>
			<path d="M0 693.82 L415.78 693.82" class="st15"/>
		</g>
		<a
				xlink:href="https://github.com/Azure-Samples/active-directory-aspnetcore-webapp-openidconnect-v2/tree/master/1-WebApp-OIDC/1-5-B2C">
			<g id="group208-103" transform="translate(-241.439,-21.6542) rotate(-45)" v:mID="208" v:groupContext="group"
					v:layerMember="0">
				<v:userDefs>
					<v:ud v:nameU="visVersion" v:val="VT0(15):26"/>
				</v:userDefs>
				<title>Station.208</title>
				<g id="shape209-104" v:mID="209" v:groupContext="shape" v:layerMember="0">
					<title>Sheet.209</title>
					<path d="M0 686.73 A14.1732 14.1732 0 0 1 28.35 686.73 A14.1732 14.1732 0 1 1 0 686.73 Z" class="st12"/>
				</g>
				<g id="shape210-106" v:mID="210" v:groupContext="shape" v:layerMember="0" transform="translate(4.25197,-4.25197)">
					<title>Sheet.210</title>
					<path d="M0 690.99 A9.92126 9.92126 0 0 1 19.84 690.99 A9.92126 9.92126 0 1 1 0 690.99 Z" class="st7"/>
				</g>
				<g id="shape211-108" v:mID="211" v:groupContext="shape" transform="translate(28.3465,0)">
					<title>Sheet.211</title>
					<desc>With local or social identities (B2C)</desc>
					<v:textBlock v:margins="rect(0,0,0,0)" v:tabSpace="42.5197"/>
					<v:textRect cx="42.6694" cy="686.734" width="85.34" height="28.3465"/>
					<rect x="0" y="672.561" width="85.3387" height="28.3465" class="st13"/>
					<text x="20.69" y="677.73" class="st9" v:langID="1033"><v:paragraph v:horizAlign="1"/><v:tabList/>With local <v:lf/><tspan
								x="2.79" dy="1.2em" class="st10">or social identities<v:lf/></tspan><tspan x="30.99" dy="1.2em"
								class="st10">(B2C)</tspan></text>				</g>
			</g>
		</a>
		<a
				xlink:href="https://github.com/Azure-Samples/active-directory-aspnetcore-webapp-openidconnect-v2/tree/master/4-WebApp-your-API">
			<g id="group279-113" transform="translate(173.722,-215.339) rotate(-45)" v:mID="279" v:groupContext="group"
					v:layerMember="0">
				<v:userDefs>
					<v:ud v:nameU="visVersion" v:val="VT0(15):26"/>
				</v:userDefs>
				<title>Station.279</title>
				<g id="shape280-114" v:mID="280" v:groupContext="shape" v:layerMember="0">
					<title>Sheet.280</title>
					<path d="M0 686.73 A14.1732 14.1732 0 0 1 28.35 686.73 A14.1732 14.1732 0 1 1 0 686.73 Z" class="st12"/>
				</g>
				<g id="shape281-116" v:mID="281" v:groupContext="shape" v:layerMember="0" transform="translate(4.25197,-4.25197)">
					<title>Sheet.281</title>
					<path d="M0 690.99 A9.92126 9.92126 0 0 1 19.84 690.99 A9.92126 9.92126 0 1 1 0 690.99 Z" class="st7"/>
				</g>
				<g id="shape282-118" v:mID="282" v:groupContext="shape" transform="translate(28.3465,0)">
					<title>Sheet.282</title>
					<desc>Call your own API</desc>
					<v:textBlock v:margins="rect(0,0,0,0)" v:tabSpace="42.5197"/>
					<v:textRect cx="23.5066" cy="686.734" width="47.02" height="28.3465"/>
					<rect x="0" y="672.561" width="47.0132" height="28.3465" class="st13"/>
					<text x="4.16" y="683.73" class="st9" v:langID="1033"><v:paragraph v:horizAlign="1"/><v:tabList/>Call your <v:lf/><tspan
								x="5.41" dy="1.2em" class="st10">own API</tspan></text>				</g>
			</g>
		</a>
		<g id="shape321-122" v:mID="321" v:groupContext="shape" v:layerMember="1" transform="translate(40.7226,-441.162)">
			<title>Dynamic connector.321</title>
			<path d="M0 700.91 L0 540.24 L179.33 540.24" class="st3"/>
		</g>
		<a
				xlink:href="https://github.com/Azure-Samples/active-directory-aspnetcore-webapp-openidconnect-v2/tree/master/1-WebApp-OIDC"
				xlink:title="1-WebApp-OIDC">
			<g id="group251-125" transform="translate(-454.894,-215.827) rotate(-45)" v:mID="251" v:groupContext="group"
					v:layerMember="0">
				<v:userDefs>
					<v:ud v:nameU="visVersion" v:val="VT0(15):26"/>
				</v:userDefs>
				<title>Station.251</title>
				<g id="shape252-126" v:mID="252" v:groupContext="shape" v:layerMember="0">
					<title>Sheet.252</title>
					<path d="M0 686.73 A14.1732 14.1732 0 0 1 28.35 686.73 A14.1732 14.1732 0 1 1 0 686.73 Z" class="st6"/>
				</g>
				<g id="shape253-128" v:mID="253" v:groupContext="shape" v:layerMember="0" transform="translate(4.25197,-4.25197)">
					<title>Sheet.253</title>
					<path d="M0 690.99 A9.92126 9.92126 0 0 1 19.84 690.99 A9.92126 9.92126 0 1 1 0 690.99 Z" class="st7"/>
				</g>
				<g id="shape254-130" v:mID="254" v:groupContext="shape" transform="translate(28.3465,0)">
					<title>Sheet.254</title>
					<desc>Sign-in users</desc>
					<v:textBlock v:margins="rect(0,0,0,0)" v:tabSpace="42.5197"/>
					<v:textRect cx="28.1796" cy="686.734" width="56.36" height="28.3465"/>
					<rect x="0" y="672.561" width="56.3592" height="28.3465" class="st8"/>
					<text x="2.55" y="689.73" class="st16" v:langID="1033"><v:paragraph v:horizAlign="1"/><v:tabList/>Sign-in users</text>				</g>
			</g>
		</a>
		<a
				xlink:href="https://github.com/Azure-Samples/active-directory-aspnetcore-webapp-openidconnect-v2/tree/master/2-WebApp-graph-user/2-4-Sovereign-Call-MSGraph">
			<g id="group245-133" transform="translate(-59.9474,-376.559) rotate(-45)" v:mID="245" v:groupContext="group"
					v:layerMember="0">
				<v:userDefs>
					<v:ud v:nameU="visVersion" v:val="VT0(15):26"/>
				</v:userDefs>
				<title>Station.245</title>
				<g id="shape246-134" v:mID="246" v:groupContext="shape" v:layerMember="0">
					<title>Sheet.246</title>
					<path d="M0 686.73 A14.1732 14.1732 0 0 1 28.35 686.73 A14.1732 14.1732 0 1 1 0 686.73 Z" class="st6"/>
				</g>
				<g id="shape247-136" v:mID="247" v:groupContext="shape" v:layerMember="0" transform="translate(4.25197,-4.25197)">
					<title>Sheet.247</title>
					<path d="M0 690.99 A9.92126 9.92126 0 0 1 19.84 690.99 A9.92126 9.92126 0 1 1 0 690.99 Z" class="st7"/>
				</g>
				<g id="shape248-138" v:mID="248" v:groupContext="shape" transform="translate(28.3465,0)">
					<title>Sheet.248</title>
					<desc>Call Microsoft Graph (in National Clouds)</desc>
					<v:textBlock v:margins="rect(0,0,0,0)" v:tabSpace="42.5197"/>
					<v:textRect cx="45.5526" cy="686.734" width="91.11" height="28.3465"/>
					<rect x="0" y="672.561" width="91.1052" height="28.3465" class="st8"/>
					<text x="3.68" y="683.73" class="st16" v:langID="1033"><v:paragraph v:horizAlign="1"/><v:tabList/>Call Microsoft Graph <v:lf/><tspan
								x="5.57" dy="1.2em" class="st10">(in National Clouds)</tspan></text>				</g>
			</g>
		</a>
		<a
				xlink:href="https://github.com/Azure-Samples/active-directory-aspnetcore-webapp-openidconnect-v2/tree/master/3-WebApp-multi-APIs">
			<g id="group275-142" transform="translate(29.168,-215.339) rotate(-45)" v:mID="275" v:groupContext="group"
					v:layerMember="0">
				<v:userDefs>
					<v:ud v:nameU="visVersion" v:val="VT0(15):26"/>
				</v:userDefs>
				<title>Station.275</title>
				<g id="shape276-143" v:mID="276" v:groupContext="shape" v:layerMember="0">
					<title>Sheet.276</title>
					<path d="M0 686.73 A14.1732 14.1732 0 0 1 28.35 686.73 A14.1732 14.1732 0 1 1 0 686.73 Z" class="st6"/>
				</g>
				<g id="shape277-145" v:mID="277" v:groupContext="shape" v:layerMember="0" transform="translate(4.25197,-4.25197)">
					<title>Sheet.277</title>
					<path d="M0 690.99 A9.92126 9.92126 0 0 1 19.84 690.99 A9.92126 9.92126 0 1 1 0 690.99 Z" class="st7"/>
				</g>
				<g id="shape278-147" v:mID="278" v:groupContext="shape" transform="translate(28.3465,0)">
					<title>Sheet.278</title>
					<desc>Call several Microsoft APIs (incremental consent)</desc>
					<v:textBlock v:margins="rect(0,0,0,0)" v:tabSpace="42.5197"/>
					<v:textRect cx="62.0345" cy="686.734" width="124.07" height="28.3465"/>
					<rect x="0" y="672.561" width="124.069" height="28.3465" class="st8"/>
					<text x="4.16" y="683.73" class="st9" v:langID="1033"><v:paragraph v:horizAlign="1"/><v:tabList/>Call several Microsoft APIs <v:lf/><tspan
								x="14.41" dy="1.2em" class="st10">(incremental consent)</tspan></text>				</g>
			</g>
		</a>
		<g id="shape322-151" v:mID="322" v:groupContext="shape" v:layerMember="1" transform="translate(750.143,-440.674)">
			<title>Dynamic connector.322</title>
			<path d="M0 700.91 L62.82 700.91 L62.82 640.62 L108.93 640.62" class="st2"/>
		</g>
		<g id="shape323-154" v:mID="323" v:groupContext="shape" v:layerMember="1" transform="translate(750.143,-440.674)">
			<title>Dynamic connector.323</title>
			<path d="M0 700.91 L63.31 700.91 L63.31 757.11 L108.93 757.11" class="st2"/>
		</g>
		<a
				xlink:href="https://github.com/Azure-Samples/active-directory-aspnetcore-webapp-openidconnect-v2/tree/master/5-WebApp-AuthZ">
			<g id="group283-157" transform="translate(254.527,-215.339) rotate(-45)" v:mID="283" v:groupContext="group"
					v:layerMember="0">
				<v:userDefs>
					<v:ud v:nameU="visVersion" v:val="VT0(15):26"/>
				</v:userDefs>
				<title>Station.283</title>
				<g id="shape284-158" v:mID="284" v:groupContext="shape" v:layerMember="0">
					<title>Sheet.284</title>
					<path d="M0 686.73 A14.1732 14.1732 0 0 1 28.35 686.73 A14.1732 14.1732 0 1 1 0 686.73 Z" class="st6"/>
				</g>
				<g id="shape285-160" v:mID="285" v:groupContext="shape" v:layerMember="0" transform="translate(4.25197,-4.25197)">
					<title>Sheet.285</title>
					<path d="M0 690.99 A9.92126 9.92126 0 0 1 19.84 690.99 A9.92126 9.92126 0 1 1 0 690.99 Z" class="st7"/>
				</g>
				<g id="shape286-162" v:mID="286" v:groupContext="shape" transform="translate(28.3465,0)">
					<title>Sheet.286</title>
					<desc>Authorization</desc>
					<v:textBlock v:margins="rect(0,0,0,0)" v:tabSpace="42.5197"/>
					<v:textRect cx="32.7159" cy="686.734" width="65.44" height="28.3465"/>
					<rect x="0" y="672.561" width="65.4318" height="28.3465" class="st8"/>
					<text x="2.79" y="689.73" class="st9" v:langID="1033"><v:paragraph v:horizAlign="1"/><v:tabList/>Authorization</text>				</g>
			</g>
		</a>
		<a
				xlink:href="https://github.com/Azure-Samples/active-directory-aspnetcore-webapp-openidconnect-v2/tree/master/5-WebApp-AuthZ/5-2-Groups">
			<g id="group309-165" transform="translate(363.454,-275.63) rotate(-45)" v:mID="309" v:groupContext="group"
					v:layerMember="0">
				<v:userDefs>
					<v:ud v:nameU="visVersion" v:val="VT0(15):26"/>
				</v:userDefs>
				<title>Station.309</title>
				<g id="shape310-166" v:mID="310" v:groupContext="shape" v:layerMember="0">
					<title>Sheet.310</title>
					<path d="M0 686.73 A14.1732 14.1732 0 0 1 28.35 686.73 A14.1732 14.1732 0 1 1 0 686.73 Z" class="st6"/>
				</g>
				<g id="shape311-168" v:mID="311" v:groupContext="shape" v:layerMember="0" transform="translate(4.25197,-4.25197)">
					<title>Sheet.311</title>
					<path d="M0 690.99 A9.92126 9.92126 0 0 1 19.84 690.99 A9.92126 9.92126 0 1 1 0 690.99 Z" class="st7"/>
				</g>
				<g id="shape312-170" v:mID="312" v:groupContext="shape" transform="translate(28.3465,0)">
					<title>Sheet.312</title>
					<desc>With groups</desc>
					<v:textBlock v:margins="rect(0,0,0,0)" v:tabSpace="42.5197"/>
					<v:textRect cx="30.0668" cy="686.734" width="60.14" height="28.3465"/>
					<rect x="0" y="672.561" width="60.1336" height="28.3465" class="st8"/>
					<text x="2.79" y="689.73" class="st9" v:langID="1033"><v:paragraph v:horizAlign="1"/><v:tabList/>With groups</text>				</g>
			</g>
		</a>
		<a
				xlink:href="https://github.com/Azure-Samples/active-directory-aspnetcore-webapp-openidconnect-v2/tree/master/5-WebApp-AuthZ/5-2-Groups">
			<g id="group313-173" transform="translate(363.454,-159.134) rotate(-45)" v:mID="313" v:groupContext="group"
					v:layerMember="0">
				<v:userDefs>
					<v:ud v:nameU="visVersion" v:val="VT0(15):26"/>
				</v:userDefs>
				<title>Station.313</title>
				<g id="shape314-174" v:mID="314" v:groupContext="shape" v:layerMember="0">
					<title>Sheet.314</title>
					<path d="M0 686.73 A14.1732 14.1732 0 0 1 28.35 686.73 A14.1732 14.1732 0 1 1 0 686.73 Z" class="st6"/>
				</g>
				<g id="shape315-176" v:mID="315" v:groupContext="shape" v:layerMember="0" transform="translate(4.25197,-4.25197)">
					<title>Sheet.315</title>
					<path d="M0 690.99 A9.92126 9.92126 0 0 1 19.84 690.99 A9.92126 9.92126 0 1 1 0 690.99 Z" class="st7"/>
				</g>
				<g id="shape316-178" v:mID="316" v:groupContext="shape" transform="translate(28.3465,0)">
					<title>Sheet.316</title>
					<desc>With roles</desc>
					<v:textBlock v:margins="rect(0,0,0,0)" v:tabSpace="42.5197"/>
					<v:textRect cx="25.179" cy="686.734" width="50.36" height="28.3465"/>
					<rect x="0" y="672.561" width="50.358" height="28.3465" class="st8"/>
					<text x="2.79" y="689.73" class="st9" v:langID="1033"><v:paragraph v:horizAlign="1"/><v:tabList/>With roles</text>				</g>
			</g>
		</a>
		<g id="shape324-181" v:mID="324" v:groupContext="shape" transform="translate(1.49394,-112.72)">
			<title>Sheet.324</title>
			<desc>Deployment to Azure</desc>
			<v:textBlock v:margins="rect(4,4,4,4)" v:tabSpace="42.5197" v:verticalAlign="0"/>
			<v:textRect cx="482.06" cy="657.158" width="964.13" height="87.498"/>
			<rect x="0" y="613.409" width="964.12" height="87.498" class="st4"/>
			<text x="4" y="628.21" class="st5" v:langID="1033"><v:paragraph/><v:tabList/>Deployment to Azure</text>		</g>
		<g id="group325-184" transform="translate(86.9799,-82.6617) rotate(-45)" v:mID="325" v:groupContext="group"
				v:layerMember="0">
			<v:userDefs>
				<v:ud v:nameU="visVersion" v:val="VT0(15):26"/>
			</v:userDefs>
			<title>Station.325</title>
			<g id="shape326-185" v:mID="326" v:groupContext="shape" v:layerMember="0">
				<title>Sheet.326</title>
				<path d="M0 686.73 A14.1732 14.1732 0 0 1 28.35 686.73 A14.1732 14.1732 0 1 1 0 686.73 Z" class="st6"/>
			</g>
			<g id="shape327-187" v:mID="327" v:groupContext="shape" v:layerMember="0" transform="translate(4.25197,-4.25197)">
				<title>Sheet.327</title>
				<path d="M0 690.99 A9.92126 9.92126 0 0 1 19.84 690.99 A9.92126 9.92126 0 1 1 0 690.99 Z" class="st7"/>
			</g>
			<g id="shape328-189" v:mID="328" v:groupContext="shape" transform="translate(28.3465,0)">
				<title>Sheet.328</title>
				<desc>Token caches</desc>
				<v:textBlock v:margins="rect(0,0,0,0)" v:tabSpace="42.5197"/>
				<v:textRect cx="29.8348" cy="686.734" width="59.67" height="28.3465"/>
				<rect x="0" y="672.561" width="59.6697" height="28.3465" class="st8"/>
				<text x="2.55" y="689.73" class="st16" v:langID="1033"><v:paragraph v:horizAlign="1"/><v:tabList/>Token caches</text>			</g>
		</g>
		<g id="shape331-192" v:mID="331" v:groupContext="shape" transform="translate(526.084,-317.855)">
			<title>Sheet.331</title>
			<desc>- in memory token cache - session token cache - SQL token cache</desc>
			<v:textBlock v:margins="rect(4,4,4,4)" v:tabSpace="42.5197" v:verticalAlign="0"/>
			<v:textRect cx="38.8858" cy="653.01" width="77.78" height="95.7952"/>
			<rect x="0" y="605.112" width="77.7717" height="95.7952" class="st17"/>
			<text x="4" y="618.11" class="st18" v:langID="1033"><v:paragraph/><v:tabList/>- in memory <v:lf/><tspan x="4"
						dy="1.2em" class="st10">   </tspan>token cache<v:newlineChar/><tspan x="4" dy="1.2em" class="st10">-</tspan> session <v:lf/><tspan
						x="4" dy="1.2em" class="st10">   </tspan>token cache<v:newlineChar/><tspan x="4" dy="1.2em" class="st10">-</tspan> SQL <v:lf/><tspan
						x="4" dy="1.2em" class="st10">  </tspan>token cache</text>		</g>
		<g id="shape431-200" v:mID="431" v:groupContext="shape" v:layerMember="1" transform="translate(8.58055,-53.7638)">
			<title>Dynamic connector.431</title>
			<path d="M0 693.82 L44.29 693.82" class="st19"/>
		</g>
		<g id="shape432-203" v:mID="432" v:groupContext="shape" transform="translate(65.2735,-49.056)">
			<title>Sheet.432</title>
			<desc>Recommended learning path</desc>
			<v:textBlock v:margins="rect(4,4,4,4)" v:tabSpace="42.5197"/>
			<v:textRect cx="46.3161" cy="690.907" width="92.64" height="20"/>
			<rect x="0" y="680.907" width="92.6322" height="20" class="st17"/>
			<text x="4" y="687.91" class="st20" v:langID="1033"><v:paragraph/><v:tabList/>Recommended <tspan x="4" dy="1.2em"
						class="st10">learning path</tspan></text>		</g>
		<g id="shape433-207" v:mID="433" v:groupContext="shape" v:layerMember="1" transform="translate(8.58055,-30.9854)">
			<title>Dynamic connector.433</title>
			<path d="M0 693.82 L44.29 693.82" class="st21"/>
		</g>
		<g id="shape434-210" v:mID="434" v:groupContext="shape" transform="translate(65.2735,-28.072)">
			<title>Sheet.434</title>
			<desc>In construction</desc>
			<v:textBlock v:margins="rect(4,4,4,4)" v:tabSpace="42.5197"/>
			<v:textRect cx="42.5197" cy="690.907" width="85.04" height="20"/>
			<rect x="0" y="680.907" width="85.0394" height="20" class="st17"/>
			<text x="4" y="693.91" class="st20" v:langID="1033"><v:paragraph/><v:tabList/>In construction</text>		</g>
		<g id="shape439-213" v:mID="439" v:groupContext="shape" v:layerMember="1" transform="translate(422.966,-46.9824)">
			<title>Dynamic connector.439</title>
			<path d="M0 693.82 L-31.71 693.82" class="st3"/>
		</g>
		<g id="shape440-216" v:mID="440" v:groupContext="shape" v:layerMember="1" transform="translate(422.966,-24.4571)">
			<title>Dynamic connector.440</title>
			<path d="M0 693.82 L-31.71 693.82" class="st22"/>
		</g>
		<g id="shape442-219" v:mID="442" v:groupContext="shape" v:layerMember="1" transform="translate(422.966,-67.9891)">
			<title>Dynamic connector.442</title>
			<path d="M0 693.82 L-31.71 693.82" class="st2"/>
		</g>
		<g id="shape443-222" v:mID="443" v:groupContext="shape" transform="translate(437.068,-64.6933)">
			<title>Sheet.443</title>
			<desc>Azure AD</desc>
			<v:textBlock v:margins="rect(4,4,4,4)" v:tabSpace="42.5197"/>
			<v:textRect cx="46.3161" cy="690.907" width="92.64" height="20"/>
			<rect x="0" y="680.907" width="92.6322" height="20" class="st17"/>
			<text x="4" y="693.91" class="st20" v:langID="1033"><v:paragraph/><v:tabList/>Azure AD</text>		</g>
		<g id="shape444-225" v:mID="444" v:groupContext="shape" transform="translate(437.574,-45.4582)">
			<title>Sheet.444</title>
			<desc>National clouds</desc>
			<v:textBlock v:margins="rect(4,4,4,4)" v:tabSpace="42.5197"/>
			<v:textRect cx="46.3161" cy="690.907" width="92.64" height="20"/>
			<rect x="0" y="680.907" width="92.6322" height="20" class="st17"/>
			<text x="4" y="693.91" class="st20" v:langID="1033"><v:paragraph/><v:tabList/>National clouds</text>		</g>
		<g id="shape445-228" v:mID="445" v:groupContext="shape" transform="translate(437.068,-24.6933)">
			<title>Sheet.445</title>
			<desc>B2C</desc>
			<v:textBlock v:margins="rect(4,4,4,4)" v:tabSpace="42.5197"/>
			<v:textRect cx="46.3161" cy="690.907" width="92.64" height="20"/>
			<rect x="0" y="680.907" width="92.6322" height="20" class="st17"/>
			<text x="4" y="693.91" class="st20" v:langID="1033"><v:paragraph/><v:tabList/>B2C</text>		</g>
		<g id="group452-231" transform="translate(230.876,-56.7695)" v:mID="452" v:groupContext="group" v:layerMember="0">
			<v:userDefs>
				<v:ud v:nameU="visVersion" v:val="VT0(15):26"/>
			</v:userDefs>
			<title>Station.452</title>
			<g id="shape453-232" v:mID="453" v:groupContext="shape" v:layerMember="0">
				<title>Sheet.453</title>
				<path d="M0 686.73 A14.1732 14.1732 0 0 1 28.35 686.73 A14.1732 14.1732 0 1 1 0 686.73 Z" class="st6"/>
			</g>
			<g id="shape454-234" v:mID="454" v:groupContext="shape" v:layerMember="0" transform="translate(4.25197,-4.25197)">
				<title>Sheet.454</title>
				<path d="M0 690.99 A9.92126 9.92126 0 0 1 19.84 690.99 A9.92126 9.92126 0 1 1 0 690.99 Z" class="st7"/>
			</g>
			<g id="shape455-236" v:mID="455" v:groupContext="shape" transform="translate(28.3465,0)">
				<title>Sheet.455</title>
				<desc>Existing chapter</desc>
				<v:textBlock v:margins="rect(0,0,0,0)" v:tabSpace="42.5197"/>
				<v:textRect cx="37.6647" cy="686.734" width="75.33" height="28.3465"/>
				<rect x="0" y="672.561" width="75.3293" height="28.3465" class="st8"/>
				<text x="2.79" y="689.73" class="st20" v:langID="1033"><v:paragraph v:horizAlign="1"/><v:tabList/>Existing chapter</text>			</g>
		</g>
		<g id="group482-239" transform="translate(230.876,-20.2175)" v:mID="482" v:groupContext="group" v:layerMember="0">
			<v:userDefs>
				<v:ud v:nameU="visVersion" v:val="VT0(15):26"/>
			</v:userDefs>
			<title>Station.482</title>
			<g id="shape483-240" v:mID="483" v:groupContext="shape" v:layerMember="0">
				<title>Sheet.483</title>
				<path d="M0 686.73 A14.1732 14.1732 0 0 1 28.35 686.73 A14.1732 14.1732 0 1 1 0 686.73 Z" class="st23"/>
			</g>
			<g id="shape484-242" v:mID="484" v:groupContext="shape" v:layerMember="0" transform="translate(4.25197,-4.25197)">
				<title>Sheet.484</title>
				<path d="M0 690.99 A9.92126 9.92126 0 0 1 19.84 690.99 A9.92126 9.92126 0 1 1 0 690.99 Z" class="st23"/>
			</g>
			<g id="shape485-244" v:mID="485" v:groupContext="shape" transform="translate(28.3465,0)">
				<title>Sheet.485</title>
				<desc>In construction chapter</desc>
				<v:textBlock v:margins="rect(0,0,0,0)" v:tabSpace="42.5197"/>
				<v:textRect cx="53.7855" cy="686.734" width="107.58" height="28.3465"/>
				<text x="2.79" y="689.73" class="st20" v:langID="1033"><v:paragraph v:horizAlign="1"/><v:tabList/>In construction chapter</text>			</g>
		</g>
		<g id="shape487-247" v:mID="487" v:groupContext="shape" v:layerMember="1" transform="translate(177.653,-214.391)">
			<title>Dynamic connector.487</title>
			<path d="M0 700.91 L0 777.35 L628.55 777.35" class="st24"/>
		</g>
		<g id="shape488-253" v:mID="488" v:groupContext="shape" v:layerMember="1" transform="translate(530.685,-214.391)">
			<title>Dynamic connector.488</title>
			<path d="M0 700.91 L0 777.35 L275.52 777.35" class="st24"/>
		</g>
		<g id="shape489-258" v:mID="489" v:groupContext="shape" v:layerMember="1" transform="translate(815.68,-214.391)">
			<title>Dynamic connector.489</title>
			<path d="M7.09 700.91 L7.09 760.79" class="st24"/>
		</g>
		<a
				xlink:href="https://github.com/Azure-Samples/active-directory-aspnetcore-webapp-openidconnect-v2/tree/master/6-Deploy-to-Azure"
				xlink:title="6-Deploy-to-Azure">
			<g id="group287-263" transform="translate(327.15,87.3819) rotate(-45)" v:mID="287" v:groupContext="group"
					v:layerMember="0">
				<v:userDefs>
					<v:ud v:nameU="visVersion" v:val="VT0(15):26"/>
				</v:userDefs>
				<title>Station.287</title>
				<g id="shape288-264" v:mID="288" v:groupContext="shape" v:layerMember="0">
					<title>Sheet.288</title>
					<path d="M0 686.73 A14.1732 14.1732 0 0 1 28.35 686.73 A14.1732 14.1732 0 1 1 0 686.73 Z" class="st12"/>
				</g>
				<g id="shape289-266" v:mID="289" v:groupContext="shape" v:layerMember="0" transform="translate(4.25197,-4.25197)">
					<title>Sheet.289</title>
					<path d="M0 690.99 A9.92126 9.92126 0 0 1 19.84 690.99 A9.92126 9.92126 0 1 1 0 690.99 Z" class="st7"/>
				</g>
				<g id="shape290-268" v:mID="290" v:groupContext="shape" transform="translate(28.3465,0)">
					<title>Sheet.290</title>
					<desc>Deployment to Azure</desc>
					<v:textBlock v:margins="rect(0,0,0,0)" v:tabSpace="42.5197"/>
					<v:textRect cx="31.2239" cy="686.734" width="62.45" height="28.3465"/>
					<rect x="0" y="672.561" width="62.4479" height="28.3465" class="st13"/>
					<text x="4.16" y="683.73" class="st9" v:langID="1033"><v:paragraph v:horizAlign="1"/><v:tabList/>Deployment <v:lf/><tspan
								x="12.56" dy="1.2em" class="st10">to Azure</tspan></text>				</g>
			</g>
		</a>
		<g id="shape490-272" v:mID="490" v:groupContext="shape" transform="translate(2.91126,-0.375)">
			<title>Sheet.490</title>
			<desc>Legend</desc>
			<v:textBlock v:margins="rect(4,4,4,4)" v:tabSpace="42.5197" v:verticalAlign="0"/>
			<v:textRect cx="279.213" cy="652.718" width="558.43" height="96.378"/>
			<rect x="0" y="604.53" width="558.425" height="96.378" class="st4"/>
			<text x="4" y="619.33" class="st26" v:langID="1033"><v:paragraph/><v:tabList/>Legend</text>		</g>
		<a
				xlink:href="https://github.com/Azure-Samples/active-directory-aspnetcore-webapp-openidconnect-v2/tree/master/4-WebApp-your-API/4-2-B2C"
				xlink:title="Web app calls B2C web API">
			<g id="group1004-275" transform="translate(174.345,-21.6542) rotate(-45)" v:mID="1004" v:groupContext="group"
					v:layerMember="0">
				<v:userDefs>
					<v:ud v:nameU="visVersion" v:val="VT0(15):26"/>
				</v:userDefs>
				<title>Station.1004</title>
				<g id="shape1005-276" v:mID="1005" v:groupContext="shape" v:layerMember="0">
					<title>Sheet.1005</title>
					<path d="M0 686.73 A14.1732 14.1732 0 0 1 28.35 686.73 A14.1732 14.1732 0 1 1 0 686.73 Z" class="st12"/>
				</g>
				<g id="shape1006-278" v:mID="1006" v:groupContext="shape" v:layerMember="0" transform="translate(4.25197,-4.25197)">
					<title>Sheet.1006</title>
					<path d="M0 690.99 A9.92126 9.92126 0 0 1 19.84 690.99 A9.92126 9.92126 0 1 1 0 690.99 Z" class="st7"/>
				</g>
				<g id="shape1007-280" v:mID="1007" v:groupContext="shape" transform="translate(28.3465,0)">
					<title>Sheet.1007</title>
					<desc>Call your B2C API</desc>
					<v:textBlock v:margins="rect(0,0,0,0)" v:tabSpace="42.5197"/>
					<v:textRect cx="22.137" cy="686.734" width="44.28" height="28.3465"/>
					<rect x="0" y="672.561" width="44.274" height="28.3465" class="st13"/>
					<text x="2.79" y="683.73" class="st9" v:langID="1033"><v:paragraph v:horizAlign="1"/><v:tabList/>Call your<v:newlineChar/><tspan
								x="4.75" dy="1.2em" class="st10">B2C API</tspan></text>				</g>
			</g>
		</a>
	</g>
</svg>
