<?xml version="1.0" encoding="UTF-8" standalone="no"?>
<!DOCTYPE svg PUBLIC "-//W3C//DTD SVG 1.1//EN" "http://www.w3.org/Graphics/SVG/1.1/DTD/svg11.dtd">
<!-- Generated by Microsoft Visio, SVG Export aspnetcore-webapp-tutorial.-altsvg.svg Page-1 -->
<svg xmlns="http://www.w3.org/2000/svg" xmlns:xlink="http://www.w3.org/1999/xlink" xmlns:ev="http://www.w3.org/2001/xml-events"
		xmlns:v="http://schemas.microsoft.com/visio/2003/SVGExtensions/" width="13.4165in" height="8.1784in"
		viewBox="0 0 965.989 588.845" xml:space="preserve" color-interpolation-filters="sRGB" class="st21">
	<v:documentProperties v:langID="1036" v:metric="true" v:viewMarkup="false"/>

	<style type="text/css">
	<![CDATA[
		.st1 {fill:#00b050;stroke:none;stroke-linecap:round;stroke-linejoin:round;stroke-width:0.75}
		.st2 {stroke:#00b050;stroke-linecap:round;stroke-linejoin:round;stroke-width:4.5}
		.st3 {stroke:#00b0f0;stroke-dasharray:4.5,9;stroke-linecap:round;stroke-linejoin:round;stroke-width:4.5}
		.st4 {fill:none;stroke:#7f7f7f;stroke-linecap:round;stroke-linejoin:round;stroke-width:0.75}
		.st5 {fill:#000000;font-family:Segoe UI;font-size:1.00001em}
		.st6 {fill:#808080;stroke:none;stroke-linecap:round;stroke-linejoin:round;stroke-width:0.75}
		.st7 {fill:#ffffff;stroke:none;stroke-linecap:round;stroke-linejoin:round;stroke-width:0.75}
		.st8 {fill:#ffffff;stroke:none;stroke-linecap:round;stroke-linejoin:round;stroke-width:0.75;visibility:hidden}
		.st9 {fill:#000000;font-family:Segoe UI;font-size:0.833336em}
		.st10 {font-size:1em}
		.st11 {fill:#00b0f0;stroke:none;stroke-linecap:round;stroke-linejoin:round;stroke-width:0.75}
		.st12 {fill:#7f7f7f;stroke:none;stroke-linecap:round;stroke-linejoin:round;stroke-width:0.75}
		.st13 {fill:#7f7f7f;stroke:none;stroke-linecap:round;stroke-linejoin:round;stroke-width:0.75;visibility:hidden}
		.st14 {fill:#000000;font-family:Segoe UI;font-size:0.666664em}
		.st15 {fill:#ffffff;stroke:#00b0f0;stroke-dasharray:7,5;stroke-linecap:round;stroke-linejoin:round;stroke-width:1}
		.st16 {stroke:#0070c0;stroke-dasharray:3,6;stroke-linecap:round;stroke-linejoin:round;stroke-width:3}
		.st17 {fill:#ffffff;stroke:#0070c0;stroke-dasharray:7,5;stroke-linecap:round;stroke-linejoin:round;stroke-width:1}
		.st18 {fill:#ffffff;stroke:#00b050;stroke-dasharray:7,5;stroke-linecap:round;stroke-linejoin:round;stroke-width:1}
		.st19 {fill:#000000;font-family:Calibri;font-size:0.833336em}
		.st20 {fill:none;stroke:none;stroke-linecap:round;stroke-linejoin:round;stroke-width:0.75}
		.st21 {fill:none;fill-rule:evenodd;font-size:12px;overflow:visible;stroke-linecap:square;stroke-miterlimit:3}
	]]>
	</style>

	<g v:mID="0" v:index="1" v:groupContext="foregroundPage">
		<v:custProps>
			<v:cp v:nameU="MetroThickness" v:lbl="Metro Width" v:type="2" v:langID="1033" v:val="VT0(0.059055118110236):24"/>
		</v:custProps>
		<title>Page-1</title>
		<v:pageProperties v:drawingScale="0.0393701" v:pageScale="0.0393701" v:drawingUnits="24" v:shadowOffsetX="8.50394"
				v:shadowOffsetY="-8.50394"/>
		<v:layer v:name="Metro" v:index="0"/>
		<v:layer v:name="Connector" v:index="1"/>
		<g id="shape340-1" v:mID="340" v:groupContext="shape" v:layerMember="0" transform="translate(524.784,-196.44)">
			<title>Metro curve 1.340</title>
			<v:custProps>
				<v:cp v:nameU="MetroThickness" v:lbl="Metro Width" v:type="2" v:langID="1033" v:val="VT0(0.059055118110236):24"/>
			</v:custProps>
			<v:userDefs>
				<v:ud v:nameU="Thickness" v:val="VT0(1):26"/>
				<v:ud v:nameU="ScaleFactor" v:val="VT0(1):26"/>
				<v:ud v:nameU="visVersion" v:val="VT0(15):26"/>
				<v:ud v:nameU="Thickness" v:prompt="" v:val="VT0(0):26"/>
			</v:userDefs>
			<path d="M2.13 456.96 L-2.13 456.96 L-2.13 582.47 A8.5038 8.5038 -180 0 0 6.38 590.97 L56.69 590.97 L56.69 586.72 L6.38
						 586.72 A4.2519 4.2519 0 0 1 2.13 582.47 L2.13 456.96 Z" class="st1"/>
		</g>
		<g id="shape342-3" v:mID="342" v:groupContext="shape" v:layerMember="1" transform="translate(435.938,-319.828)">
			<title>Dynamic connector.342</title>
			<path d="M0 581.76 L74.74 581.76" class="st2"/>
		</g>
		<g id="shape343-6" v:mID="343" v:groupContext="shape" v:layerMember="1" transform="translate(106.318,-386.003)">
			<title>Dynamic connector.343</title>
			<path d="M0 588.84 L329.62 588.84 L329.62 647.93" class="st2"/>
		</g>
		<g id="shape344-9" v:mID="344" v:groupContext="shape" v:layerMember="1" transform="translate(155.291,-321.455)">
			<title>Dynamic connector.344</title>
			<path d="M0 581.76 L266.57 581.76" class="st2"/>
		</g>
		<g id="shape345-12" v:mID="345" v:groupContext="shape" v:layerMember="1" transform="translate(203.472,-239.028)">
			<title>Dynamic connector.345</title>
			<path d="M0 588.84 L0 584.09 L232.47 584.09 L232.47 500.96" class="st2"/>
		</g>
		<g id="shape346-15" v:mID="346" v:groupContext="shape" v:layerMember="1" transform="translate(46.3158,-335.766)">
			<title>Dynamic connector.346</title>
			<path d="M0 595.79 L108.97 596.07" class="st2"/>
		</g>
		<g id="shape347-18" v:mID="347" v:groupContext="shape" v:layerMember="1" transform="translate(234.227,-491.81)">
			<title>Dynamic connector.347</title>
			<path d="M0 581.76 L201.44 581.76" class="st3"/>
		</g>
		<g id="shape350-21" v:mID="350" v:groupContext="shape" transform="translate(0.375,-102.046)">
			<title>Sheet.350</title>
			<desc>Sign-in user</desc>
			<v:textBlock v:margins="rect(4,4,4,4)" v:tabSpace="42.5197" v:verticalAlign="0"/>
			<v:textRect cx="177.278" cy="345.774" width="354.56" height="486.142"/>
			<rect x="0" y="102.703" width="354.556" height="486.142" class="st4"/>
			<text x="4" y="117.5" class="st5" v:langID="1033"><v:paragraph/><v:tabList/>Sign-in user</text>		</g>
		<g id="shape351-24" v:mID="351" v:groupContext="shape" transform="translate(360.717,-102.046)">
			<title>Sheet.351</title>
			<desc>Call Web APIs</desc>
			<v:textBlock v:margins="rect(4,4,4,4)" v:tabSpace="42.5197" v:verticalAlign="0"/>
			<v:textRect cx="177.278" cy="345.774" width="354.56" height="486.142"/>
			<rect x="0" y="102.703" width="354.556" height="486.142" class="st4"/>
			<text x="4" y="117.5" class="st5" v:langID="1033"><v:paragraph/><v:tabList/>Call Web APIs</text>		</g>
		<g id="shape352-27" v:mID="352" v:groupContext="shape" transform="translate(728.01,-102.046)">
			<title>Sheet.352</title>
			<desc>Advanced aspects</desc>
			<v:textBlock v:margins="rect(4,4,4,4)" v:tabSpace="42.5197" v:verticalAlign="0"/>
			<v:textRect cx="118.802" cy="345.774" width="237.61" height="486.142"/>
			<rect x="0" y="102.703" width="237.605" height="486.142" class="st4"/>
			<text x="4" y="117.5" class="st5" v:langID="1033"><v:paragraph/><v:tabList/>Advanced aspects</text>		</g>
		<g id="shape353-30" v:mID="353" v:groupContext="shape" v:layerMember="0" transform="translate(635.16,203.334) rotate(90)">
			<title>Metro curve 1.353</title>
			<v:custProps>
				<v:cp v:nameU="MetroThickness" v:lbl="Metro Width" v:type="2" v:langID="1033" v:val="VT0(0.059055118110236):24"/>
			</v:custProps>
			<v:userDefs>
				<v:ud v:nameU="Thickness" v:val="VT0(1):26"/>
				<v:ud v:nameU="ScaleFactor" v:val="VT0(1):26"/>
				<v:ud v:nameU="visVersion" v:val="VT0(15):26"/>
				<v:ud v:nameU="Thickness" v:prompt="" v:val="VT0(0):26"/>
			</v:userDefs>
			<path d="M2.13 532.15 L-2.13 532.15 L-2.13 582.47 A8.5038 8.5038 -180 0 0 6.38 590.97 L56.69 590.97 L56.69 586.72 L6.38
						 586.72 A4.2519 4.2519 0 0 1 2.13 582.47 L2.13 532.15 Z" class="st1"/>
		</g>
		<g id="shape354-32" v:mID="354" v:groupContext="shape" v:layerMember="0" transform="translate(45.7293,-240.377)">
			<title>Metro curve 1.354</title>
			<v:custProps>
				<v:cp v:nameU="MetroThickness" v:lbl="Metro Width" v:type="2" v:langID="1033" v:val="VT0(0.059055118110236):24"/>
			</v:custProps>
			<v:userDefs>
				<v:ud v:nameU="Thickness" v:val="VT0(1):26"/>
				<v:ud v:nameU="ScaleFactor" v:val="VT0(1):26"/>
				<v:ud v:nameU="visVersion" v:val="VT0(15):26"/>
				<v:ud v:nameU="Thickness" v:prompt="" v:val="VT0(0):26"/>
			</v:userDefs>
			<path d="M2.13 501.35 L-2.13 501.35 L-2.13 582.47 A8.5038 8.5038 -180 0 0 6.38 590.97 L157.32 590.97 L157.32 586.72 L6.38
						 586.72 A4.2519 4.2519 0 0 1 2.13 582.47 L2.13 501.35 Z" class="st1"/>
		</g>
		<a
				xlink:href="https://github.com/Azure-Samples/active-directory-aspnetcore-webapp-openidconnect-v2/blob/master/1-WebApp-OIDC/1-2-AnyOrg/README-1-1-to-1-2.md">
			<g id="shape355-34" v:mID="355" v:groupContext="shape" v:layerMember="0"
					transform="translate(155.291,792.455) rotate(180)">
				<title>Metro curve 1.355</title>
				<v:custProps>
					<v:cp v:nameU="MetroThickness" v:lbl="Metro Width" v:type="2" v:langID="1033" v:val="VT0(0.059055118110236):24"/>
				</v:custProps>
				<v:userDefs>
					<v:ud v:nameU="Thickness" v:val="VT0(1):26"/>
					<v:ud v:nameU="ScaleFactor" v:val="VT0(1):26"/>
					<v:ud v:nameU="visVersion" v:val="VT0(15):26"/>
					<v:ud v:nameU="Thickness" v:prompt="" v:val="VT0(0):26"/>
				</v:userDefs>
				<path d="M2.13 532.15 L-2.13 532.15 L-2.13 582.47 A8.5038 8.5038 -180 0 0 6.38 590.97 L56.69 590.97 L56.69 586.72
							 L6.38 586.72 A4.2519 4.2519 0 0 1 2.13 582.47 L2.13 532.15 Z" class="st1"/>
			</g>
		</a>
		<a
				xlink:href="https://github.com/Azure-Samples/active-directory-aspnetcore-webapp-openidconnect-v2/blob/master/1-WebApp-OIDC/1-3-AnyOrgOrPersonal/README-1-1-to-1-3.md">
			<g id="shape356-36" v:mID="356" v:groupContext="shape" v:layerMember="0"
					transform="translate(197.346,855.689) rotate(180)">
				<title>Metro curve 1.356</title>
				<v:custProps>
					<v:cp v:nameU="MetroThickness" v:lbl="Metro Width" v:type="2" v:langID="1033" v:val="VT0(0.059055118110236):24"/>
				</v:custProps>
				<v:userDefs>
					<v:ud v:nameU="Thickness" v:val="VT0(1):26"/>
					<v:ud v:nameU="ScaleFactor" v:val="VT0(1):26"/>
					<v:ud v:nameU="visVersion" v:val="VT0(15):26"/>
					<v:ud v:nameU="Thickness" v:prompt="" v:val="VT0(0):26"/>
				</v:userDefs>
				<path d="M2.13 510.62 L-2.13 510.62 L-2.13 582.47 A8.5038 8.5038 -180 0 0 6.38 590.97 L40.09 590.97 L40.09 586.72
							 L6.38 586.72 A4.2519 4.2519 0 0 1 2.13 582.47 L2.13 510.62 Z" class="st1"/>
			</g>
		</a>
		<a
				xlink:href="https://github.com/Azure-Samples/active-directory-aspnetcore-webapp-openidconnect-v2/blob/master/1-WebApp-OIDC/1-3-AnyOrgOrPersonal/README-1-1-to-1-3.md">
			<g id="shape357-38" v:mID="357" v:groupContext="shape" v:layerMember="0"
					transform="translate(207.304,791.465) rotate(180)">
				<title>Metro curve 1.357</title>
				<v:custProps>
					<v:cp v:nameU="MetroThickness" v:lbl="Metro Width" v:type="2" v:langID="1033" v:val="VT0(0.059055118110236):24"/>
				</v:custProps>
				<v:userDefs>
					<v:ud v:nameU="Thickness" v:val="VT0(1):26"/>
					<v:ud v:nameU="ScaleFactor" v:val="VT0(1):26"/>
					<v:ud v:nameU="visVersion" v:val="VT0(15):26"/>
					<v:ud v:nameU="Thickness" v:prompt="" v:val="VT0(0):26"/>
				</v:userDefs>
				<path d="M2.13 446.4 L-2.13 446.4 L-2.13 582.47 A8.5038 8.5038 -180 0 0 6.38 590.97 L99.78 590.97 L99.78 586.72 L6.38
							 586.72 A4.2519 4.2519 0 0 1 2.13 582.47 L2.13 446.4 Z" class="st1"/>
			</g>
		</a>
		<a
				xlink:href="https://github.com/Azure-Samples/active-directory-aspnetcore-webapp-openidconnect-v2/tree/master/1-WebApp-OIDC/1-3-AnyOrgOrPersonal"
				xlink:title="1-3-AnyOrgOrPersonal">
			<g id="group358-40" transform="translate(-212.904,-46.5154) rotate(-45)" v:mID="358" v:groupContext="group"
					v:layerMember="0">
				<v:userDefs>
					<v:ud v:nameU="visVersion" v:val="VT0(15):26"/>
				</v:userDefs>
				<title>Station.358</title>
				<g id="shape359-41" v:mID="359" v:groupContext="shape" v:layerMember="0">
					<title>Sheet.359</title>
					<path d="M0 574.67 A14.1732 14.1732 0 0 1 28.35 574.67 A14.1732 14.1732 0 1 1 0 574.67 Z" class="st6"/>
				</g>
				<g id="shape360-43" v:mID="360" v:groupContext="shape" v:layerMember="0" transform="translate(4.25197,-4.25197)">
					<title>Sheet.360</title>
					<path d="M0 578.92 A9.92126 9.92126 0 0 1 19.84 578.92 A9.92126 9.92126 0 1 1 0 578.92 Z" class="st7"/>
				</g>
				<g id="shape361-45" v:mID="361" v:groupContext="shape" transform="translate(28.3465,0)">
					<title>Sheet.361</title>
					<desc>With orgs and personal accounts</desc>
					<v:textBlock v:margins="rect(0,0,0,0)" v:tabSpace="42.5197"/>
					<v:textRect cx="42.6549" cy="574.671" width="85.31" height="28.3465"/>
					<rect x="0" y="560.498" width="85.3099" height="28.3465" class="st8"/>
					<text x="11.46" y="571.67" class="st9" v:langID="1033"><v:paragraph v:horizAlign="1"/><v:tabList/>With orgs and <v:lf/><tspan
								x="2.79" dy="1.2em" class="st10">personal accounts</tspan></text>				</g>
			</g>
		</a>
		<g id="shape362-49" v:mID="362" v:groupContext="shape" v:layerMember="0"
				transform="translate(-354.895,196.267) rotate(-90)">
			<title>Metro curve 1.362</title>
			<v:custProps>
				<v:cp v:nameU="MetroThickness" v:lbl="Metro Width" v:type="2" v:langID="1033" v:val="VT0(0.059055118110236):24"/>
			</v:custProps>
			<v:userDefs>
				<v:ud v:nameU="Thickness" v:val="VT0(1):26"/>
				<v:ud v:nameU="ScaleFactor" v:val="VT0(1):26"/>
				<v:ud v:nameU="visVersion" v:val="VT0(15):26"/>
				<v:ud v:nameU="Thickness" v:prompt="" v:val="VT0(0):26"/>
			</v:userDefs>
			<path d="M2.13 462.42 L-2.13 462.42 L-2.13 582.47 A8.5038 8.5038 -180 0 0 6.38 590.97 L100.06 590.97 L100.06 586.72 L6.38
						 586.72 A4.2519 4.2519 0 0 1 2.13 582.47 L2.13 462.42 Z" class="st11"/>
		</g>
		<a
				xlink:href="https://github.com/Azure-Samples/active-directory-aspnetcore-webapp-openidconnect-v2/tree/master/1-WebApp-OIDC/1-1-MyOrg"
				xlink:title="1-1-MyOrg">
			<g id="group363-51" transform="translate(-310.058,-193.491) rotate(-45)" v:mID="363" v:groupContext="group"
					v:layerMember="0">
				<v:userDefs>
					<v:ud v:nameU="visVersion" v:val="VT0(15):26"/>
				</v:userDefs>
				<title>Station.363</title>
				<g id="shape364-52" v:mID="364" v:groupContext="shape" v:layerMember="0">
					<title>Sheet.364</title>
					<path d="M0 574.67 A14.1732 14.1732 0 0 1 28.35 574.67 A14.1732 14.1732 0 1 1 0 574.67 Z" class="st6"/>
				</g>
				<g id="shape365-54" v:mID="365" v:groupContext="shape" v:layerMember="0" transform="translate(4.25197,-4.25197)">
					<title>Sheet.365</title>
					<path d="M0 578.92 A9.92126 9.92126 0 0 1 19.84 578.92 A9.92126 9.92126 0 1 1 0 578.92 Z" class="st7"/>
				</g>
				<g id="shape366-56" v:mID="366" v:groupContext="shape" transform="translate(28.3465,0)">
					<title>Sheet.366</title>
					<desc>In My Org</desc>
					<v:textBlock v:margins="rect(0,0,0,0)" v:tabSpace="42.5197"/>
					<v:textRect cx="26.4191" cy="574.671" width="52.84" height="28.3465"/>
					<rect x="0" y="560.498" width="52.8381" height="28.3465" class="st8"/>
					<text x="2.79" y="577.67" class="st9" v:langID="1033"><v:paragraph v:horizAlign="1"/><v:tabList/>In  My Org</text>				</g>
			</g>
		</a>
		<g id="shape367-59" v:mID="367" v:groupContext="shape" v:layerMember="0"
				transform="translate(-354.895,254.358) rotate(-90)">
			<title>Metro curve 1.367</title>
			<v:custProps>
				<v:cp v:nameU="MetroThickness" v:lbl="Metro Width" v:type="2" v:langID="1033" v:val="VT0(0.059055118110236):24"/>
			</v:custProps>
			<v:userDefs>
				<v:ud v:nameU="Thickness" v:val="VT0(1):26"/>
				<v:ud v:nameU="ScaleFactor" v:val="VT0(1):26"/>
				<v:ud v:nameU="visVersion" v:val="VT0(15):26"/>
				<v:ud v:nameU="Thickness" v:prompt="" v:val="VT0(0):26"/>
			</v:userDefs>
			<path d="M2.13 520.21 L-2.13 520.21 L-2.13 582.47 A8.5038 8.5038 -180 0 0 6.38 590.97 L156.47 590.97 L156.47 586.72 L6.38
						 586.72 A4.2519 4.2519 0 0 1 2.13 582.47 L2.13 520.21 Z" class="st11"/>
		</g>
		<a
				xlink:href="https://github.com/Azure-Samples/active-directory-aspnetcore-webapp-openidconnect-v2/tree/master/1-WebApp-OIDC/1-2-AnyOrg"
				xlink:title="1-2-AnyOrg">
			<g id="group368-61" transform="translate(-261.085,-136.029) rotate(-45)" v:mID="368" v:groupContext="group"
					v:layerMember="0">
				<v:userDefs>
					<v:ud v:nameU="visVersion" v:val="VT0(15):26"/>
				</v:userDefs>
				<title>Station.368</title>
				<g id="shape369-62" v:mID="369" v:groupContext="shape" v:layerMember="0">
					<title>Sheet.369</title>
					<path d="M0 574.67 A14.1732 14.1732 0 0 1 28.35 574.67 A14.1732 14.1732 0 1 1 0 574.67 Z" class="st12"/>
				</g>
				<g id="shape370-64" v:mID="370" v:groupContext="shape" v:layerMember="0" transform="translate(4.25197,-4.25197)">
					<title>Sheet.370</title>
					<path d="M0 578.92 A9.92126 9.92126 0 0 1 19.84 578.92 A9.92126 9.92126 0 1 1 0 578.92 Z" class="st7"/>
				</g>
				<g id="shape371-66" v:mID="371" v:groupContext="shape" transform="translate(28.3465,0)">
					<title>Sheet.371</title>
					<desc>In Any Org</desc>
					<v:textBlock v:margins="rect(4,4,4,4)" v:tabSpace="42.5197"/>
					<v:textRect cx="25.5752" cy="574.671" width="51.16" height="28.3465"/>
					<rect x="0" y="560.498" width="51.1504" height="28.3465" class="st13"/>
					<text x="6.51" y="577.07" class="st14" v:langID="1033"><v:paragraph v:horizAlign="1"/><v:tabList/>In Any Org</text>				</g>
			</g>
		</a>
		<a
				xlink:href="https://github.com/Azure-Samples/active-directory-aspnetcore-webapp-openidconnect-v2/tree/master/1-WebApp-OIDC/1-4-Sovereign">
			<g id="group372-69" transform="translate(-182.149,-306.384) rotate(-45)" v:mID="372" v:groupContext="group"
					v:layerMember="0">
				<v:userDefs>
					<v:ud v:nameU="visVersion" v:val="VT0(15):26"/>
				</v:userDefs>
				<title>Station.372</title>
				<g id="shape373-70" v:mID="373" v:groupContext="shape" v:layerMember="0">
					<title>Sheet.373</title>
					<path d="M0 574.67 A14.1732 14.1732 0 0 1 28.35 574.67 A14.1732 14.1732 0 1 1 0 574.67 Z" class="st15"/>
				</g>
				<g id="shape374-72" v:mID="374" v:groupContext="shape" v:layerMember="0" transform="translate(4.25197,-4.25197)">
					<title>Sheet.374</title>
					<path d="M0 578.72 A9.92126 10.1295 0 0 1 19.84 578.72 A9.92126 10.1295 0 1 1 0 578.72 Z" class="st15"/>
				</g>
				<g id="shape375-74" v:mID="375" v:groupContext="shape" transform="translate(28.3465,0)">
					<title>Sheet.375</title>
					<desc>In Sovereign clouds</desc>
					<v:textBlock v:margins="rect(0,0,0,0)" v:tabSpace="42.5197"/>
					<v:textRect cx="45.9676" cy="574.671" width="91.94" height="28.3465"/>
					<text x="2.79" y="577.67" class="st9" v:langID="1033"><v:paragraph v:horizAlign="1"/><v:tabList/>In Sovereign clouds</text>				</g>
			</g>
		</a>
		<a
				xlink:href="https://github.com/Azure-Samples/active-directory-aspnetcore-webapp-openidconnect-v2/tree/master/2-WebApp-graph-user/2-1-Call-MSGraph">
			<g id="group377-77" transform="translate(19.5617,-134.402) rotate(-45)" v:mID="377" v:groupContext="group"
					v:layerMember="0">
				<v:userDefs>
					<v:ud v:nameU="visVersion" v:val="VT0(15):26"/>
				</v:userDefs>
				<title>Station.377</title>
				<g id="shape378-78" v:mID="378" v:groupContext="shape" v:layerMember="0">
					<title>Sheet.378</title>
					<path d="M0 574.67 A14.1732 14.1732 0 0 1 28.35 574.67 A14.1732 14.1732 0 1 1 0 574.67 Z" class="st6"/>
				</g>
				<g id="shape379-80" v:mID="379" v:groupContext="shape" v:layerMember="0" transform="translate(4.25197,-4.25197)">
					<title>Sheet.379</title>
					<path d="M0 578.92 A9.92126 9.92126 0 0 1 19.84 578.92 A9.92126 9.92126 0 1 1 0 578.92 Z" class="st7"/>
				</g>
				<g id="shape380-82" v:mID="380" v:groupContext="shape" transform="translate(28.3465,0)">
					<title>Sheet.380</title>
					<desc>Call Microsoft Graph</desc>
					<v:textBlock v:margins="rect(0,0,0,0)" v:tabSpace="42.5197"/>
					<v:textRect cx="38.6289" cy="574.671" width="77.26" height="28.3465"/>
					<rect x="0" y="560.498" width="77.2577" height="28.3465" class="st8"/>
					<text x="30.57" y="571.67" class="st9" v:langID="1033"><v:paragraph v:horizAlign="1"/><v:tabList/>Call <v:lf/><tspan
								x="2.79" dy="1.2em" class="st10">Microsoft Graph</tspan></text>				</g>
			</g>
		</a>
		<g id="group381-86" transform="translate(380.334,166.904) rotate(-45)" v:mID="381" v:groupContext="group" v:layerMember="0">
			<v:userDefs>
				<v:ud v:nameU="visVersion" v:val="VT0(15):26"/>
			</v:userDefs>
			<title>Station.381</title>
			<g id="shape382-87" v:mID="382" v:groupContext="shape" v:layerMember="0">
				<title>Sheet.382</title>
				<path d="M0 574.67 A14.1732 14.1732 0 0 1 28.35 574.67 A14.1732 14.1732 0 1 1 0 574.67 Z" class="st6"/>
			</g>
			<g id="shape383-89" v:mID="383" v:groupContext="shape" v:layerMember="0" transform="translate(4.25197,-4.25197)">
				<title>Sheet.383</title>
				<path d="M0 578.92 A9.92126 9.92126 0 0 1 19.84 578.92 A9.92126 9.92126 0 1 1 0 578.92 Z" class="st7"/>
			</g>
			<g id="shape384-91" v:mID="384" v:groupContext="shape" transform="translate(28.3465,0)">
				<title>Sheet.384</title>
				<desc>Deployment</desc>
				<v:textBlock v:margins="rect(0,0,0,0)" v:tabSpace="42.5197"/>
				<v:textRect cx="29.8543" cy="574.671" width="59.71" height="28.3465"/>
				<rect x="0" y="560.498" width="59.7087" height="28.3465" class="st8"/>
				<text x="2.79" y="577.67" class="st9" v:langID="1033"><v:paragraph v:horizAlign="1"/><v:tabList/>Deployment</text>			</g>
		</g>
		<g id="shape385-94" v:mID="385" v:groupContext="shape" v:layerMember="1" transform="translate(435.669,-498.897)">
			<title>Dynamic connector.385</title>
			<path d="M0 588.84 L89.12 588.84 L89.12 759.41" class="st3"/>
		</g>
		<g id="shape386-97" v:mID="386" v:groupContext="shape" v:layerMember="1" transform="translate(538.958,-321.243)">
			<title>Dynamic connector.386</title>
			<path d="M0 581.76 L130.38 581.76" class="st2"/>
		</g>
		<g id="shape387-100" v:mID="387" v:groupContext="shape" v:layerMember="1" transform="translate(683.512,-321.243)">
			<title>Dynamic connector.387</title>
			<path d="M0 581.76 L66.63 581.76" class="st2"/>
		</g>
		<g id="shape388-103" v:mID="388" v:groupContext="shape" v:layerMember="1" transform="translate(40.7226,-328.818)">
			<title>Dynamic connector.388</title>
			<path d="M0 588.84 L0 777.66 L215.56 777.66" class="st16"/>
		</g>
		<g id="shape389-106" v:mID="389" v:groupContext="shape" v:layerMember="1" transform="translate(256.283,-140)">
			<title>Dynamic connector.389</title>
			<path d="M0 588.84 L413.06 588.84 L413.06 414.69" class="st16"/>
		</g>
		<a
				xlink:href="https://github.com/Azure-Samples/active-directory-aspnetcore-webapp-openidconnect-v2/tree/master/1-WebApp-OIDC/1-5-B2C">
			<g id="group390-109" transform="translate(-160.093,52.5124) rotate(-45)" v:mID="390" v:groupContext="group"
					v:layerMember="0">
				<v:userDefs>
					<v:ud v:nameU="visVersion" v:val="VT0(15):26"/>
				</v:userDefs>
				<title>Station.390</title>
				<g id="shape391-110" v:mID="391" v:groupContext="shape" v:layerMember="0">
					<title>Sheet.391</title>
					<path d="M0 574.67 A14.1732 14.1732 0 0 1 28.35 574.67 A14.1732 14.1732 0 1 1 0 574.67 Z" class="st17"/>
				</g>
				<g id="shape392-112" v:mID="392" v:groupContext="shape" v:layerMember="0" transform="translate(4.25197,-4.25197)">
					<title>Sheet.392</title>
					<path d="M0 578.92 A9.92126 9.92126 0 0 1 19.84 578.92 A9.92126 9.92126 0 1 1 0 578.92 Z" class="st17"/>
				</g>
				<g id="shape393-114" v:mID="393" v:groupContext="shape" transform="translate(28.3465,0)">
					<title>Sheet.393</title>
					<desc>With social identities</desc>
					<v:textBlock v:margins="rect(0,0,0,0)" v:tabSpace="42.5197"/>
					<v:textRect cx="48.4068" cy="574.671" width="96.82" height="28.3465"/>
					<text x="2.79" y="577.67" class="st9" v:langID="1036"><v:paragraph v:horizAlign="1"/><v:tabList/>With social identities</text>				</g>
			</g>
		</a>
		<a
				xlink:href="https://github.com/Azure-Samples/active-directory-aspnetcore-webapp-openidconnect-v2/tree/master/4-WebApp-your-API">
			<g id="group394-117" transform="translate(252.962,-135.817) rotate(-45)" v:mID="394" v:groupContext="group"
					v:layerMember="0">
				<v:userDefs>
					<v:ud v:nameU="visVersion" v:val="VT0(15):26"/>
				</v:userDefs>
				<title>Station.394</title>
				<g id="shape395-118" v:mID="395" v:groupContext="shape" v:layerMember="0">
					<title>Sheet.395</title>
					<path d="M0 574.67 A14.1732 14.1732 0 0 1 28.35 574.67 A14.1732 14.1732 0 1 1 0 574.67 Z" class="st18"/>
				</g>
				<g id="shape396-120" v:mID="396" v:groupContext="shape" v:layerMember="0" transform="translate(4.25197,-4.25197)">
					<title>Sheet.396</title>
					<path d="M0 578.92 A9.92126 9.92126 0 0 1 19.84 578.92 A9.92126 9.92126 0 1 1 0 578.92 Z" class="st18"/>
				</g>
				<g id="shape397-122" v:mID="397" v:groupContext="shape" transform="translate(28.3465,0)">
					<title>Sheet.397</title>
					<desc>Call your own API</desc>
					<v:textBlock v:margins="rect(0,0,0,0)" v:tabSpace="42.5197"/>
					<v:textRect cx="23.5066" cy="574.671" width="47.02" height="28.3465"/>
					<text x="4.16" y="571.67" class="st9" v:langID="1036"><v:paragraph v:horizAlign="1"/><v:tabList/>Call your <v:lf/><tspan
								x="5.41" dy="1.2em" class="st10">own API</tspan></text>				</g>
			</g>
		</a>
		<g id="shape398-126" v:mID="398" v:groupContext="shape" v:layerMember="1" transform="translate(40.7226,-328.818)">
			<title>Dynamic connector.398</title>
			<path d="M0 588.84 L0 418.77 L179.33 418.77" class="st3"/>
		</g>
		<a
				xlink:href="https://github.com/Azure-Samples/active-directory-aspnetcore-webapp-openidconnect-v2/tree/master/1-WebApp-OIDC"
				xlink:title="1-WebApp-OIDC">
			<g id="group399-129" transform="translate(-375.653,-136.305) rotate(-45)" v:mID="399" v:groupContext="group"
					v:layerMember="0">
				<v:userDefs>
					<v:ud v:nameU="visVersion" v:val="VT0(15):26"/>
				</v:userDefs>
				<title>Station.399</title>
				<g id="shape400-130" v:mID="400" v:groupContext="shape" v:layerMember="0">
					<title>Sheet.400</title>
					<path d="M0 574.67 A14.1732 14.1732 0 0 1 28.35 574.67 A14.1732 14.1732 0 1 1 0 574.67 Z" class="st6"/>
				</g>
				<g id="shape401-132" v:mID="401" v:groupContext="shape" v:layerMember="0" transform="translate(4.25197,-4.25197)">
					<title>Sheet.401</title>
					<path d="M0 578.92 A9.92126 9.92126 0 0 1 19.84 578.92 A9.92126 9.92126 0 1 1 0 578.92 Z" class="st7"/>
				</g>
				<g id="shape402-134" v:mID="402" v:groupContext="shape" transform="translate(28.3465,0)">
					<title>Sheet.402</title>
					<desc>Sign-in users</desc>
					<v:textBlock v:margins="rect(0,0,0,0)" v:tabSpace="42.5197"/>
					<v:textRect cx="28.1796" cy="574.671" width="56.36" height="28.3465"/>
					<rect x="0" y="560.498" width="56.3592" height="28.3465" class="st8"/>
					<text x="2.55" y="577.67" class="st19" v:langID="1033"><v:paragraph v:horizAlign="1"/><v:tabList/>Sign-in users</text>				</g>
			</g>
		</a>
		<a
				xlink:href="https://github.com/Azure-Samples/active-directory-aspnetcore-webapp-openidconnect-v2/tree/master/2-WebApp-graph-user/2-4-Sovereign-Call-MSGraph">
			<g id="group403-137" transform="translate(19.293,-306.384) rotate(-45)" v:mID="403" v:groupContext="group"
					v:layerMember="0">
				<v:userDefs>
					<v:ud v:nameU="visVersion" v:val="VT0(15):26"/>
				</v:userDefs>
				<title>Station.403</title>
				<g id="shape404-138" v:mID="404" v:groupContext="shape" v:layerMember="0">
					<title>Sheet.404</title>
					<path d="M0 574.67 A14.1732 14.1732 0 0 1 28.35 574.67 A14.1732 14.1732 0 1 1 0 574.67 Z" class="st15"/>
				</g>
				<g id="shape405-140" v:mID="405" v:groupContext="shape" v:layerMember="0" transform="translate(4.25197,-4.25197)">
					<title>Sheet.405</title>
					<path d="M0 578.92 A9.92126 9.92126 0 0 1 19.84 578.92 A9.92126 9.92126 0 1 1 0 578.92 Z" class="st15"/>
				</g>
				<g id="shape406-142" v:mID="406" v:groupContext="shape" transform="translate(28.3465,0)">
					<title>Sheet.406</title>
					<desc>Call Microsoft Graph (Sovereign)</desc>
					<v:textBlock v:margins="rect(0,0,0,0)" v:tabSpace="42.5197"/>
					<v:textRect cx="49.4297" cy="574.671" width="98.86" height="28.3465"/>
					<text x="4.16" y="571.67" class="st9" v:langID="1036"><v:paragraph v:horizAlign="1"/><v:tabList/>Call Microsoft Graph <v:lf/><tspan
								x="24.48" dy="1.2em" class="st10">(Sovereign)</tspan></text>				</g>
			</g>
		</a>
		<a
				xlink:href="https://github.com/Azure-Samples/active-directory-aspnetcore-webapp-openidconnect-v2/tree/master/3-WebApp-multi-APIs">
			<g id="group407-146" transform="translate(108.408,-135.817) rotate(-45)" v:mID="407" v:groupContext="group"
					v:layerMember="0">
				<v:userDefs>
					<v:ud v:nameU="visVersion" v:val="VT0(15):26"/>
				</v:userDefs>
				<title>Station.407</title>
				<g id="shape408-147" v:mID="408" v:groupContext="shape" v:layerMember="0">
					<title>Sheet.408</title>
					<path d="M0 574.67 A14.1732 14.1732 0 0 1 28.35 574.67 A14.1732 14.1732 0 1 1 0 574.67 Z" class="st6"/>
				</g>
				<g id="shape409-149" v:mID="409" v:groupContext="shape" v:layerMember="0" transform="translate(4.25197,-4.25197)">
					<title>Sheet.409</title>
					<path d="M0 578.92 A9.92126 9.92126 0 0 1 19.84 578.92 A9.92126 9.92126 0 1 1 0 578.92 Z" class="st7"/>
				</g>
				<g id="shape410-151" v:mID="410" v:groupContext="shape" transform="translate(28.3465,0)">
					<title>Sheet.410</title>
					<desc>Call several Microsoft APIs</desc>
					<v:textBlock v:margins="rect(0,0,0,0)" v:tabSpace="42.5197"/>
					<v:textRect cx="34.6248" cy="574.671" width="69.25" height="28.3465"/>
					<rect x="0" y="560.498" width="69.2495" height="28.3465" class="st8"/>
					<text x="9.95" y="571.67" class="st9" v:langID="1033"><v:paragraph v:horizAlign="1"/><v:tabList/>Call several<v:lf/><tspan
								x="2.79" dy="1.2em" class="st10">Microsoft APIs</tspan></text>				</g>
			</g>
		</a>
		<g id="shape411-155" v:mID="411" v:groupContext="shape" v:layerMember="1" transform="translate(750.143,-328.329)">
			<title>Dynamic connector.411</title>
			<path d="M0 588.84 L62.82 588.84 L62.82 528.55 L108.93 528.55" class="st2"/>
		</g>
		<g id="shape412-158" v:mID="412" v:groupContext="shape" v:layerMember="1" transform="translate(750.143,-328.329)">
			<title>Dynamic connector.412</title>
			<path d="M0 588.84 L63.31 588.84 L63.31 645.05 L108.93 645.05" class="st2"/>
		</g>
		<a
				xlink:href="https://github.com/Azure-Samples/active-directory-aspnetcore-webapp-openidconnect-v2/tree/master/5-WebApp-AuthZ">
			<g id="group413-161" transform="translate(333.767,-135.817) rotate(-45)" v:mID="413" v:groupContext="group"
					v:layerMember="0">
				<v:userDefs>
					<v:ud v:nameU="visVersion" v:val="VT0(15):26"/>
				</v:userDefs>
				<title>Station.413</title>
				<g id="shape414-162" v:mID="414" v:groupContext="shape" v:layerMember="0">
					<title>Sheet.414</title>
					<path d="M0 574.67 A14.1732 14.1732 0 0 1 28.35 574.67 A14.1732 14.1732 0 1 1 0 574.67 Z" class="st6"/>
				</g>
				<g id="shape415-164" v:mID="415" v:groupContext="shape" v:layerMember="0" transform="translate(4.25197,-4.25197)">
					<title>Sheet.415</title>
					<path d="M0 578.92 A9.92126 9.92126 0 0 1 19.84 578.92 A9.92126 9.92126 0 1 1 0 578.92 Z" class="st7"/>
				</g>
				<g id="shape416-166" v:mID="416" v:groupContext="shape" transform="translate(28.3465,0)">
					<title>Sheet.416</title>
					<desc>Authorization</desc>
					<v:textBlock v:margins="rect(0,0,0,0)" v:tabSpace="42.5197"/>
					<v:textRect cx="32.7159" cy="574.671" width="65.44" height="28.3465"/>
					<rect x="0" y="560.498" width="65.4318" height="28.3465" class="st8"/>
					<text x="2.79" y="577.67" class="st9" v:langID="1033"><v:paragraph v:horizAlign="1"/><v:tabList/>Authorization</text>				</g>
			</g>
		</a>
		<a
				xlink:href="https://github.com/Azure-Samples/active-directory-aspnetcore-webapp-openidconnect-v2/tree/master/5-WebApp-AuthZ/5-2-Groups">
			<g id="group417-169" transform="translate(442.694,-196.108) rotate(-45)" v:mID="417" v:groupContext="group"
					v:layerMember="0">
				<v:userDefs>
					<v:ud v:nameU="visVersion" v:val="VT0(15):26"/>
				</v:userDefs>
				<title>Station.417</title>
				<g id="shape418-170" v:mID="418" v:groupContext="shape" v:layerMember="0">
					<title>Sheet.418</title>
					<path d="M0 574.67 A14.1732 14.1732 0 0 1 28.35 574.67 A14.1732 14.1732 0 1 1 0 574.67 Z" class="st6"/>
				</g>
				<g id="shape419-172" v:mID="419" v:groupContext="shape" v:layerMember="0" transform="translate(4.25197,-4.25197)">
					<title>Sheet.419</title>
					<path d="M0 578.92 A9.92126 9.92126 0 0 1 19.84 578.92 A9.92126 9.92126 0 1 1 0 578.92 Z" class="st7"/>
				</g>
				<g id="shape420-174" v:mID="420" v:groupContext="shape" transform="translate(28.3465,0)">
					<title>Sheet.420</title>
					<desc>With groups</desc>
					<v:textBlock v:margins="rect(0,0,0,0)" v:tabSpace="42.5197"/>
					<v:textRect cx="30.0668" cy="574.671" width="60.14" height="28.3465"/>
					<rect x="0" y="560.498" width="60.1336" height="28.3465" class="st8"/>
					<text x="2.79" y="577.67" class="st9" v:langID="1033"><v:paragraph v:horizAlign="1"/><v:tabList/>With groups</text>				</g>
			</g>
		</a>
		<a
				xlink:href="https://github.com/Azure-Samples/active-directory-aspnetcore-webapp-openidconnect-v2/tree/master/5-WebApp-AuthZ/5-2-Groups">
			<g id="group421-177" transform="translate(442.694,-79.6124) rotate(-45)" v:mID="421" v:groupContext="group"
					v:layerMember="0">
				<v:userDefs>
					<v:ud v:nameU="visVersion" v:val="VT0(15):26"/>
				</v:userDefs>
				<title>Station.421</title>
				<g id="shape422-178" v:mID="422" v:groupContext="shape" v:layerMember="0">
					<title>Sheet.422</title>
					<path d="M0 574.67 A14.1732 14.1732 0 0 1 28.35 574.67 A14.1732 14.1732 0 1 1 0 574.67 Z" class="st6"/>
				</g>
				<g id="shape423-180" v:mID="423" v:groupContext="shape" v:layerMember="0" transform="translate(4.25197,-4.25197)">
					<title>Sheet.423</title>
					<path d="M0 578.92 A9.92126 9.92126 0 0 1 19.84 578.92 A9.92126 9.92126 0 1 1 0 578.92 Z" class="st7"/>
				</g>
				<g id="shape424-182" v:mID="424" v:groupContext="shape" transform="translate(28.3465,0)">
					<title>Sheet.424</title>
					<desc>With roles</desc>
					<v:textBlock v:margins="rect(0,0,0,0)" v:tabSpace="42.5197"/>
					<v:textRect cx="25.179" cy="574.671" width="50.36" height="28.3465"/>
					<rect x="0" y="560.498" width="50.358" height="28.3465" class="st8"/>
					<text x="2.79" y="577.67" class="st9" v:langID="1033"><v:paragraph v:horizAlign="1"/><v:tabList/>With roles</text>				</g>
			</g>
		</a>
		<g id="shape425-185" v:mID="425" v:groupContext="shape" transform="translate(1.49394,-0.375)">
			<title>Sheet.425</title>
			<desc>Deployment to Azure</desc>
			<v:textBlock v:margins="rect(4,4,4,4)" v:tabSpace="42.5197" v:verticalAlign="0"/>
			<v:textRect cx="482.06" cy="545.096" width="964.13" height="87.498"/>
			<rect x="0" y="501.347" width="964.12" height="87.498" class="st4"/>
			<text x="4" y="516.15" class="st5" v:langID="1033"><v:paragraph/><v:tabList/>Deployment to Azure</text>		</g>
		<g id="group426-188" transform="translate(166.22,-3.1396) rotate(-45)" v:mID="426" v:groupContext="group" v:layerMember="0">
			<v:userDefs>
				<v:ud v:nameU="visVersion" v:val="VT0(15):26"/>
			</v:userDefs>
			<title>Station.426</title>
			<g id="shape427-189" v:mID="427" v:groupContext="shape" v:layerMember="0">
				<title>Sheet.427</title>
				<path d="M0 574.67 A14.1732 14.1732 0 0 1 28.35 574.67 A14.1732 14.1732 0 1 1 0 574.67 Z" class="st6"/>
			</g>
			<g id="shape428-191" v:mID="428" v:groupContext="shape" v:layerMember="0" transform="translate(4.25197,-4.25197)">
				<title>Sheet.428</title>
				<path d="M0 578.92 A9.92126 9.92126 0 0 1 19.84 578.92 A9.92126 9.92126 0 1 1 0 578.92 Z" class="st7"/>
			</g>
			<g id="shape429-193" v:mID="429" v:groupContext="shape" transform="translate(28.3465,0)">
				<title>Sheet.429</title>
				<desc>Token caches</desc>
				<v:textBlock v:margins="rect(0,0,0,0)" v:tabSpace="42.5197"/>
				<v:textRect cx="29.8348" cy="574.671" width="59.67" height="28.3465"/>
				<rect x="0" y="560.498" width="59.6697" height="28.3465" class="st8"/>
				<text x="2.55" y="577.67" class="st19" v:langID="1033"><v:paragraph v:horizAlign="1"/><v:tabList/>Token caches</text>			</g>
		</g>
		<g id="shape430-196" v:mID="430" v:groupContext="shape" transform="translate(526.084,-205.511)">
			<title>Sheet.430</title>
			<desc>- in memory token cache - session token cache - SQL token cache</desc>
			<v:textBlock v:margins="rect(4,4,4,4)" v:tabSpace="42.5197" v:verticalAlign="0"/>
			<v:textRect cx="38.8858" cy="540.947" width="77.78" height="95.7952"/>
			<rect x="0" y="493.049" width="77.7717" height="95.7952" class="st20"/>
			<text x="4" y="506.05" class="st19" v:langID="1033"><v:paragraph/><v:tabList/>- in memory <v:lf/><tspan x="4"
						dy="1.2em" class="st10">   </tspan>token cache<v:newlineChar/><tspan x="4" dy="1.2em" class="st10">-</tspan> session <v:lf/><tspan
						x="4" dy="1.2em" class="st10">   </tspan>token cache<v:newlineChar/><tspan x="4" dy="1.2em" class="st10">-</tspan> SQL <v:lf/><tspan
						x="4" dy="1.2em" class="st10">  </tspan>token cache</text>		</g>
	</g>
</svg>
