<?xml version="1.0" encoding="UTF-8" standalone="no"?>
<!DOCTYPE svg PUBLIC "-//W3C//DTD SVG 1.1//EN" "http://www.w3.org/Graphics/SVG/1.1/DTD/svg11.dtd">
<!-- Generated by Microsoft Visio, SVG Export aspnetcore-webapp-tutorial-alt.svg Page-1 -->
<svg xmlns="http://www.w3.org/2000/svg" xmlns:xlink="http://www.w3.org/1999/xlink" xmlns:ev="http://www.w3.org/2001/xml-events"
		xmlns:v="http://schemas.microsoft.com/visio/2003/SVGExtensions/" width="13.4165in" height="9.73483in"
		viewBox="0 0 965.989 700.907" xml:space="preserve" color-interpolation-filters="sRGB" class="st29">
	<v:documentProperties v:langID="1036" v:metric="true" v:viewMarkup="false"/>

	<style type="text/css">
	<![CDATA[
		.st1 {fill:#00b050;stroke:none;stroke-linecap:round;stroke-linejoin:round;stroke-width:0.75}
		.st2 {stroke:#00b050;stroke-linecap:round;stroke-linejoin:round;stroke-width:4.5}
		.st3 {stroke:#00b0f0;stroke-linecap:round;stroke-linejoin:round;stroke-width:4.5}
		.st4 {fill:none;stroke:#7f7f7f;stroke-linecap:round;stroke-linejoin:round;stroke-width:0.75}
		.st5 {fill:#000000;font-family:Segoe UI;font-size:1.00001em}
		.st6 {fill:#808080;stroke:none;stroke-linecap:round;stroke-linejoin:round;stroke-width:0.75}
		.st7 {fill:#ffffff;stroke:none;stroke-linecap:round;stroke-linejoin:round;stroke-width:0.75}
		.st8 {fill:#ffffff;stroke:none;stroke-linecap:round;stroke-linejoin:round;stroke-width:0.75;visibility:hidden}
		.st9 {fill:#000000;font-family:Segoe UI;font-size:0.833336em}
		.st10 {font-size:1em}
		.st11 {fill:#00b0f0;stroke:none;stroke-linecap:round;stroke-linejoin:round;stroke-width:0.75}
		.st12 {fill:#7f7f7f;stroke:none;stroke-linecap:round;stroke-linejoin:round;stroke-width:0.75}
		.st13 {fill:#7f7f7f;stroke:none;stroke-linecap:round;stroke-linejoin:round;stroke-width:0.75;visibility:hidden}
		.st14 {fill:#000000;font-family:Segoe UI;font-size:0.666664em}
		.st15 {stroke:#00b0f0;stroke-dasharray:4.5,9;stroke-linecap:round;stroke-linejoin:round;stroke-width:4.5}
		.st16 {stroke:#0070c0;stroke-dasharray:3,6;stroke-linecap:round;stroke-linejoin:round;stroke-width:3}
		.st17 {fill:#ffffff;stroke:#0070c0;stroke-dasharray:5.25,3.75;stroke-linecap:round;stroke-linejoin:round;stroke-width:0.75}
		.st18 {fill:#ffffff;stroke:#00b050;stroke-dasharray:5.25,3.75;stroke-linecap:round;stroke-linejoin:round;stroke-width:0.75}
		.st19 {fill:#000000;font-family:Calibri;font-size:0.833336em}
		.st20 {fill:none;stroke:none;stroke-linecap:round;stroke-linejoin:round;stroke-width:0.75}
		.st21 {stroke:#a5a5a5;stroke-linecap:round;stroke-linejoin:round;stroke-width:4.5}
		.st22 {stroke:#a5a5a5;stroke-dasharray:3,6;stroke-linecap:round;stroke-linejoin:round;stroke-width:3}
		.st23 {stroke:#0070c0;stroke-linecap:round;stroke-linejoin:round;stroke-width:4.5}
		.st24 {fill:#ffffff;stroke:#000000;stroke-dasharray:5.25,3.75;stroke-linecap:round;stroke-linejoin:round;stroke-width:0.75}
		.st25 {marker-end:url(#mrkr13-247);stroke:#00b050;stroke-dasharray:3,6;stroke-linecap:round;stroke-linejoin:round;stroke-width:3}
		.st26 {fill:#00b050;fill-opacity:1;stroke:#00b050;stroke-opacity:1;stroke-width:0.54347826086957}
		.st27 {fill:#ffffff;stroke:#7f7f7f;stroke-dasharray:5.25,3.75;stroke-linecap:round;stroke-linejoin:round;stroke-width:0.75}
		.st28 {fill:#000000;font-family:Calibri;font-size:1.00001em}
		.st29 {fill:none;fill-rule:evenodd;font-size:12px;overflow:visible;stroke-linecap:square;stroke-miterlimit:3}
	]]>
	</style>

	<defs id="Markers">
		<g id="lend13">
			<path d="M 3 1 L 0 0 L 3 -1 L 3 1 " style="stroke:none"/>
		</g>
		<marker id="mrkr13-247" class="st26" v:arrowType="13" v:arrowSize="2" v:setback="5.52" refX="-5.52" orient="auto"
				markerUnits="strokeWidth" overflow="visible">
			<use xlink:href="#lend13" transform="scale(-1.84,-1.84) "/>
		</marker>
	</defs>
	<g v:mID="0" v:index="1" v:groupContext="foregroundPage">
		<v:custProps>
			<v:cp v:nameU="MetroThickness" v:lbl="Metro Width" v:type="2" v:langID="1033" v:val="VT0(0.059055118110236):24"/>
		</v:custProps>
		<title>Page-1</title>
		<v:pageProperties v:drawingScale="0.0393701" v:pageScale="0.0393701" v:drawingUnits="24" v:shadowOffsetX="8.50394"
				v:shadowOffsetY="-8.50394"/>
		<v:layer v:name="Metro" v:index="0"/>
		<v:layer v:name="Connector" v:index="1"/>
		<g id="shape493-1" v:mID="493" v:groupContext="shape" v:layerMember="0" transform="translate(524.784,-308.784)">
			<title>Metro curve 1.493</title>
			<v:custProps>
				<v:cp v:nameU="MetroThickness" v:lbl="Metro Width" v:type="2" v:langID="1033" v:val="VT0(0.059055118110236):24"/>
			</v:custProps>
			<v:userDefs>
				<v:ud v:nameU="Thickness" v:val="VT0(1):26"/>
				<v:ud v:nameU="ScaleFactor" v:val="VT0(1):26"/>
				<v:ud v:nameU="visVersion" v:val="VT0(15):26"/>
				<v:ud v:nameU="Thickness" v:prompt="" v:val="VT0(0):26"/>
			</v:userDefs>
			<path d="M2.13 569.02 L-2.13 569.02 L-2.13 694.53 A8.5038 8.5038 -180 0 0 6.38 703.03 L56.69 703.03 L56.69 698.78 L6.38
						 698.78 A4.2519 4.2519 0 0 1 2.13 694.53 L2.13 569.02 Z" class="st1"/>
		</g>
		<g id="shape495-3" v:mID="495" v:groupContext="shape" v:layerMember="1" transform="translate(435.938,-432.172)">
			<title>Dynamic connector.495</title>
			<path d="M0 693.82 L74.74 693.82" class="st2"/>
		</g>
		<g id="shape496-6" v:mID="496" v:groupContext="shape" v:layerMember="1" transform="translate(106.318,-498.348)">
			<title>Dynamic connector.496</title>
			<path d="M0 700.91 L329.62 700.91 L329.62 760" class="st2"/>
		</g>
		<g id="shape497-9" v:mID="497" v:groupContext="shape" v:layerMember="1" transform="translate(155.291,-433.799)">
			<title>Dynamic connector.497</title>
			<path d="M0 693.82 L266.57 693.82" class="st2"/>
		</g>
		<g id="shape498-12" v:mID="498" v:groupContext="shape" v:layerMember="1" transform="translate(203.472,-351.373)">
			<title>Dynamic connector.498</title>
			<path d="M0 700.91 L0 696.16 L232.47 696.16 L232.47 613.02" class="st2"/>
		</g>
		<g id="shape499-15" v:mID="499" v:groupContext="shape" v:layerMember="1" transform="translate(46.3158,-448.111)">
			<title>Dynamic connector.499</title>
			<path d="M0 707.86 L108.97 708.13" class="st2"/>
		</g>
		<g id="shape500-18" v:mID="500" v:groupContext="shape" v:layerMember="1" transform="translate(234.227,-604.155)">
			<title>Dynamic connector.500</title>
			<path d="M0 693.82 L201.44 693.82" class="st3"/>
		</g>
		<g id="shape502-21" v:mID="502" v:groupContext="shape" transform="translate(0.375,-214.391)">
			<title>Sheet.502</title>
			<desc>Sign-in user</desc>
			<v:textBlock v:margins="rect(4,4,4,4)" v:tabSpace="42.5197" v:verticalAlign="0"/>
			<v:textRect cx="177.278" cy="457.837" width="354.56" height="486.142"/>
			<rect x="0" y="214.766" width="354.556" height="486.142" class="st4"/>
			<text x="4" y="229.57" class="st5" v:langID="1033"><v:paragraph/><v:tabList/>Sign-in user</text>		</g>
		<g id="shape503-24" v:mID="503" v:groupContext="shape" transform="translate(360.717,-214.391)">
			<title>Sheet.503</title>
			<desc>Call Web APIs</desc>
			<v:textBlock v:margins="rect(4,4,4,4)" v:tabSpace="42.5197" v:verticalAlign="0"/>
			<v:textRect cx="177.278" cy="457.837" width="354.56" height="486.142"/>
			<rect x="0" y="214.766" width="354.556" height="486.142" class="st4"/>
			<text x="4" y="229.57" class="st5" v:langID="1033"><v:paragraph/><v:tabList/>Call Web APIs</text>		</g>
		<g id="shape504-27" v:mID="504" v:groupContext="shape" transform="translate(728.01,-214.391)">
			<title>Sheet.504</title>
			<desc>Advanced aspects</desc>
			<v:textBlock v:margins="rect(4,4,4,4)" v:tabSpace="42.5197" v:verticalAlign="0"/>
			<v:textRect cx="118.802" cy="457.837" width="237.61" height="486.142"/>
			<rect x="0" y="214.766" width="237.605" height="486.142" class="st4"/>
			<text x="4" y="229.57" class="st5" v:langID="1033"><v:paragraph/><v:tabList/>Advanced aspects</text>		</g>
		<g id="shape505-30" v:mID="505" v:groupContext="shape" v:layerMember="0" transform="translate(747.223,203.052) rotate(90)">
			<title>Metro curve 1.505</title>
			<v:custProps>
				<v:cp v:nameU="MetroThickness" v:lbl="Metro Width" v:type="2" v:langID="1033" v:val="VT0(0.059055118110236):24"/>
			</v:custProps>
			<v:userDefs>
				<v:ud v:nameU="Thickness" v:val="VT0(1):26"/>
				<v:ud v:nameU="ScaleFactor" v:val="VT0(1):26"/>
				<v:ud v:nameU="visVersion" v:val="VT0(15):26"/>
				<v:ud v:nameU="Thickness" v:prompt="" v:val="VT0(0):26"/>
			</v:userDefs>
			<path d="M2.13 644.21 L-2.13 644.21 L-2.13 694.53 A8.5038 8.5038 -180 0 0 6.38 703.03 L56.69 703.03 L56.69 698.78 L6.38
						 698.78 A4.2519 4.2519 0 0 1 2.13 694.53 L2.13 644.21 Z" class="st1"/>
		</g>
		<g id="shape506-32" v:mID="506" v:groupContext="shape" v:layerMember="0" transform="translate(45.7293,-352.721)">
			<title>Metro curve 1.506</title>
			<v:custProps>
				<v:cp v:nameU="MetroThickness" v:lbl="Metro Width" v:type="2" v:langID="1033" v:val="VT0(0.059055118110236):24"/>
			</v:custProps>
			<v:userDefs>
				<v:ud v:nameU="Thickness" v:val="VT0(1):26"/>
				<v:ud v:nameU="ScaleFactor" v:val="VT0(1):26"/>
				<v:ud v:nameU="visVersion" v:val="VT0(15):26"/>
				<v:ud v:nameU="Thickness" v:prompt="" v:val="VT0(0):26"/>
			</v:userDefs>
			<path d="M2.13 613.41 L-2.13 613.41 L-2.13 694.53 A8.5038 8.5038 -180 0 0 6.38 703.03 L157.32 703.03 L157.32 698.78 L6.38
						 698.78 A4.2519 4.2519 0 0 1 2.13 694.53 L2.13 613.41 Z" class="st1"/>
		</g>
		<a
				xlink:href="https://github.com/Azure-Samples/active-directory-aspnetcore-webapp-openidconnect-v2/blob/master/1-WebApp-OIDC/1-2-AnyOrg/README-1-1-to-1-2.md"
				xlink:title="Changing sign in audience from MyOrg to AnyOrg">
			<g id="shape507-34" v:mID="507" v:groupContext="shape" v:layerMember="0"
					transform="translate(155.291,904.236) rotate(180)">
				<title>Metro curve 1.507</title>
				<v:custProps>
					<v:cp v:nameU="MetroThickness" v:lbl="Metro Width" v:type="2" v:langID="1033" v:val="VT0(0.059055118110236):24"/>
				</v:custProps>
				<v:userDefs>
					<v:ud v:nameU="Thickness" v:val="VT0(1):26"/>
					<v:ud v:nameU="ScaleFactor" v:val="VT0(1):26"/>
					<v:ud v:nameU="visVersion" v:val="VT0(15):26"/>
					<v:ud v:nameU="Thickness" v:prompt="" v:val="VT0(0):26"/>
				</v:userDefs>
				<path d="M2.13 644.21 L-2.13 644.21 L-2.13 694.53 A8.5038 8.5038 -180 0 0 6.38 703.03 L56.69 703.03 L56.69 698.78
							 L6.38 698.78 A4.2519 4.2519 0 0 1 2.13 694.53 L2.13 644.21 Z" class="st1"/>
			</g>
		</a>
		<a
				xlink:href="https://github.com/Azure-Samples/active-directory-aspnetcore-webapp-openidconnect-v2/blob/master/1-WebApp-OIDC/1-3-AnyOrgOrPersonal/README-1-1-to-1-3.md"
				xlink:title="Changing sign in audience from Any-Org to AnyOrg">
			<g id="shape508-36" v:mID="508" v:groupContext="shape" v:layerMember="0"
					transform="translate(197.346,967.47) rotate(180)">
				<title>Metro curve 1.508</title>
				<v:custProps>
					<v:cp v:nameU="MetroThickness" v:lbl="Metro Width" v:type="2" v:langID="1033" v:val="VT0(0.059055118110236):24"/>
				</v:custProps>
				<v:userDefs>
					<v:ud v:nameU="Thickness" v:val="VT0(1):26"/>
					<v:ud v:nameU="ScaleFactor" v:val="VT0(1):26"/>
					<v:ud v:nameU="visVersion" v:val="VT0(15):26"/>
					<v:ud v:nameU="Thickness" v:prompt="" v:val="VT0(0):26"/>
				</v:userDefs>
				<path d="M2.13 622.69 L-2.13 622.69 L-2.13 694.53 A8.5038 8.5038 -180 0 0 6.38 703.03 L40.09 703.03 L40.09 698.78
							 L6.38 698.78 A4.2519 4.2519 0 0 1 2.13 694.53 L2.13 622.69 Z" class="st1"/>
			</g>
		</a>
		<a
				xlink:href="https://github.com/Azure-Samples/active-directory-aspnetcore-webapp-openidconnect-v2/blob/master/1-WebApp-OIDC/1-3-AnyOrgOrPersonal/README-1-1-to-1-3.md"
				xlink:title="Changing sign in audience from MyOrg to AnyOrg+Personal accounts">
			<g id="shape509-38" v:mID="509" v:groupContext="shape" v:layerMember="0"
					transform="translate(207.304,903.246) rotate(180)">
				<title>Metro curve 1.509</title>
				<v:custProps>
					<v:cp v:nameU="MetroThickness" v:lbl="Metro Width" v:type="2" v:langID="1033" v:val="VT0(0.059055118110236):24"/>
				</v:custProps>
				<v:userDefs>
					<v:ud v:nameU="Thickness" v:val="VT0(1):26"/>
					<v:ud v:nameU="ScaleFactor" v:val="VT0(1):26"/>
					<v:ud v:nameU="visVersion" v:val="VT0(15):26"/>
					<v:ud v:nameU="Thickness" v:prompt="" v:val="VT0(0):26"/>
				</v:userDefs>
				<path d="M2.13 558.46 L-2.13 558.46 L-2.13 694.53 A8.5038 8.5038 -180 0 0 6.38 703.03 L99.78 703.03 L99.78 698.78
							 L6.38 698.78 A4.2519 4.2519 0 0 1 2.13 694.53 L2.13 558.46 Z" class="st1"/>
			</g>
		</a>
		<a
				xlink:href="https://github.com/Azure-Samples/active-directory-aspnetcore-webapp-openidconnect-v2/tree/master/1-WebApp-OIDC/1-3-AnyOrgOrPersonal"
				xlink:title="1-3-AnyOrgOrPersonal">
			<g id="group510-40" transform="translate(-292.144,-126.038) rotate(-45)" v:mID="510" v:groupContext="group"
					v:layerMember="0">
				<v:userDefs>
					<v:ud v:nameU="visVersion" v:val="VT0(15):26"/>
				</v:userDefs>
				<title>Station.510</title>
				<g id="shape511-41" v:mID="511" v:groupContext="shape" v:layerMember="0">
					<title>Sheet.511</title>
					<path d="M0 686.73 A14.1732 14.1732 0 0 1 28.35 686.73 A14.1732 14.1732 0 1 1 0 686.73 Z" class="st6"/>
				</g>
				<g id="shape512-43" v:mID="512" v:groupContext="shape" v:layerMember="0" transform="translate(4.25197,-4.25197)">
					<title>Sheet.512</title>
					<path d="M0 690.99 A9.92126 9.92126 0 0 1 19.84 690.99 A9.92126 9.92126 0 1 1 0 690.99 Z" class="st7"/>
				</g>
				<g id="shape513-45" v:mID="513" v:groupContext="shape" transform="translate(28.3465,0)">
					<title>Sheet.513</title>
					<desc>With orgs and personal accounts</desc>
					<v:textBlock v:margins="rect(0,0,0,0)" v:tabSpace="42.5197"/>
					<v:textRect cx="42.6549" cy="686.734" width="85.31" height="28.3465"/>
					<rect x="0" y="672.561" width="85.3099" height="28.3465" class="st8"/>
					<text x="11.46" y="683.73" class="st9" v:langID="1033"><v:paragraph v:horizAlign="1"/><v:tabList/>With orgs and <v:lf/><tspan
								x="2.79" dy="1.2em" class="st10">personal accounts</tspan></text>				</g>
			</g>
		</a>
		<g id="shape514-49" v:mID="514" v:groupContext="shape" v:layerMember="0"
				transform="translate(-466.958,195.985) rotate(-90)">
			<title>Metro curve 1.514</title>
			<v:custProps>
				<v:cp v:nameU="MetroThickness" v:lbl="Metro Width" v:type="2" v:langID="1033" v:val="VT0(0.059055118110236):24"/>
			</v:custProps>
			<v:userDefs>
				<v:ud v:nameU="Thickness" v:val="VT0(1):26"/>
				<v:ud v:nameU="ScaleFactor" v:val="VT0(1):26"/>
				<v:ud v:nameU="visVersion" v:val="VT0(15):26"/>
				<v:ud v:nameU="Thickness" v:prompt="" v:val="VT0(0):26"/>
			</v:userDefs>
			<path d="M2.13 574.48 L-2.13 574.48 L-2.13 694.53 A8.5038 8.5038 -180 0 0 6.38 703.03 L100.06 703.03 L100.06 698.78 L6.38
						 698.78 A4.2519 4.2519 0 0 1 2.13 694.53 L2.13 574.48 Z" class="st11"/>
		</g>
		<a
				xlink:href="https://github.com/Azure-Samples/active-directory-aspnetcore-webapp-openidconnect-v2/tree/master/1-WebApp-OIDC/1-1-MyOrg"
				xlink:title="1-1-MyOrg">
			<g id="group515-51" transform="translate(-389.299,-273.013) rotate(-45)" v:mID="515" v:groupContext="group"
					v:layerMember="0">
				<v:userDefs>
					<v:ud v:nameU="visVersion" v:val="VT0(15):26"/>
				</v:userDefs>
				<title>Station.515</title>
				<g id="shape516-52" v:mID="516" v:groupContext="shape" v:layerMember="0">
					<title>Sheet.516</title>
					<path d="M0 686.73 A14.1732 14.1732 0 0 1 28.35 686.73 A14.1732 14.1732 0 1 1 0 686.73 Z" class="st6"/>
				</g>
				<g id="shape517-54" v:mID="517" v:groupContext="shape" v:layerMember="0" transform="translate(4.25197,-4.25197)">
					<title>Sheet.517</title>
					<path d="M0 690.99 A9.92126 9.92126 0 0 1 19.84 690.99 A9.92126 9.92126 0 1 1 0 690.99 Z" class="st7"/>
				</g>
				<g id="shape518-56" v:mID="518" v:groupContext="shape" transform="translate(28.3465,0)">
					<title>Sheet.518</title>
					<desc>In My Org</desc>
					<v:textBlock v:margins="rect(0,0,0,0)" v:tabSpace="42.5197"/>
					<v:textRect cx="26.4191" cy="686.734" width="52.84" height="28.3465"/>
					<rect x="0" y="672.561" width="52.8381" height="28.3465" class="st8"/>
					<text x="2.79" y="689.73" class="st9" v:langID="1033"><v:paragraph v:horizAlign="1"/><v:tabList/>In  My Org</text>				</g>
			</g>
		</a>
		<g id="shape519-59" v:mID="519" v:groupContext="shape" v:layerMember="0"
				transform="translate(-466.958,254.076) rotate(-90)">
			<title>Metro curve 1.519</title>
			<v:custProps>
				<v:cp v:nameU="MetroThickness" v:lbl="Metro Width" v:type="2" v:langID="1033" v:val="VT0(0.059055118110236):24"/>
			</v:custProps>
			<v:userDefs>
				<v:ud v:nameU="Thickness" v:val="VT0(1):26"/>
				<v:ud v:nameU="ScaleFactor" v:val="VT0(1):26"/>
				<v:ud v:nameU="visVersion" v:val="VT0(15):26"/>
				<v:ud v:nameU="Thickness" v:prompt="" v:val="VT0(0):26"/>
			</v:userDefs>
			<path d="M2.13 632.27 L-2.13 632.27 L-2.13 694.53 A8.5038 8.5038 -180 0 0 6.38 703.03 L156.47 703.03 L156.47 698.78 L6.38
						 698.78 A4.2519 4.2519 0 0 1 2.13 694.53 L2.13 632.27 Z" class="st11"/>
		</g>
		<a
				xlink:href="https://github.com/Azure-Samples/active-directory-aspnetcore-webapp-openidconnect-v2/tree/master/1-WebApp-OIDC/1-2-AnyOrg"
				xlink:title="1-2-AnyOrg">
			<g id="group520-61" transform="translate(-340.326,-215.551) rotate(-45)" v:mID="520" v:groupContext="group"
					v:layerMember="0">
				<v:userDefs>
					<v:ud v:nameU="visVersion" v:val="VT0(15):26"/>
				</v:userDefs>
				<title>Station.520</title>
				<g id="shape521-62" v:mID="521" v:groupContext="shape" v:layerMember="0">
					<title>Sheet.521</title>
					<path d="M0 686.73 A14.1732 14.1732 0 0 1 28.35 686.73 A14.1732 14.1732 0 1 1 0 686.73 Z" class="st12"/>
				</g>
				<g id="shape522-64" v:mID="522" v:groupContext="shape" v:layerMember="0" transform="translate(4.25197,-4.25197)">
					<title>Sheet.522</title>
					<path d="M0 690.99 A9.92126 9.92126 0 0 1 19.84 690.99 A9.92126 9.92126 0 1 1 0 690.99 Z" class="st7"/>
				</g>
				<g id="shape523-66" v:mID="523" v:groupContext="shape" transform="translate(28.3465,0)">
					<title>Sheet.523</title>
					<desc>In Any Org</desc>
					<v:textBlock v:margins="rect(4,4,4,4)" v:tabSpace="42.5197"/>
					<v:textRect cx="25.5752" cy="686.734" width="51.16" height="28.3465"/>
					<rect x="0" y="672.561" width="51.1504" height="28.3465" class="st13"/>
					<text x="6.51" y="689.13" class="st14" v:langID="1033"><v:paragraph v:horizAlign="1"/><v:tabList/>In Any Org</text>				</g>
			</g>
		</a>
		<a
				xlink:href="https://github.com/Azure-Samples/active-directory-aspnetcore-webapp-openidconnect-v2/tree/master/1-WebApp-OIDC/1-4-Sovereign">
			<g id="group524-69" transform="translate(-261.389,-385.906) rotate(-45)" v:mID="524" v:groupContext="group"
					v:layerMember="0">
				<v:userDefs>
					<v:ud v:nameU="visVersion" v:val="VT0(15):26"/>
				</v:userDefs>
				<title>Station.524</title>
				<g id="shape525-70" v:mID="525" v:groupContext="shape" v:layerMember="0">
					<title>Sheet.525</title>
					<path d="M0 686.73 A14.1732 14.1732 0 0 1 28.35 686.73 A14.1732 14.1732 0 1 1 0 686.73 Z" class="st6"/>
				</g>
				<g id="shape526-72" v:mID="526" v:groupContext="shape" v:layerMember="0" transform="translate(4.25197,-4.25197)">
					<title>Sheet.526</title>
					<path d="M0 690.78 A9.92126 10.1295 0 0 1 19.84 690.78 A9.92126 10.1295 0 1 1 0 690.78 Z" class="st7"/>
				</g>
				<g id="shape527-74" v:mID="527" v:groupContext="shape" transform="translate(28.3465,0)">
					<title>Sheet.527</title>
					<desc>In Sovereign clouds</desc>
					<v:textBlock v:margins="rect(0,0,0,0)" v:tabSpace="42.5197"/>
					<v:textRect cx="45.9676" cy="686.734" width="91.94" height="28.3465"/>
					<rect x="0" y="672.561" width="91.9352" height="28.3465" class="st8"/>
					<text x="2.79" y="689.73" class="st9" v:langID="1033"><v:paragraph v:horizAlign="1"/><v:tabList/>In Sovereign clouds</text>				</g>
			</g>
		</a>
		<a
				xlink:href="https://github.com/Azure-Samples/active-directory-aspnetcore-webapp-openidconnect-v2/tree/master/2-WebApp-graph-user/2-1-Call-MSGraph">
			<g id="group528-77" transform="translate(-59.6786,-213.924) rotate(-45)" v:mID="528" v:groupContext="group"
					v:layerMember="0">
				<v:userDefs>
					<v:ud v:nameU="visVersion" v:val="VT0(15):26"/>
				</v:userDefs>
				<title>Station.528</title>
				<g id="shape529-78" v:mID="529" v:groupContext="shape" v:layerMember="0">
					<title>Sheet.529</title>
					<path d="M0 686.73 A14.1732 14.1732 0 0 1 28.35 686.73 A14.1732 14.1732 0 1 1 0 686.73 Z" class="st6"/>
				</g>
				<g id="shape530-80" v:mID="530" v:groupContext="shape" v:layerMember="0" transform="translate(4.25197,-4.25197)">
					<title>Sheet.530</title>
					<path d="M0 690.99 A9.92126 9.92126 0 0 1 19.84 690.99 A9.92126 9.92126 0 1 1 0 690.99 Z" class="st7"/>
				</g>
				<g id="shape531-82" v:mID="531" v:groupContext="shape" transform="translate(28.3465,0)">
					<title>Sheet.531</title>
					<desc>Call Microsoft Graph</desc>
					<v:textBlock v:margins="rect(0,0,0,0)" v:tabSpace="42.5197"/>
					<v:textRect cx="38.6289" cy="686.734" width="77.26" height="28.3465"/>
					<rect x="0" y="672.561" width="77.2577" height="28.3465" class="st8"/>
					<text x="30.57" y="683.73" class="st9" v:langID="1033"><v:paragraph v:horizAlign="1"/><v:tabList/>Call <v:lf/><tspan
								x="2.79" dy="1.2em" class="st10">Microsoft Graph</tspan></text>				</g>
			</g>
		</a>
		<g id="shape532-86" v:mID="532" v:groupContext="shape" v:layerMember="1" transform="translate(435.669,-611.241)">
			<title>Dynamic connector.532</title>
			<path d="M0 700.91 L89.12 700.91 L89.12 871.47" class="st15"/>
		</g>
		<g id="shape533-89" v:mID="533" v:groupContext="shape" v:layerMember="1" transform="translate(538.958,-433.587)">
			<title>Dynamic connector.533</title>
			<path d="M0 693.82 L130.38 693.82" class="st2"/>
		</g>
		<g id="shape534-92" v:mID="534" v:groupContext="shape" v:layerMember="1" transform="translate(683.512,-433.587)">
			<title>Dynamic connector.534</title>
			<path d="M0 693.82 L66.63 693.82" class="st2"/>
		</g>
		<g id="shape535-95" v:mID="535" v:groupContext="shape" v:layerMember="1" transform="translate(40.7226,-441.162)">
			<title>Dynamic connector.535</title>
			<path d="M0 700.91 L0 889.73 L215.56 889.73" class="st16"/>
		</g>
		<g id="shape536-98" v:mID="536" v:groupContext="shape" v:layerMember="1" transform="translate(256.283,-252.345)">
			<title>Dynamic connector.536</title>
			<path d="M0 700.91 L413.06 700.91 L413.06 526.75" class="st16"/>
		</g>
		<a
				xlink:href="https://github.com/Azure-Samples/active-directory-aspnetcore-webapp-openidconnect-v2/tree/master/1-WebApp-OIDC/1-5-B2C">
			<g id="group537-101" transform="translate(-239.334,-27.0097) rotate(-45)" v:mID="537" v:groupContext="group"
					v:layerMember="0">
				<v:userDefs>
					<v:ud v:nameU="visVersion" v:val="VT0(15):26"/>
				</v:userDefs>
				<title>Station.537</title>
				<g id="shape538-102" v:mID="538" v:groupContext="shape" v:layerMember="0">
					<title>Sheet.538</title>
					<path d="M0 686.73 A14.1732 14.1732 0 0 1 28.35 686.73 A14.1732 14.1732 0 1 1 0 686.73 Z" class="st17"/>
				</g>
				<g id="shape539-104" v:mID="539" v:groupContext="shape" v:layerMember="0" transform="translate(4.25197,-4.25197)">
					<title>Sheet.539</title>
					<path d="M0 690.99 A9.92126 9.92126 0 0 1 19.84 690.99 A9.92126 9.92126 0 1 1 0 690.99 Z" class="st17"/>
				</g>
				<g id="shape540-106" v:mID="540" v:groupContext="shape" transform="translate(28.3465,0)">
					<title>Sheet.540</title>
					<desc>With social identities</desc>
					<v:textBlock v:margins="rect(0,0,0,0)" v:tabSpace="42.5197"/>
					<v:textRect cx="48.4068" cy="686.734" width="96.82" height="28.3465"/>
					<text x="2.79" y="689.73" class="st9" v:langID="1033"><v:paragraph v:horizAlign="1"/><v:tabList/>With social identities</text>				</g>
			</g>
		</a>
		<a
				xlink:href="https://github.com/Azure-Samples/active-directory-aspnetcore-webapp-openidconnect-v2/tree/master/4-WebApp-your-API">
			<g id="group541-109" transform="translate(173.722,-215.339) rotate(-45)" v:mID="541" v:groupContext="group"
					v:layerMember="0">
				<v:userDefs>
					<v:ud v:nameU="visVersion" v:val="VT0(15):26"/>
				</v:userDefs>
				<title>Station.541</title>
				<g id="shape542-110" v:mID="542" v:groupContext="shape" v:layerMember="0">
					<title>Sheet.542</title>
					<path d="M0 686.73 A14.1732 14.1732 0 0 1 28.35 686.73 A14.1732 14.1732 0 1 1 0 686.73 Z" class="st18"/>
				</g>
				<g id="shape543-112" v:mID="543" v:groupContext="shape" v:layerMember="0" transform="translate(4.25197,-4.25197)">
					<title>Sheet.543</title>
					<path d="M0 690.99 A9.92126 9.92126 0 0 1 19.84 690.99 A9.92126 9.92126 0 1 1 0 690.99 Z" class="st18"/>
				</g>
				<g id="shape544-114" v:mID="544" v:groupContext="shape" transform="translate(28.3465,0)">
					<title>Sheet.544</title>
					<desc>Call your own API</desc>
					<v:textBlock v:margins="rect(0,0,0,0)" v:tabSpace="42.5197"/>
					<v:textRect cx="23.5066" cy="686.734" width="47.02" height="28.3465"/>
					<text x="4.16" y="683.73" class="st9" v:langID="1033"><v:paragraph v:horizAlign="1"/><v:tabList/>Call your <v:lf/><tspan
								x="5.41" dy="1.2em" class="st10">own API</tspan></text>				</g>
			</g>
		</a>
		<g id="shape545-118" v:mID="545" v:groupContext="shape" v:layerMember="1" transform="translate(40.7226,-441.162)">
			<title>Dynamic connector.545</title>
			<path d="M0 700.91 L0 530.83 L179.33 530.83" class="st3"/>
		</g>
		<a
				xlink:href="https://github.com/Azure-Samples/active-directory-aspnetcore-webapp-openidconnect-v2/tree/master/1-WebApp-OIDC"
				xlink:title="1-WebApp-OIDC">
			<g id="group546-121" transform="translate(-454.894,-215.827) rotate(-45)" v:mID="546" v:groupContext="group"
					v:layerMember="0">
				<v:userDefs>
					<v:ud v:nameU="visVersion" v:val="VT0(15):26"/>
				</v:userDefs>
				<title>Station.546</title>
				<g id="shape547-122" v:mID="547" v:groupContext="shape" v:layerMember="0">
					<title>Sheet.547</title>
					<path d="M0 686.73 A14.1732 14.1732 0 0 1 28.35 686.73 A14.1732 14.1732 0 1 1 0 686.73 Z" class="st6"/>
				</g>
				<g id="shape548-124" v:mID="548" v:groupContext="shape" v:layerMember="0" transform="translate(4.25197,-4.25197)">
					<title>Sheet.548</title>
					<path d="M0 690.99 A9.92126 9.92126 0 0 1 19.84 690.99 A9.92126 9.92126 0 1 1 0 690.99 Z" class="st7"/>
				</g>
				<g id="shape549-126" v:mID="549" v:groupContext="shape" transform="translate(28.3465,0)">
					<title>Sheet.549</title>
					<desc>Sign-in users</desc>
					<v:textBlock v:margins="rect(0,0,0,0)" v:tabSpace="42.5197"/>
					<v:textRect cx="28.1796" cy="686.734" width="56.36" height="28.3465"/>
					<rect x="0" y="672.561" width="56.3592" height="28.3465" class="st8"/>
					<text x="2.55" y="689.73" class="st19" v:langID="1033"><v:paragraph v:horizAlign="1"/><v:tabList/>Sign-in users</text>				</g>
			</g>
		</a>
		<a
				xlink:href="https://github.com/Azure-Samples/active-directory-aspnetcore-webapp-openidconnect-v2/tree/master/2-WebApp-graph-user/2-4-Sovereign-Call-MSGraph">
			<g id="group550-129" transform="translate(-59.9474,-385.906) rotate(-45)" v:mID="550" v:groupContext="group"
					v:layerMember="0">
				<v:userDefs>
					<v:ud v:nameU="visVersion" v:val="VT0(15):26"/>
				</v:userDefs>
				<title>Station.550</title>
				<g id="shape551-130" v:mID="551" v:groupContext="shape" v:layerMember="0">
					<title>Sheet.551</title>
					<path d="M0 686.73 A14.1732 14.1732 0 0 1 28.35 686.73 A14.1732 14.1732 0 1 1 0 686.73 Z" class="st6"/>
				</g>
				<g id="shape552-132" v:mID="552" v:groupContext="shape" v:layerMember="0" transform="translate(4.25197,-4.25197)">
					<title>Sheet.552</title>
					<path d="M0 690.99 A9.92126 9.92126 0 0 1 19.84 690.99 A9.92126 9.92126 0 1 1 0 690.99 Z" class="st7"/>
				</g>
				<g id="shape553-134" v:mID="553" v:groupContext="shape" transform="translate(28.3465,0)">
					<title>Sheet.553</title>
					<desc>Call Microsoft Graph (Sovereign)</desc>
					<v:textBlock v:margins="rect(0,0,0,0)" v:tabSpace="42.5197"/>
					<v:textRect cx="45.5526" cy="686.734" width="91.11" height="28.3465"/>
					<rect x="0" y="672.561" width="91.1052" height="28.3465" class="st8"/>
					<text x="3.68" y="683.73" class="st19" v:langID="1033"><v:paragraph v:horizAlign="1"/><v:tabList/>Call Microsoft Graph <v:lf/><tspan
								x="22.48" dy="1.2em" class="st10">(Sovereign)</tspan></text>				</g>
			</g>
		</a>
		<a
				xlink:href="https://github.com/Azure-Samples/active-directory-aspnetcore-webapp-openidconnect-v2/tree/master/3-WebApp-multi-APIs">
			<g id="group554-138" transform="translate(29.168,-215.339) rotate(-45)" v:mID="554" v:groupContext="group"
					v:layerMember="0">
				<v:userDefs>
					<v:ud v:nameU="visVersion" v:val="VT0(15):26"/>
				</v:userDefs>
				<title>Station.554</title>
				<g id="shape555-139" v:mID="555" v:groupContext="shape" v:layerMember="0">
					<title>Sheet.555</title>
					<path d="M0 686.73 A14.1732 14.1732 0 0 1 28.35 686.73 A14.1732 14.1732 0 1 1 0 686.73 Z" class="st6"/>
				</g>
				<g id="shape556-141" v:mID="556" v:groupContext="shape" v:layerMember="0" transform="translate(4.25197,-4.25197)">
					<title>Sheet.556</title>
					<path d="M0 690.99 A9.92126 9.92126 0 0 1 19.84 690.99 A9.92126 9.92126 0 1 1 0 690.99 Z" class="st7"/>
				</g>
				<g id="shape557-143" v:mID="557" v:groupContext="shape" transform="translate(28.3465,0)">
					<title>Sheet.557</title>
					<desc>Call several Microsoft APIs</desc>
					<v:textBlock v:margins="rect(0,0,0,0)" v:tabSpace="42.5197"/>
					<v:textRect cx="34.6248" cy="686.734" width="69.25" height="28.3465"/>
					<rect x="0" y="672.561" width="69.2495" height="28.3465" class="st8"/>
					<text x="9.95" y="683.73" class="st9" v:langID="1033"><v:paragraph v:horizAlign="1"/><v:tabList/>Call several<v:lf/><tspan
								x="2.79" dy="1.2em" class="st10">Microsoft APIs</tspan></text>				</g>
			</g>
		</a>
		<g id="shape558-147" v:mID="558" v:groupContext="shape" v:layerMember="1" transform="translate(750.143,-440.674)">
			<title>Dynamic connector.558</title>
			<path d="M0 700.91 L62.82 700.91 L62.82 640.62 L108.93 640.62" class="st2"/>
		</g>
		<g id="shape559-150" v:mID="559" v:groupContext="shape" v:layerMember="1" transform="translate(750.143,-440.674)">
			<title>Dynamic connector.559</title>
			<path d="M0 700.91 L63.31 700.91 L63.31 757.11 L108.93 757.11" class="st2"/>
		</g>
		<a
				xlink:href="https://github.com/Azure-Samples/active-directory-aspnetcore-webapp-openidconnect-v2/tree/master/5-WebApp-AuthZ">
			<g id="group560-153" transform="translate(254.527,-215.339) rotate(-45)" v:mID="560" v:groupContext="group"
					v:layerMember="0">
				<v:userDefs>
					<v:ud v:nameU="visVersion" v:val="VT0(15):26"/>
				</v:userDefs>
				<title>Station.560</title>
				<g id="shape561-154" v:mID="561" v:groupContext="shape" v:layerMember="0">
					<title>Sheet.561</title>
					<path d="M0 686.73 A14.1732 14.1732 0 0 1 28.35 686.73 A14.1732 14.1732 0 1 1 0 686.73 Z" class="st6"/>
				</g>
				<g id="shape562-156" v:mID="562" v:groupContext="shape" v:layerMember="0" transform="translate(4.25197,-4.25197)">
					<title>Sheet.562</title>
					<path d="M0 690.99 A9.92126 9.92126 0 0 1 19.84 690.99 A9.92126 9.92126 0 1 1 0 690.99 Z" class="st7"/>
				</g>
				<g id="shape563-158" v:mID="563" v:groupContext="shape" transform="translate(28.3465,0)">
					<title>Sheet.563</title>
					<desc>Authorization</desc>
					<v:textBlock v:margins="rect(0,0,0,0)" v:tabSpace="42.5197"/>
					<v:textRect cx="32.7159" cy="686.734" width="65.44" height="28.3465"/>
					<rect x="0" y="672.561" width="65.4318" height="28.3465" class="st8"/>
					<text x="2.79" y="689.73" class="st9" v:langID="1033"><v:paragraph v:horizAlign="1"/><v:tabList/>Authorization</text>				</g>
			</g>
		</a>
		<a
				xlink:href="https://github.com/Azure-Samples/active-directory-aspnetcore-webapp-openidconnect-v2/tree/master/5-WebApp-AuthZ/5-2-Groups">
			<g id="group564-161" transform="translate(363.454,-275.63) rotate(-45)" v:mID="564" v:groupContext="group"
					v:layerMember="0">
				<v:userDefs>
					<v:ud v:nameU="visVersion" v:val="VT0(15):26"/>
				</v:userDefs>
				<title>Station.564</title>
				<g id="shape565-162" v:mID="565" v:groupContext="shape" v:layerMember="0">
					<title>Sheet.565</title>
					<path d="M0 686.73 A14.1732 14.1732 0 0 1 28.35 686.73 A14.1732 14.1732 0 1 1 0 686.73 Z" class="st6"/>
				</g>
				<g id="shape566-164" v:mID="566" v:groupContext="shape" v:layerMember="0" transform="translate(4.25197,-4.25197)">
					<title>Sheet.566</title>
					<path d="M0 690.99 A9.92126 9.92126 0 0 1 19.84 690.99 A9.92126 9.92126 0 1 1 0 690.99 Z" class="st7"/>
				</g>
				<g id="shape567-166" v:mID="567" v:groupContext="shape" transform="translate(28.3465,0)">
					<title>Sheet.567</title>
					<desc>With groups</desc>
					<v:textBlock v:margins="rect(0,0,0,0)" v:tabSpace="42.5197"/>
					<v:textRect cx="30.0668" cy="686.734" width="60.14" height="28.3465"/>
					<rect x="0" y="672.561" width="60.1336" height="28.3465" class="st8"/>
					<text x="2.79" y="689.73" class="st9" v:langID="1033"><v:paragraph v:horizAlign="1"/><v:tabList/>With groups</text>				</g>
			</g>
		</a>
		<a
				xlink:href="https://github.com/Azure-Samples/active-directory-aspnetcore-webapp-openidconnect-v2/tree/master/5-WebApp-AuthZ/5-2-Groups">
			<g id="group568-169" transform="translate(363.454,-159.134) rotate(-45)" v:mID="568" v:groupContext="group"
					v:layerMember="0">
				<v:userDefs>
					<v:ud v:nameU="visVersion" v:val="VT0(15):26"/>
				</v:userDefs>
				<title>Station.568</title>
				<g id="shape569-170" v:mID="569" v:groupContext="shape" v:layerMember="0">
					<title>Sheet.569</title>
					<path d="M0 686.73 A14.1732 14.1732 0 0 1 28.35 686.73 A14.1732 14.1732 0 1 1 0 686.73 Z" class="st6"/>
				</g>
				<g id="shape570-172" v:mID="570" v:groupContext="shape" v:layerMember="0" transform="translate(4.25197,-4.25197)">
					<title>Sheet.570</title>
					<path d="M0 690.99 A9.92126 9.92126 0 0 1 19.84 690.99 A9.92126 9.92126 0 1 1 0 690.99 Z" class="st7"/>
				</g>
				<g id="shape571-174" v:mID="571" v:groupContext="shape" transform="translate(28.3465,0)">
					<title>Sheet.571</title>
					<desc>With roles</desc>
					<v:textBlock v:margins="rect(0,0,0,0)" v:tabSpace="42.5197"/>
					<v:textRect cx="25.179" cy="686.734" width="50.36" height="28.3465"/>
					<rect x="0" y="672.561" width="50.358" height="28.3465" class="st8"/>
					<text x="2.79" y="689.73" class="st9" v:langID="1033"><v:paragraph v:horizAlign="1"/><v:tabList/>With roles</text>				</g>
			</g>
		</a>
		<g id="shape572-177" v:mID="572" v:groupContext="shape" transform="translate(1.49394,-112.72)">
			<title>Sheet.572</title>
			<desc>Deployment to Azure</desc>
			<v:textBlock v:margins="rect(4,4,4,4)" v:tabSpace="42.5197" v:verticalAlign="0"/>
			<v:textRect cx="482.06" cy="657.158" width="964.13" height="87.498"/>
			<rect x="0" y="613.409" width="964.12" height="87.498" class="st4"/>
			<text x="4" y="628.21" class="st5" v:langID="1033"><v:paragraph/><v:tabList/>Deployment to Azure</text>		</g>
		<g id="group573-180" transform="translate(86.9799,-82.6617) rotate(-45)" v:mID="573" v:groupContext="group"
				v:layerMember="0">
			<v:userDefs>
				<v:ud v:nameU="visVersion" v:val="VT0(15):26"/>
			</v:userDefs>
			<title>Station.573</title>
			<g id="shape574-181" v:mID="574" v:groupContext="shape" v:layerMember="0">
				<title>Sheet.574</title>
				<path d="M0 686.73 A14.1732 14.1732 0 0 1 28.35 686.73 A14.1732 14.1732 0 1 1 0 686.73 Z" class="st6"/>
			</g>
			<g id="shape575-183" v:mID="575" v:groupContext="shape" v:layerMember="0" transform="translate(4.25197,-4.25197)">
				<title>Sheet.575</title>
				<path d="M0 690.99 A9.92126 9.92126 0 0 1 19.84 690.99 A9.92126 9.92126 0 1 1 0 690.99 Z" class="st7"/>
			</g>
			<g id="shape576-185" v:mID="576" v:groupContext="shape" transform="translate(28.3465,0)">
				<title>Sheet.576</title>
				<desc>Token caches</desc>
				<v:textBlock v:margins="rect(0,0,0,0)" v:tabSpace="42.5197"/>
				<v:textRect cx="29.8348" cy="686.734" width="59.67" height="28.3465"/>
				<rect x="0" y="672.561" width="59.6697" height="28.3465" class="st8"/>
				<text x="2.55" y="689.73" class="st19" v:langID="1033"><v:paragraph v:horizAlign="1"/><v:tabList/>Token caches</text>			</g>
		</g>
		<g id="shape577-188" v:mID="577" v:groupContext="shape" transform="translate(526.084,-317.855)">
			<title>Sheet.577</title>
			<desc>- in memory token cache - session token cache - SQL token cache</desc>
			<v:textBlock v:margins="rect(4,4,4,4)" v:tabSpace="42.5197" v:verticalAlign="0"/>
			<v:textRect cx="38.8858" cy="653.01" width="77.78" height="95.7952"/>
			<rect x="0" y="605.112" width="77.7717" height="95.7952" class="st20"/>
			<text x="4" y="618.11" class="st19" v:langID="1033"><v:paragraph/><v:tabList/>- in memory <v:lf/><tspan x="4"
						dy="1.2em" class="st10">   </tspan>token cache<v:newlineChar/><tspan x="4" dy="1.2em" class="st10">-</tspan> session <v:lf/><tspan
						x="4" dy="1.2em" class="st10">   </tspan>token cache<v:newlineChar/><tspan x="4" dy="1.2em" class="st10">-</tspan> SQL <v:lf/><tspan
						x="4" dy="1.2em" class="st10">  </tspan>token cache</text>		</g>
		<g id="shape578-196" v:mID="578" v:groupContext="shape" v:layerMember="1" transform="translate(8.58055,-53.7638)">
			<title>Dynamic connector.578</title>
			<path d="M0 693.82 L44.29 693.82" class="st21"/>
		</g>
		<g id="shape579-199" v:mID="579" v:groupContext="shape" transform="translate(65.2735,-49.056)">
			<title>Sheet.579</title>
			<desc>Existing journey</desc>
			<v:textBlock v:margins="rect(4,4,4,4)" v:tabSpace="42.5197"/>
			<v:textRect cx="46.3161" cy="690.907" width="92.64" height="20"/>
			<rect x="0" y="680.907" width="92.6322" height="20" class="st20"/>
			<text x="4" y="693.91" class="st9" v:langID="1033"><v:paragraph/><v:tabList/>Existing journey</text>		</g>
		<g id="shape580-202" v:mID="580" v:groupContext="shape" v:layerMember="1" transform="translate(8.58055,-30.9854)">
			<title>Dynamic connector.580</title>
			<path d="M0 693.82 L44.29 693.82" class="st22"/>
		</g>
		<g id="shape581-205" v:mID="581" v:groupContext="shape" transform="translate(65.2735,-28.072)">
			<title>Sheet.581</title>
			<desc>In construction</desc>
			<v:textBlock v:margins="rect(4,4,4,4)" v:tabSpace="42.5197"/>
			<v:textRect cx="42.5197" cy="690.907" width="85.04" height="20"/>
			<rect x="0" y="680.907" width="85.0394" height="20" class="st20"/>
			<text x="4" y="693.91" class="st9" v:langID="1033"><v:paragraph/><v:tabList/>In construction</text>		</g>
		<g id="shape582-208" v:mID="582" v:groupContext="shape" v:layerMember="1" transform="translate(422.966,-46.9824)">
			<title>Dynamic connector.582</title>
			<path d="M0 693.82 L-31.71 693.82" class="st3"/>
		</g>
		<g id="shape583-211" v:mID="583" v:groupContext="shape" v:layerMember="1" transform="translate(422.966,-24.4571)">
			<title>Dynamic connector.583</title>
			<path d="M0 693.82 L-31.71 693.82" class="st23"/>
		</g>
		<g id="shape584-214" v:mID="584" v:groupContext="shape" v:layerMember="1" transform="translate(422.966,-67.9891)">
			<title>Dynamic connector.584</title>
			<path d="M0 693.82 L-31.71 693.82" class="st2"/>
		</g>
		<g id="shape585-217" v:mID="585" v:groupContext="shape" transform="translate(437.068,-64.6933)">
			<title>Sheet.585</title>
			<desc>Azure AD</desc>
			<v:textBlock v:margins="rect(4,4,4,4)" v:tabSpace="42.5197"/>
			<v:textRect cx="46.3161" cy="690.907" width="92.64" height="20"/>
			<rect x="0" y="680.907" width="92.6322" height="20" class="st20"/>
			<text x="4" y="693.91" class="st9" v:langID="1033"><v:paragraph/><v:tabList/>Azure AD</text>		</g>
		<g id="shape586-220" v:mID="586" v:groupContext="shape" transform="translate(437.574,-45.4582)">
			<title>Sheet.586</title>
			<desc>National clouds</desc>
			<v:textBlock v:margins="rect(4,4,4,4)" v:tabSpace="42.5197"/>
			<v:textRect cx="46.3161" cy="690.907" width="92.64" height="20"/>
			<rect x="0" y="680.907" width="92.6322" height="20" class="st20"/>
			<text x="4" y="693.91" class="st9" v:langID="1033"><v:paragraph/><v:tabList/>National clouds</text>		</g>
		<g id="shape587-223" v:mID="587" v:groupContext="shape" transform="translate(437.068,-24.6933)">
			<title>Sheet.587</title>
			<desc>B2C</desc>
			<v:textBlock v:margins="rect(4,4,4,4)" v:tabSpace="42.5197"/>
			<v:textRect cx="46.3161" cy="690.907" width="92.64" height="20"/>
			<rect x="0" y="680.907" width="92.6322" height="20" class="st20"/>
			<text x="4" y="693.91" class="st9" v:langID="1033"><v:paragraph/><v:tabList/>B2C</text>		</g>
		<g id="group588-226" transform="translate(230.876,-56.7695)" v:mID="588" v:groupContext="group" v:layerMember="0">
			<v:userDefs>
				<v:ud v:nameU="visVersion" v:val="VT0(15):26"/>
			</v:userDefs>
			<title>Station.588</title>
			<g id="shape589-227" v:mID="589" v:groupContext="shape" v:layerMember="0">
				<title>Sheet.589</title>
				<path d="M0 686.73 A14.1732 14.1732 0 0 1 28.35 686.73 A14.1732 14.1732 0 1 1 0 686.73 Z" class="st6"/>
			</g>
			<g id="shape590-229" v:mID="590" v:groupContext="shape" v:layerMember="0" transform="translate(4.25197,-4.25197)">
				<title>Sheet.590</title>
				<path d="M0 690.99 A9.92126 9.92126 0 0 1 19.84 690.99 A9.92126 9.92126 0 1 1 0 690.99 Z" class="st7"/>
			</g>
			<g id="shape591-231" v:mID="591" v:groupContext="shape" transform="translate(28.3465,0)">
				<title>Sheet.591</title>
				<desc>Existing chapter</desc>
				<v:textBlock v:margins="rect(0,0,0,0)" v:tabSpace="42.5197"/>
				<v:textRect cx="37.6647" cy="686.734" width="75.33" height="28.3465"/>
				<rect x="0" y="672.561" width="75.3293" height="28.3465" class="st8"/>
				<text x="2.79" y="689.73" class="st9" v:langID="1033"><v:paragraph v:horizAlign="1"/><v:tabList/>Existing chapter</text>			</g>
		</g>
		<g id="group592-234" transform="translate(230.876,-20.2175)" v:mID="592" v:groupContext="group" v:layerMember="0">
			<v:userDefs>
				<v:ud v:nameU="visVersion" v:val="VT0(15):26"/>
			</v:userDefs>
			<title>Station.592</title>
			<g id="shape593-235" v:mID="593" v:groupContext="shape" v:layerMember="0">
				<title>Sheet.593</title>
				<path d="M0 686.73 A14.1732 14.1732 0 0 1 28.35 686.73 A14.1732 14.1732 0 1 1 0 686.73 Z" class="st24"/>
			</g>
			<g id="shape594-237" v:mID="594" v:groupContext="shape" v:layerMember="0" transform="translate(4.25197,-4.25197)">
				<title>Sheet.594</title>
				<path d="M0 690.99 A9.92126 9.92126 0 0 1 19.84 690.99 A9.92126 9.92126 0 1 1 0 690.99 Z" class="st24"/>
			</g>
			<g id="shape595-239" v:mID="595" v:groupContext="shape" transform="translate(28.3465,0)">
				<title>Sheet.595</title>
				<desc>In construction chapter</desc>
				<v:textBlock v:margins="rect(0,0,0,0)" v:tabSpace="42.5197"/>
				<v:textRect cx="53.7855" cy="686.734" width="107.58" height="28.3465"/>
				<text x="2.79" y="689.73" class="st9" v:langID="1033"><v:paragraph v:horizAlign="1"/><v:tabList/>In construction chapter</text>			</g>
		</g>
		<g id="shape596-242" v:mID="596" v:groupContext="shape" v:layerMember="1" transform="translate(177.653,-214.391)">
			<title>Dynamic connector.596</title>
			<path d="M0 700.91 L0 777.35 L628.55 777.35" class="st25"/>
		</g>
		<g id="shape597-248" v:mID="597" v:groupContext="shape" v:layerMember="1" transform="translate(537.995,-214.391)">
			<title>Dynamic connector.597</title>
			<path d="M0 700.91 L0 777.35 L268.21 777.35" class="st25"/>
		</g>
		<g id="shape598-253" v:mID="598" v:groupContext="shape" v:layerMember="1" transform="translate(815.68,-214.391)">
			<title>Dynamic connector.598</title>
			<path d="M7.09 700.91 L7.09 760.79" class="st25"/>
		</g>
		<g id="group599-258" transform="translate(327.15,87.3819) rotate(-45)" v:mID="599" v:groupContext="group" v:layerMember="0">
			<v:userDefs>
				<v:ud v:nameU="visVersion" v:val="VT0(15):26"/>
			</v:userDefs>
			<title>Station.599</title>
			<g id="shape600-259" v:mID="600" v:groupContext="shape" v:layerMember="0">
				<title>Sheet.600</title>
				<path d="M0 686.73 A14.1732 14.1732 0 0 1 28.35 686.73 A14.1732 14.1732 0 1 1 0 686.73 Z" class="st27"/>
			</g>
			<g id="shape601-261" v:mID="601" v:groupContext="shape" v:layerMember="0" transform="translate(4.25197,-4.25197)">
				<title>Sheet.601</title>
				<path d="M0 690.99 A9.92126 9.92126 0 0 1 19.84 690.99 A9.92126 9.92126 0 1 1 0 690.99 Z" class="st27"/>
			</g>
			<g id="shape602-263" v:mID="602" v:groupContext="shape" transform="translate(28.3465,0)">
				<title>Sheet.602</title>
				<desc>Deployment</desc>
				<v:textBlock v:margins="rect(0,0,0,0)" v:tabSpace="42.5197"/>
				<v:textRect cx="29.8543" cy="686.734" width="59.71" height="28.3465"/>
				<text x="2.79" y="689.73" class="st9" v:langID="1033"><v:paragraph v:horizAlign="1"/><v:tabList/>Deployment</text>			</g>
		</g>
		<g id="shape603-266" v:mID="603" v:groupContext="shape" transform="translate(2.91126,-0.375)">
			<title>Sheet.603</title>
			<desc>Legend</desc>
			<v:textBlock v:margins="rect(4,4,4,4)" v:tabSpace="42.5197" v:verticalAlign="0"/>
			<v:textRect cx="279.213" cy="652.718" width="558.43" height="96.378"/>
			<rect x="0" y="604.53" width="558.425" height="96.378" class="st4"/>
			<text x="4" y="619.33" class="st28" v:langID="1033"><v:paragraph/><v:tabList/>Legend</text>		</g>
	</g>
</svg>
