<?xml version="1.0" encoding="UTF-8" standalone="no"?>
<!DOCTYPE svg PUBLIC "-//W3C//DTD SVG 1.1//EN" "http://www.w3.org/Graphics/SVG/1.1/DTD/svg11.dtd">
<!-- Generated by Microsoft Visio, SVG Export Tutorial-overview.svg Page-1 -->
<svg xmlns="http://www.w3.org/2000/svg" xmlns:xlink="http://www.w3.org/1999/xlink" xmlns:ev="http://www.w3.org/2001/xml-events"
		xmlns:v="http://schemas.microsoft.com/visio/2003/SVGExtensions/" width="9.92339in" height="7.53732in"
		viewBox="0 0 714.484 542.687" xml:space="preserve" color-interpolation-filters="sRGB" class="st11">
	<v:documentProperties v:langID="1036" v:metric="true" v:viewMarkup="false"/>

	<style type="text/css">
	<![CDATA[
		.st1 {fill:none;stroke:#7f7f7f;stroke-linecap:round;stroke-linejoin:round;stroke-width:0.75}
		.st2 {fill:#000000;font-family:Segoe UI;font-size:1.00001em}
		.st3 {fill:#00b050;stroke:none;stroke-linecap:round;stroke-linejoin:round;stroke-width:0.75}
		.st4 {fill:#808080;stroke:none;stroke-linecap:round;stroke-linejoin:round;stroke-width:0.75}
		.st5 {fill:#ffffff;stroke:none;stroke-linecap:round;stroke-linejoin:round;stroke-width:0.75}
		.st6 {fill:#ffffff;stroke:none;stroke-linecap:round;stroke-linejoin:round;stroke-width:0.75;visibility:hidden}
		.st7 {fill:#000000;font-family:Segoe UI;font-size:0.833336em}
		.st8 {font-size:1em}
		.st9 {fill:#000000;stroke:none;stroke-linecap:round;stroke-linejoin:round;stroke-width:0.75}
		.st10 {fill:#000000;font-family:Calibri;font-size:0.833336em}
		.st11 {fill:none;fill-rule:evenodd;font-size:12px;overflow:visible;stroke-linecap:square;stroke-miterlimit:3}
	]]>
	</style>

	<g v:mID="0" v:index="1" v:groupContext="foregroundPage">
		<v:custProps>
			<v:cp v:nameU="MetroThickness" v:lbl="Metro Width" v:type="2" v:langID="1033" v:val="VT0(0.059055118110236):24"/>
		</v:custProps>
		<title>Page-1</title>
		<v:pageProperties v:drawingScale="0.0393701" v:pageScale="0.0393701" v:drawingUnits="24" v:shadowOffsetX="8.50394"
				v:shadowOffsetY="-8.50394"/>
		<v:layer v:name="Metro" v:index="0"/>
		<g id="shape159-1" v:mID="159" v:groupContext="shape" transform="translate(0.375,-126.434)">
			<title>Sheet.159</title>
			<desc>Sign-in user</desc>
			<v:textBlock v:margins="rect(4,4,4,4)" v:tabSpace="42.5197" v:verticalAlign="0"/>
			<v:textRect cx="113.244" cy="335.049" width="226.49" height="415.276"/>
			<rect x="0" y="127.411" width="226.488" height="415.276" class="st1"/>
			<text x="4" y="142.21" class="st2" v:langID="1033"><v:paragraph/><v:tabList/>Sign-in user</text>		</g>
		<g id="shape157-4" v:mID="157" v:groupContext="shape" v:layerMember="0" transform="translate(247.434,-320.023)">
			<title>Metro line.157</title>
			<v:custProps>
				<v:cp v:nameU="MetroThickness" v:lbl="Metro Width" v:type="2" v:langID="1033" v:val="VT0(0.059055118110236):24"/>
			</v:custProps>
			<v:userDefs>
				<v:ud v:nameU="Thickness" v:val="VT0(1):26"/>
				<v:ud v:nameU="ScaleFactor" v:val="VT0(1):26"/>
				<v:ud v:nameU="visVersion" v:val="VT0(15):26"/>
				<v:ud v:nameU="Thickness" v:prompt="" v:val="VT0(0):26"/>
			</v:userDefs>
			<rect x="0" y="538.435" width="42.841" height="4.25197" class="st3"/>
		</g>
		<g id="shape156-6" v:mID="156" v:groupContext="shape" v:layerMember="0"
				transform="translate(135.803,-440.358) rotate(0.0828934)">
			<title>Metro line.156</title>
			<v:custProps>
				<v:cp v:nameU="MetroThickness" v:lbl="Metro Width" v:type="2" v:langID="1033" v:val="VT0(0.059055118110236):24"/>
			</v:custProps>
			<v:userDefs>
				<v:ud v:nameU="Thickness" v:val="VT0(1):26"/>
				<v:ud v:nameU="ScaleFactor" v:val="VT0(1):26"/>
				<v:ud v:nameU="visVersion" v:val="VT0(15):26"/>
				<v:ud v:nameU="Thickness" v:prompt="" v:val="VT0(0):26"/>
			</v:userDefs>
			<rect x="0" y="538.435" width="121.89" height="4.25197" class="st3"/>
		</g>
		<g id="shape64-8" v:mID="64" v:groupContext="shape" v:layerMember="0" transform="translate(-453.588,213.251) rotate(-90)">
			<title>Metro curve 1.64</title>
			<v:custProps>
				<v:cp v:nameU="MetroThickness" v:lbl="Metro Width" v:type="2" v:langID="1033" v:val="VT0(0.059055118110236):24"/>
			</v:custProps>
			<v:userDefs>
				<v:ud v:nameU="Thickness" v:val="VT0(1):26"/>
				<v:ud v:nameU="ScaleFactor" v:val="VT0(1):26"/>
				<v:ud v:nameU="visVersion" v:val="VT0(15):26"/>
				<v:ud v:nameU="Thickness" v:prompt="" v:val="VT0(0):26"/>
			</v:userDefs>
			<path d="M2.13 483.5 L-2.13 483.5 L-2.13 536.31 A8.5038 8.5038 -180 0 0 6.38 544.81 L88.65 544.81 L88.65 540.56 L6.38
						 540.56 A4.2519 4.2519 0 0 1 2.13 536.31 L2.13 483.5 Z" class="st3"/>
		</g>
		<g id="shape76-10" v:mID="76" v:groupContext="shape" v:layerMember="0" transform="translate(104.415,706.632) rotate(180)">
			<title>Metro curve 1.76</title>
			<v:custProps>
				<v:cp v:nameU="MetroThickness" v:lbl="Metro Width" v:type="2" v:langID="1033" v:val="VT0(0.059055118110236):24"/>
			</v:custProps>
			<v:userDefs>
				<v:ud v:nameU="Thickness" v:val="VT0(1):26"/>
				<v:ud v:nameU="ScaleFactor" v:val="VT0(1):26"/>
				<v:ud v:nameU="visVersion" v:val="VT0(15):26"/>
				<v:ud v:nameU="Thickness" v:prompt="" v:val="VT0(0):26"/>
			</v:userDefs>
			<path d="M2.13 514.34 L-2.13 514.34 L-2.13 536.31 A8.5038 8.5038 -180 0 0 6.38 544.81 L74.65 544.81 L74.65 540.56 L6.38
						 540.56 A4.2519 4.2519 0 0 1 2.13 536.31 L2.13 514.34 Z" class="st3"/>
		</g>
		<g id="shape83-12" v:mID="83" v:groupContext="shape" v:layerMember="0" transform="translate(-438.272,296.141) rotate(-90)">
			<title>Metro curve 1.83</title>
			<v:custProps>
				<v:cp v:nameU="MetroThickness" v:lbl="Metro Width" v:type="2" v:langID="1033" v:val="VT0(0.059055118110236):24"/>
			</v:custProps>
			<v:userDefs>
				<v:ud v:nameU="Thickness" v:val="VT0(1):26"/>
				<v:ud v:nameU="ScaleFactor" v:val="VT0(1):26"/>
				<v:ud v:nameU="visVersion" v:val="VT0(15):26"/>
				<v:ud v:nameU="Thickness" v:prompt="" v:val="VT0(0):26"/>
			</v:userDefs>
			<path d="M2.13 468.04 L-2.13 468.04 L-2.13 536.31 A8.5038 8.5038 -180 0 0 6.38 544.81 L53.86 544.81 L53.86 540.56 L6.38
						 540.56 A4.2519 4.2519 0 0 1 2.13 536.31 L2.13 468.04 Z" class="st3"/>
		</g>
		<g id="shape84-14" v:mID="84" v:groupContext="shape" v:layerMember="0" transform="translate(247.434,-320.023)">
			<title>Metro line.84</title>
			<v:custProps>
				<v:cp v:nameU="MetroThickness" v:lbl="Metro Width" v:type="2" v:langID="1033" v:val="VT0(0.059055118110236):24"/>
			</v:custProps>
			<v:userDefs>
				<v:ud v:nameU="Thickness" v:val="VT0(1):26"/>
				<v:ud v:nameU="ScaleFactor" v:val="VT0(1):26"/>
				<v:ud v:nameU="visVersion" v:val="VT0(15):26"/>
				<v:ud v:nameU="Thickness" v:prompt="" v:val="VT0(0):26"/>
			</v:userDefs>
			<rect x="0" y="538.435" width="140.521" height="4.25197" class="st3"/>
		</g>
		<g id="shape75-16" v:mID="75" v:groupContext="shape" v:layerMember="0" transform="translate(-453.729,152.951) rotate(-90)">
			<title>Metro curve 1.75</title>
			<v:custProps>
				<v:cp v:nameU="MetroThickness" v:lbl="Metro Width" v:type="2" v:langID="1033" v:val="VT0(0.059055118110236):24"/>
			</v:custProps>
			<v:userDefs>
				<v:ud v:nameU="Thickness" v:val="VT0(1):26"/>
				<v:ud v:nameU="ScaleFactor" v:val="VT0(1):26"/>
				<v:ud v:nameU="visVersion" v:val="VT0(15):26"/>
				<v:ud v:nameU="Thickness" v:prompt="" v:val="VT0(0):26"/>
			</v:userDefs>
			<path d="M2.13 483.5 L-2.13 483.5 L-2.13 536.31 A8.5038 8.5038 -180 0 0 6.38 544.81 L28.35 544.81 L28.35 540.56 L6.38
						 540.56 A4.2519 4.2519 0 0 1 2.13 536.31 L2.13 483.5 Z" class="st3"/>
		</g>
		<g id="group13-18" transform="translate(-358.276,-70.0382) rotate(-45)" v:mID="13" v:groupContext="group" v:layerMember="0">
			<v:userDefs>
				<v:ud v:nameU="visVersion" v:val="VT0(15):26"/>
			</v:userDefs>
			<title>Station.13</title>
			<g id="shape14-19" v:mID="14" v:groupContext="shape" v:layerMember="0">
				<title>Sheet.14</title>
				<path d="M0 528.51 A14.1732 14.1732 0 0 1 28.35 528.51 A14.1732 14.1732 0 1 1 0 528.51 Z" class="st4"/>
			</g>
			<g id="shape15-21" v:mID="15" v:groupContext="shape" v:layerMember="0" transform="translate(4.25197,-4.25197)">
				<title>Sheet.15</title>
				<path d="M0 532.77 A9.92126 9.92126 0 0 1 19.84 532.77 A9.92126 9.92126 0 1 1 0 532.77 Z" class="st5"/>
			</g>
			<g id="shape16-23" v:mID="16" v:groupContext="shape" transform="translate(28.3465,0)">
				<title>Sheet.16</title>
				<desc>With orgs and personal accounts</desc>
				<v:textBlock v:margins="rect(0,0,0,0)" v:tabSpace="42.5197"/>
				<v:textRect cx="42.6549" cy="528.514" width="85.31" height="28.3465"/>
				<rect x="0" y="514.34" width="85.3099" height="28.3465" class="st6"/>
				<text x="11.46" y="525.51" class="st7" v:langID="1033"><v:paragraph v:horizAlign="1"/><v:tabList/>With orgs and <v:lf/><tspan
							x="2.79" dy="1.2em" class="st8">personal accounts</tspan></text>			</g>
		</g>
		<g id="group71-27" transform="translate(-354.111,-204.856) rotate(-45)" v:mID="71" v:groupContext="group" v:layerMember="0">
			<v:userDefs>
				<v:ud v:nameU="visVersion" v:val="VT0(15):26"/>
			</v:userDefs>
			<title>Station.71</title>
			<g id="shape72-28" v:mID="72" v:groupContext="shape" v:layerMember="0">
				<title>Sheet.72</title>
				<path d="M0 528.51 A14.1732 14.1732 0 0 1 28.35 528.51 A14.1732 14.1732 0 1 1 0 528.51 Z" class="st4"/>
			</g>
			<g id="shape73-30" v:mID="73" v:groupContext="shape" v:layerMember="0" transform="translate(4.25197,-4.25197)">
				<title>Sheet.73</title>
				<path d="M0 532.77 A9.92126 9.92126 0 0 1 19.84 532.77 A9.92126 9.92126 0 1 1 0 532.77 Z" class="st5"/>
			</g>
			<g id="shape74-32" v:mID="74" v:groupContext="shape" transform="translate(28.3465,0)">
				<title>Sheet.74</title>
				<desc>In My Org</desc>
				<v:textBlock v:margins="rect(0,0,0,0)" v:tabSpace="42.5197"/>
				<v:textRect cx="26.4191" cy="528.514" width="52.84" height="28.3465"/>
				<rect x="0" y="514.34" width="52.8381" height="28.3465" class="st6"/>
				<text x="2.79" y="531.51" class="st7" v:langID="1033"><v:paragraph v:horizAlign="1"/><v:tabList/>In  My Org</text>			</g>
		</g>
		<g id="shape85-35" v:mID="85" v:groupContext="shape" v:layerMember="0" transform="translate(358.958,643.065) rotate(180)">
			<title>Metro curve 1</title>
			<v:custProps>
				<v:cp v:nameU="MetroThickness" v:lbl="Metro Width" v:type="2" v:langID="1033" v:val="VT0(0.059055118110236):24"/>
			</v:custProps>
			<v:userDefs>
				<v:ud v:nameU="Thickness" v:val="VT0(1):26"/>
				<v:ud v:nameU="ScaleFactor" v:val="VT0(1):26"/>
				<v:ud v:nameU="visVersion" v:val="VT0(15):26"/>
				<v:ud v:nameU="Thickness" v:prompt="" v:val="VT0(0):26"/>
			</v:userDefs>
			<path d="M2.13 442.62 L-2.13 442.62 L-2.13 536.31 A8.5038 8.5038 -180 0 0 6.38 544.81 L102.05 544.81 L102.05 540.56 L6.38
						 540.56 A4.2519 4.2519 0 0 1 2.13 536.31 L2.13 442.62 Z" class="st3"/>
		</g>
		<g id="shape86-37" v:mID="86" v:groupContext="shape" v:layerMember="0"
				transform="translate(20.1199,-318.522) rotate(-0.379654)">
			<title>Metro line</title>
			<v:custProps>
				<v:cp v:nameU="MetroThickness" v:lbl="Metro Width" v:type="2" v:langID="1033" v:val="VT0(0.059055118110236):24"/>
			</v:custProps>
			<v:userDefs>
				<v:ud v:nameU="Thickness" v:val="VT0(1):26"/>
				<v:ud v:nameU="ScaleFactor" v:val="VT0(1):26"/>
				<v:ud v:nameU="visVersion" v:val="VT0(15):26"/>
				<v:ud v:nameU="Thickness" v:prompt="" v:val="VT0(0):26"/>
			</v:userDefs>
			<rect x="0" y="538.435" width="144.18" height="4.25197" class="st3"/>
		</g>
		<g id="group9-39" transform="translate(-353.829,-146.197) rotate(-45)" v:mID="9" v:groupContext="group" v:layerMember="0">
			<v:userDefs>
				<v:ud v:nameU="visVersion" v:val="VT0(15):26"/>
			</v:userDefs>
			<title>Station.9</title>
			<g id="shape10-40" v:mID="10" v:groupContext="shape" v:layerMember="0">
				<title>Sheet.10</title>
				<path d="M0 528.51 A14.1732 14.1732 0 0 1 28.35 528.51 A14.1732 14.1732 0 1 1 0 528.51 Z" class="st4"/>
			</g>
			<g id="shape11-42" v:mID="11" v:groupContext="shape" v:layerMember="0" transform="translate(4.25197,-4.25197)">
				<title>Sheet.11</title>
				<path d="M0 532.77 A9.92126 9.92126 0 0 1 19.84 532.77 A9.92126 9.92126 0 1 1 0 532.77 Z" class="st5"/>
			</g>
			<g id="shape12-44" v:mID="12" v:groupContext="shape" transform="translate(28.3465,0)">
				<title>Sheet.12</title>
				<desc>In Any Org</desc>
				<v:textBlock v:margins="rect(0,0,0,0)" v:tabSpace="42.5197"/>
				<v:textRect cx="26.6146" cy="528.514" width="53.23" height="28.3465"/>
				<rect x="0" y="514.34" width="53.2292" height="28.3465" class="st6"/>
				<text x="2.79" y="531.51" class="st7" v:langID="1033"><v:paragraph v:horizAlign="1"/><v:tabList/>In Any Org</text>			</g>
		</g>
		<g id="shape88-47" v:mID="88" v:groupContext="shape" v:layerMember="0" transform="translate(104.415,-321.615)">
			<title>Metro curve 1.88</title>
			<v:custProps>
				<v:cp v:nameU="MetroThickness" v:lbl="Metro Width" v:type="2" v:langID="1033" v:val="VT0(0.059055118110236):24"/>
			</v:custProps>
			<v:userDefs>
				<v:ud v:nameU="Thickness" v:val="VT0(1):26"/>
				<v:ud v:nameU="ScaleFactor" v:val="VT0(1):26"/>
				<v:ud v:nameU="visVersion" v:val="VT0(15):26"/>
				<v:ud v:nameU="Thickness" v:prompt="" v:val="VT0(0):26"/>
			</v:userDefs>
			<path d="M2.13 502.6 L-2.13 502.6 L-2.13 536.31 A8.5038 8.5038 -180 0 0 6.38 544.81 L63.46 544.81 L63.46 540.56 L6.38
						 540.56 A4.2519 4.2519 0 0 1 2.13 536.31 L2.13 502.6 Z" class="st3"/>
		</g>
		<g id="shape89-49" v:mID="89" v:groupContext="shape" v:layerMember="0" transform="translate(647.102,221.023) rotate(90)">
			<title>Metro curve 1.89</title>
			<v:custProps>
				<v:cp v:nameU="MetroThickness" v:lbl="Metro Width" v:type="2" v:langID="1033" v:val="VT0(0.059055118110236):24"/>
			</v:custProps>
			<v:userDefs>
				<v:ud v:nameU="Thickness" v:val="VT0(1):26"/>
				<v:ud v:nameU="ScaleFactor" v:val="VT0(1):26"/>
				<v:ud v:nameU="visVersion" v:val="VT0(15):26"/>
				<v:ud v:nameU="Thickness" v:prompt="" v:val="VT0(0):26"/>
			</v:userDefs>
			<path d="M2.13 390.19 L-2.13 390.19 L-2.13 536.31 A8.5038 8.5038 -180 0 0 6.38 544.81 L25.51 544.81 L25.51 540.56 L6.38
						 540.56 A4.2519 4.2519 0 0 1 2.13 536.31 L2.13 390.19 Z" class="st3"/>
		</g>
		<g id="shape90-51" v:mID="90" v:groupContext="shape" v:layerMember="0" transform="translate(631.786,100.202) rotate(90)">
			<title>Metro curve 1.90</title>
			<v:custProps>
				<v:cp v:nameU="MetroThickness" v:lbl="Metro Width" v:type="2" v:langID="1033" v:val="VT0(0.059055118110236):24"/>
			</v:custProps>
			<v:userDefs>
				<v:ud v:nameU="Thickness" v:val="VT0(1):26"/>
				<v:ud v:nameU="ScaleFactor" v:val="VT0(1):26"/>
				<v:ud v:nameU="visVersion" v:val="VT0(15):26"/>
				<v:ud v:nameU="Thickness" v:prompt="" v:val="VT0(0):26"/>
			</v:userDefs>
			<path d="M2.13 489.68 L-2.13 489.68 L-2.13 536.31 A8.5038 8.5038 -180 0 0 6.38 544.81 L25.51 544.81 L25.51 540.56 L6.38
						 540.56 A4.2519 4.2519 0 0 1 2.13 536.31 L2.13 489.68 Z" class="st3"/>
		</g>
		<g id="group17-53" transform="translate(-248.717,-263.492) rotate(-45)" v:mID="17" v:groupContext="group" v:layerMember="0">
			<v:userDefs>
				<v:ud v:nameU="visVersion" v:val="VT0(15):26"/>
			</v:userDefs>
			<title>Station.17</title>
			<g id="shape18-54" v:mID="18" v:groupContext="shape" v:layerMember="0">
				<title>Sheet.18</title>
				<path d="M0 528.51 A14.1732 14.1732 0 0 1 28.35 528.51 A14.1732 14.1732 0 1 1 0 528.51 Z" class="st4"/>
			</g>
			<g id="shape19-56" v:mID="19" v:groupContext="shape" v:layerMember="0" transform="translate(4.25197,-4.25197)">
				<title>Sheet.19</title>
				<path d="M0 532.56 A9.92126 10.1295 0 0 1 19.84 532.56 A9.92126 10.1295 0 1 1 0 532.56 Z" class="st5"/>
			</g>
			<g id="shape20-58" v:mID="20" v:groupContext="shape" transform="translate(28.3465,0)">
				<title>Sheet.20</title>
				<desc>In Sovereign clouds</desc>
				<v:textBlock v:margins="rect(0,0,0,0)" v:tabSpace="42.5197"/>
				<v:textRect cx="45.9676" cy="528.514" width="91.94" height="28.3465"/>
				<rect x="0" y="514.34" width="91.9352" height="28.3465" class="st6"/>
				<text x="2.79" y="531.51" class="st7" v:langID="1033"><v:paragraph v:horizAlign="1"/><v:tabList/>In Sovereign clouds</text>			</g>
		</g>
		<g id="shape91-61" v:mID="91" v:groupContext="shape" v:layerMember="0" transform="translate(359.005,-322.21)">
			<title>Metro curve 1.91</title>
			<v:custProps>
				<v:cp v:nameU="MetroThickness" v:lbl="Metro Width" v:type="2" v:langID="1033" v:val="VT0(0.059055118110236):24"/>
			</v:custProps>
			<v:userDefs>
				<v:ud v:nameU="Thickness" v:val="VT0(1):26"/>
				<v:ud v:nameU="ScaleFactor" v:val="VT0(1):26"/>
				<v:ud v:nameU="visVersion" v:val="VT0(15):26"/>
				<v:ud v:nameU="Thickness" v:prompt="" v:val="VT0(0):26"/>
			</v:userDefs>
			<path d="M2.13 517.18 L-2.13 517.18 L-2.13 536.31 A8.5038 8.5038 -180 0 0 6.38 544.81 L12.71 544.81 L12.71 540.56 L6.38
						 540.56 A4.2519 4.2519 0 0 1 2.13 536.31 L2.13 517.18 Z" class="st3"/>
		</g>
		<g id="shape93-63" v:mID="93" v:groupContext="shape" v:layerMember="0"
				transform="translate(525.196,-243.202) rotate(30.92)">
			<title>Metro line.93</title>
			<v:custProps>
				<v:cp v:nameU="MetroThickness" v:lbl="Metro Width" v:type="2" v:langID="1033" v:val="VT0(0.059055118110236):24"/>
			</v:custProps>
			<v:userDefs>
				<v:ud v:nameU="Thickness" v:val="VT0(1):26"/>
				<v:ud v:nameU="ScaleFactor" v:val="VT0(1):26"/>
				<v:ud v:nameU="visVersion" v:val="VT0(15):26"/>
				<v:ud v:nameU="Thickness" v:prompt="" v:val="VT0(0):26"/>
			</v:userDefs>
			<rect x="0" y="538.435" width="9.39429" height="4.25197" class="st3"/>
		</g>
		<g id="group94-65" transform="translate(-93.4628,-143.156) rotate(-45)" v:mID="94" v:groupContext="group" v:layerMember="0">
			<v:userDefs>
				<v:ud v:nameU="visVersion" v:val="VT0(15):26"/>
			</v:userDefs>
			<title>Station</title>
			<g id="shape95-66" v:mID="95" v:groupContext="shape" v:layerMember="0">
				<title>Sheet.95</title>
				<path d="M0 528.51 A14.1732 14.1732 0 0 1 28.35 528.51 A14.1732 14.1732 0 1 1 0 528.51 Z" class="st4"/>
			</g>
			<g id="shape96-68" v:mID="96" v:groupContext="shape" v:layerMember="0" transform="translate(4.25197,-4.25197)">
				<title>Sheet.96</title>
				<path d="M0 532.77 A9.92126 9.92126 0 0 1 19.84 532.77 A9.92126 9.92126 0 1 1 0 532.77 Z" class="st5"/>
			</g>
			<g id="shape97-70" v:mID="97" v:groupContext="shape" transform="translate(28.3465,0)">
				<title>Sheet.97</title>
				<desc>token cache serialization</desc>
				<v:textBlock v:margins="rect(0,0,0,0)" v:tabSpace="42.5197"/>
				<v:textRect cx="29.3197" cy="528.514" width="58.64" height="28.3465"/>
				<rect x="0" y="514.34" width="58.6395" height="28.3465" class="st6"/>
				<text x="2.79" y="525.51" class="st7" v:langID="1033"><v:paragraph v:horizAlign="1"/><v:tabList/>token cache<v:lf/><tspan
							x="3.2" dy="1.2em" class="st8">serialization</tspan></text>			</g>
		</g>
		<g id="shape98-74" v:mID="98" v:groupContext="shape" v:layerMember="0" transform="translate(414.624,763.254) rotate(180)">
			<title>Metro curve 1.98</title>
			<v:custProps>
				<v:cp v:nameU="MetroThickness" v:lbl="Metro Width" v:type="2" v:langID="1033" v:val="VT0(0.059055118110236):24"/>
			</v:custProps>
			<v:userDefs>
				<v:ud v:nameU="Thickness" v:val="VT0(1):26"/>
				<v:ud v:nameU="ScaleFactor" v:val="VT0(1):26"/>
				<v:ud v:nameU="visVersion" v:val="VT0(15):26"/>
				<v:ud v:nameU="Thickness" v:prompt="" v:val="VT0(0):26"/>
			</v:userDefs>
			<path d="M2.13 442.62 L-2.13 442.62 L-2.13 536.31 A8.5038 8.5038 -180 0 0 6.38 544.81 L79.44 544.81 L79.44 540.56 L6.38
						 540.56 A4.2519 4.2519 0 0 1 2.13 536.31 L2.13 442.62 Z" class="st3"/>
		</g>
		<g id="shape99-76" v:mID="99" v:groupContext="shape" v:layerMember="0" transform="translate(414.455,-279.505)">
			<title>Metro curve 1.99</title>
			<v:custProps>
				<v:cp v:nameU="MetroThickness" v:lbl="Metro Width" v:type="2" v:langID="1033" v:val="VT0(0.059055118110236):24"/>
			</v:custProps>
			<v:userDefs>
				<v:ud v:nameU="Thickness" v:val="VT0(1):26"/>
				<v:ud v:nameU="ScaleFactor" v:val="VT0(1):26"/>
				<v:ud v:nameU="visVersion" v:val="VT0(15):26"/>
				<v:ud v:nameU="Thickness" v:prompt="" v:val="VT0(0):26"/>
			</v:userDefs>
			<path d="M2.13 514.34 L-2.13 514.34 L-2.13 536.31 A8.5038 8.5038 -180 0 0 6.38 544.81 L39.64 544.81 L39.64 540.56 L6.38
						 540.56 A4.2519 4.2519 0 0 1 2.13 536.31 L2.13 514.34 Z" class="st3"/>
		</g>
		<g id="group51-78" transform="translate(4.21678,-143.156) rotate(-45)" v:mID="51" v:groupContext="group" v:layerMember="0">
			<v:userDefs>
				<v:ud v:nameU="visVersion" v:val="VT0(15):26"/>
			</v:userDefs>
			<title>Station.51</title>
			<g id="shape52-79" v:mID="52" v:groupContext="shape" v:layerMember="0">
				<title>Sheet.52</title>
				<path d="M0 528.51 A14.1732 14.1732 0 0 1 28.35 528.51 A14.1732 14.1732 0 1 1 0 528.51 Z" class="st4"/>
			</g>
			<g id="shape53-81" v:mID="53" v:groupContext="shape" v:layerMember="0" transform="translate(4.25197,-4.25197)">
				<title>Sheet.53</title>
				<path d="M0 532.77 A9.92126 9.92126 0 0 1 19.84 532.77 A9.92126 9.92126 0 1 1 0 532.77 Z" class="st5"/>
			</g>
			<g id="shape54-83" v:mID="54" v:groupContext="shape" transform="translate(28.3465,0)">
				<title>Sheet.54</title>
				<desc>Call several Microsoft APIs</desc>
				<v:textBlock v:margins="rect(0,0,0,0)" v:tabSpace="42.5197"/>
				<v:textRect cx="34.6248" cy="528.514" width="69.25" height="28.3465"/>
				<rect x="0" y="514.34" width="69.2495" height="28.3465" class="st6"/>
				<text x="9.95" y="525.51" class="st7" v:langID="1033"><v:paragraph v:horizAlign="1"/><v:tabList/>Call several<v:lf/><tspan
							x="2.79" dy="1.2em" class="st8">Microsoft APIs</tspan></text>			</g>
		</g>
		<g id="group43-87" transform="translate(-136.304,-143.156) rotate(-45)" v:mID="43" v:groupContext="group" v:layerMember="0">
			<v:userDefs>
				<v:ud v:nameU="visVersion" v:val="VT0(15):26"/>
			</v:userDefs>
			<title>Station.43</title>
			<g id="shape44-88" v:mID="44" v:groupContext="shape" v:layerMember="0">
				<title>Sheet.44</title>
				<path d="M0 528.51 A14.1732 14.1732 0 0 1 28.35 528.51 A14.1732 14.1732 0 1 1 0 528.51 Z" class="st4"/>
			</g>
			<g id="shape45-90" v:mID="45" v:groupContext="shape" v:layerMember="0" transform="translate(4.25197,-4.25197)">
				<title>Sheet.45</title>
				<path d="M0 532.77 A9.92126 9.92126 0 0 1 19.84 532.77 A9.92126 9.92126 0 1 1 0 532.77 Z" class="st5"/>
			</g>
			<g id="shape46-92" v:mID="46" v:groupContext="shape" transform="translate(28.3465,0)">
				<title>Sheet.46</title>
				<desc>Call Microsoft Graph</desc>
				<v:textBlock v:margins="rect(0,0,0,0)" v:tabSpace="42.5197"/>
				<v:textRect cx="38.6289" cy="528.514" width="77.26" height="28.3465"/>
				<rect x="0" y="514.34" width="77.2577" height="28.3465" class="st6"/>
				<text x="30.57" y="525.51" class="st7" v:langID="1033"><v:paragraph v:horizAlign="1"/><v:tabList/>Call <v:lf/><tspan
							x="2.79" dy="1.2em" class="st8">Microsoft Graph</tspan></text>			</g>
		</g>
		<g id="shape107-96" v:mID="107" v:groupContext="shape" v:layerMember="0"
				transform="translate(-128.204,382.237) rotate(-90)">
			<title>Metro curve 1.107</title>
			<v:custProps>
				<v:cp v:nameU="MetroThickness" v:lbl="Metro Width" v:type="2" v:langID="1033" v:val="VT0(0.059055118110236):24"/>
			</v:custProps>
			<v:userDefs>
				<v:ud v:nameU="Thickness" v:val="VT0(1):26"/>
				<v:ud v:nameU="ScaleFactor" v:val="VT0(1):26"/>
				<v:ud v:nameU="visVersion" v:val="VT0(15):26"/>
				<v:ud v:nameU="Thickness" v:prompt="" v:val="VT0(0):26"/>
			</v:userDefs>
			<path d="M2.13 152.34 L-2.13 152.34 L-2.13 536.31 A8.5038 8.5038 -180 0 0 6.38 544.81 L69.45 544.81 L69.45 540.56 L6.38
						 540.56 A4.2519 4.2519 0 0 1 2.13 536.31 L2.13 152.34 Z" class="st3"/>
		</g>
		<g id="group21-98" transform="translate(-358.276,17.4868) rotate(-45)" v:mID="21" v:groupContext="group" v:layerMember="0">
			<v:userDefs>
				<v:ud v:nameU="visVersion" v:val="VT0(15):26"/>
			</v:userDefs>
			<title>Station.21</title>
			<g id="shape22-99" v:mID="22" v:groupContext="shape" v:layerMember="0">
				<title>Sheet.22</title>
				<path d="M0 528.51 A14.1732 14.1732 0 0 1 28.35 528.51 A14.1732 14.1732 0 1 1 0 528.51 Z" class="st4"/>
			</g>
			<g id="shape23-101" v:mID="23" v:groupContext="shape" v:layerMember="0" transform="translate(4.25197,-4.25197)">
				<title>Sheet.23</title>
				<path d="M0 532.77 A9.92126 9.92126 0 0 1 19.84 532.77 A9.92126 9.92126 0 1 1 0 532.77 Z" class="st5"/>
			</g>
			<g id="shape24-103" v:mID="24" v:groupContext="shape" transform="translate(28.3465,0)">
				<title>Sheet.24</title>
				<desc>With social identities</desc>
				<v:textBlock v:margins="rect(0,0,0,0)" v:tabSpace="42.5197"/>
				<v:textRect cx="48.4068" cy="528.514" width="96.82" height="28.3465"/>
				<rect x="0" y="514.34" width="96.8136" height="28.3465" class="st6"/>
				<text x="2.79" y="531.51" class="st7" v:langID="1033"><v:paragraph v:horizAlign="1"/><v:tabList/>With social identities</text>			</g>
		</g>
		<g id="shape108-106" v:mID="108" v:groupContext="shape" v:layerMember="0" transform="translate(957.218,263.3) rotate(90)">
			<title>Metro curve 1.108</title>
			<v:custProps>
				<v:cp v:nameU="MetroThickness" v:lbl="Metro Width" v:type="2" v:langID="1033" v:val="VT0(0.059055118110236):24"/>
			</v:custProps>
			<v:userDefs>
				<v:ud v:nameU="Thickness" v:val="VT0(1):26"/>
				<v:ud v:nameU="ScaleFactor" v:val="VT0(1):26"/>
				<v:ud v:nameU="visVersion" v:val="VT0(15):26"/>
				<v:ud v:nameU="Thickness" v:prompt="" v:val="VT0(0):26"/>
			</v:userDefs>
			<path d="M2.13 298.91 L-2.13 298.91 L-2.13 536.31 A8.5038 8.5038 -180 0 0 6.38 544.81 L25.51 544.81 L25.51 540.56 L6.38
						 540.56 A4.2519 4.2519 0 0 1 2.13 536.31 L2.13 298.91 Z" class="st3"/>
		</g>
		<g id="group25-108" transform="translate(71.8305,-100.512) rotate(-45)" v:mID="25" v:groupContext="group" v:layerMember="0">
			<v:userDefs>
				<v:ud v:nameU="visVersion" v:val="VT0(15):26"/>
			</v:userDefs>
			<title>Station.25</title>
			<g id="shape26-109" v:mID="26" v:groupContext="shape" v:layerMember="0">
				<title>Sheet.26</title>
				<path d="M0 528.51 A14.1732 14.1732 0 0 1 28.35 528.51 A14.1732 14.1732 0 1 1 0 528.51 Z" class="st4"/>
			</g>
			<g id="shape27-111" v:mID="27" v:groupContext="shape" v:layerMember="0" transform="translate(4.25197,-4.25197)">
				<title>Sheet.27</title>
				<path d="M0 532.77 A9.92126 9.92126 0 0 1 19.84 532.77 A9.92126 9.92126 0 1 1 0 532.77 Z" class="st5"/>
			</g>
			<g id="shape28-113" v:mID="28" v:groupContext="shape" transform="translate(28.3465,0)">
				<title>Sheet.28</title>
				<desc>Call your own API</desc>
				<v:textBlock v:margins="rect(0,0,0,0)" v:tabSpace="42.5197"/>
				<v:textRect cx="23.5066" cy="528.514" width="47.02" height="28.3465"/>
				<rect x="0" y="514.34" width="47.0132" height="28.3465" class="st6"/>
				<text x="4.16" y="525.51" class="st7" v:langID="1033"><v:paragraph v:horizAlign="1"/><v:tabList/>Call your <v:lf/><tspan
							x="5.41" dy="1.2em" class="st8">own API</tspan></text>			</g>
		</g>
		<g id="group114-117" transform="translate(156.87,-100.512) rotate(-45)" v:mID="114" v:groupContext="group"
				v:layerMember="0">
			<v:userDefs>
				<v:ud v:nameU="visVersion" v:val="VT0(15):26"/>
			</v:userDefs>
			<title>Station.114</title>
			<g id="shape115-118" v:mID="115" v:groupContext="shape" v:layerMember="0">
				<title>Sheet.115</title>
				<path d="M0 528.51 A14.1732 14.1732 0 0 1 28.35 528.51 A14.1732 14.1732 0 1 1 0 528.51 Z" class="st4"/>
			</g>
			<g id="shape116-120" v:mID="116" v:groupContext="shape" v:layerMember="0" transform="translate(4.25197,-4.25197)">
				<title>Sheet.116</title>
				<path d="M0 532.77 A9.92126 9.92126 0 0 1 19.84 532.77 A9.92126 9.92126 0 1 1 0 532.77 Z" class="st5"/>
			</g>
			<g id="shape117-122" v:mID="117" v:groupContext="shape" transform="translate(28.3465,0)">
				<title>Sheet.117</title>
				<desc>Authorization</desc>
				<v:textBlock v:margins="rect(0,0,0,0)" v:tabSpace="42.5197"/>
				<v:textRect cx="32.7159" cy="528.514" width="65.44" height="28.3465"/>
				<rect x="0" y="514.34" width="65.4318" height="28.3465" class="st6"/>
				<text x="2.79" y="531.51" class="st7" v:langID="1033"><v:paragraph v:horizAlign="1"/><v:tabList/>Authorization</text>			</g>
		</g>
		<g id="group118-125" transform="translate(438.56,-295.096)" v:mID="118" v:groupContext="group">
			<v:custProps>
				<v:cp v:nameU="Text" v:lbl="Text" v:type="4" v:format="&#60;no master&#62;;" v:invis="false" v:langID="1033"
						v:val="VT4()"/>
				<v:cp v:nameU="ShapeClass" v:lbl="ShapeClass" v:type="0" v:invis="true" v:langID="1033" v:val="VT4(Annotation)"/>
				<v:cp v:nameU="ShapeType" v:lbl="ShapeType" v:type="0" v:invis="true" v:langID="1033"
						v:val="VT4(Points Of Interest)"/>
				<v:cp v:nameU="SubShapeType" v:lbl="SubShapeType" v:type="0" v:invis="true" v:langID="1033" v:val="VT4(Repairs)"/>
				<v:cp v:nameU="Text" v:lbl="" v:prompt="" v:type="0" v:format="Repairs;" v:sortKey="" v:invis="false" v:ask="false"
						v:langID="0" v:cal="0" v:val="VT0(0):26"/>
			</v:custProps>
			<v:userDefs>
				<v:ud v:nameU="Type" v:val="VT0(2):26"/>
				<v:ud v:nameU="AntiScale" v:val="VT0(1):26"/>
				<v:ud v:nameU="HasText" v:val="VT0(0):5"/>
				<v:ud v:nameU="ShowBorder" v:val="VT0(1):5"/>
				<v:ud v:nameU="visLegendSymbolID" v:val="VT15({05144766-0018-0000-8E40-00608CF305B2}):41"/>
				<v:ud v:nameU="ShapeClass" v:prompt="0" v:val="VT0(1):26"/>
				<v:ud v:nameU="ShapeType" v:prompt="0" v:val="VT0(53):26"/>
				<v:ud v:nameU="SubShapeType" v:prompt="0" v:val="VT0(201):26"/>
				<v:ud v:nameU="LastText" v:val="VT4()"/>
				<v:ud v:nameU="TextSync"/>
				<v:ud v:nameU="visVersion" v:val="VT0(16):26"/>
				<v:ud v:nameU="visLegendShape" v:prompt="" v:val="VT0(2):26"/>
			</v:userDefs>
			<title>Repairs</title>
			<g id="shape119-126" v:mID="119" v:groupContext="shape" transform="translate(0.0384632,0)">
				<title>Sheet.119</title>
				<path d="M33.94 485.99 L33.94 522.41 L8 522.41 L11.63 542.69 L0 522.41 L0 485.99 L33.94 485.99 Z" class="st9"/>
			</g>
			<g id="shape120-128" v:mID="120" v:groupContext="shape" transform="translate(5.03654,-26.5591)">
				<title>Sheet.120</title>
				<path d="M22.17 540.67 C22.84 540 22.87 538.88 22.23 538.17 C21.6 537.46 20.54 537.43 19.87 538.1 C19.2 538.78 19.18
							 539.9 19.81 540.61 C20.45 541.32 21.5 541.35 22.17 540.67 ZM23.14 537.25 C24.25 538.49 24.21 540.46
							 23.03 541.64 C21.87 542.82 20.02 542.77 18.9 541.52 C18.16 540.69 17.94 539.54 18.22 538.51 L12.21 531.79
							 L14.26 529.58 L20.34 536.37 C21.32 536.12 22.4 536.42 23.14 537.25 ZM8.29 528.63 L3.61 527.01 L2.68
							 522.33 L3.33 521.68 L5.74 524.37 L7.68 522.42 L5.27 519.72 L5.91 519.06 L10.26 520.29 L11.55 525.33
							 L10.98 525.91 L12.66 527.79 L10.55 529.94 L8.86 528.05 L8.29 528.63 ZM10.22 534.74 C10.48 534.46 10.49
							 534.01 10.23 533.73 C9.97 533.45 9.55 533.45 9.28 533.72 L3.49 539.73 C3.23 540 3.22 540.45 3.48 540.73
							 C3.74 541.01 4.16 541.02 4.42 540.74 L10.22 534.74 ZM2.73 538.9 L8.53 532.89 C8.79 532.62 8.79 532.17
							 8.54 531.89 C8.28 531.61 7.86 531.61 7.59 531.88 L1.8 537.88 C1.54 538.16 1.53 538.61 1.79 538.89 C2.05
							 539.17 2.47 539.17 2.73 538.9 ZM11.19 531.86 L11.6 532.31 C12.25 533.01 11.99 534.38 11.34 535.06 L4.47
							 542.18 C3.81 542.87 2.75 542.85 2.11 542.15 L0.48 540.38 C-0.17 539.67 -0.16 538.55 0.5 537.87 L7.37
							 530.75 C8.03 530.06 9.32 529.83 9.97 530.53 L10.38 530.98 L17.46 523.63 L18.2 521.38 L21.89 518.55 L23.17
							 519.94 L20.41 523.79 L18.28 524.52 L11.19 531.86 Z" class="st5"/>
			</g>
			<g id="shape121-130" v:mID="121" v:groupContext="shape" transform="translate(0,-20.5653)">
				<title>Sheet.121</title>
			</g>
			<g id="shape122-132" v:mID="122" v:groupContext="shape" transform="translate(5.03654,-26.5591)">
				<title>Sheet.122</title>
			</g>
			<g id="shape118-134" v:mID="118" v:groupContext="groupContent">
				<v:textBlock v:margins="rect(4,4,4,4)" v:tabSpace="34.0157"/>
				<v:textRect cx="17.0079" cy="553.889" width="11.3" height="22.4037"/>
			</g>
		</g>
		<g id="group123-135" transform="translate(526.434,-306.839)" v:mID="123" v:groupContext="group">
			<v:custProps>
				<v:cp v:nameU="Text" v:lbl="Text" v:type="4" v:format="&#60;no master&#62;;" v:invis="false" v:langID="1033"
						v:val="VT4()"/>
				<v:cp v:nameU="ShapeClass" v:lbl="ShapeClass" v:type="0" v:invis="true" v:langID="1033" v:val="VT4(Annotation)"/>
				<v:cp v:nameU="ShapeType" v:lbl="ShapeType" v:type="0" v:invis="true" v:langID="1033"
						v:val="VT4(Points Of Interest)"/>
				<v:cp v:nameU="SubShapeType" v:lbl="SubShapeType" v:type="0" v:invis="true" v:langID="1033" v:val="VT4(Repairs)"/>
				<v:cp v:nameU="Text" v:lbl="" v:prompt="" v:type="0" v:format="Repairs;" v:sortKey="" v:invis="false" v:ask="false"
						v:langID="0" v:cal="0" v:val="VT0(0):26"/>
			</v:custProps>
			<v:userDefs>
				<v:ud v:nameU="Type" v:val="VT0(2):26"/>
				<v:ud v:nameU="AntiScale" v:val="VT0(1):26"/>
				<v:ud v:nameU="HasText" v:val="VT0(0):5"/>
				<v:ud v:nameU="ShowBorder" v:val="VT0(1):5"/>
				<v:ud v:nameU="visLegendSymbolID" v:val="VT15({05144766-0018-0000-8E40-00608CF305B2}):41"/>
				<v:ud v:nameU="ShapeClass" v:prompt="0" v:val="VT0(1):26"/>
				<v:ud v:nameU="ShapeType" v:prompt="0" v:val="VT0(53):26"/>
				<v:ud v:nameU="SubShapeType" v:prompt="0" v:val="VT0(201):26"/>
				<v:ud v:nameU="LastText" v:val="VT4()"/>
				<v:ud v:nameU="TextSync"/>
				<v:ud v:nameU="visVersion" v:val="VT0(16):26"/>
				<v:ud v:nameU="visLegendShape" v:prompt="" v:val="VT0(2):26"/>
			</v:userDefs>
			<title>Repairs.123</title>
			<g id="shape124-136" v:mID="124" v:groupContext="shape" transform="translate(0.0384632,0)">
				<title>Sheet.124</title>
				<path d="M33.94 485.99 L33.94 522.41 L8 522.41 L11.63 542.69 L0 522.41 L0 485.99 L33.94 485.99 Z" class="st9"/>
			</g>
			<g id="shape125-138" v:mID="125" v:groupContext="shape" transform="translate(5.03654,-26.5591)">
				<title>Sheet.125</title>
				<path d="M22.17 540.67 C22.84 540 22.87 538.88 22.23 538.17 C21.6 537.46 20.54 537.43 19.87 538.1 C19.2 538.78 19.18
							 539.9 19.81 540.61 C20.45 541.32 21.5 541.35 22.17 540.67 ZM23.14 537.25 C24.25 538.49 24.21 540.46
							 23.03 541.64 C21.87 542.82 20.02 542.77 18.9 541.52 C18.16 540.69 17.94 539.54 18.22 538.51 L12.21 531.79
							 L14.26 529.58 L20.34 536.37 C21.32 536.12 22.4 536.42 23.14 537.25 ZM8.29 528.63 L3.61 527.01 L2.68
							 522.33 L3.33 521.68 L5.74 524.37 L7.68 522.42 L5.27 519.72 L5.91 519.06 L10.26 520.29 L11.55 525.33
							 L10.98 525.91 L12.66 527.79 L10.55 529.94 L8.86 528.05 L8.29 528.63 ZM10.22 534.74 C10.48 534.46 10.49
							 534.01 10.23 533.73 C9.97 533.45 9.55 533.45 9.28 533.72 L3.49 539.73 C3.23 540 3.22 540.45 3.48 540.73
							 C3.74 541.01 4.16 541.02 4.42 540.74 L10.22 534.74 ZM2.73 538.9 L8.53 532.89 C8.79 532.62 8.79 532.17
							 8.54 531.89 C8.28 531.61 7.86 531.61 7.59 531.88 L1.8 537.88 C1.54 538.16 1.53 538.61 1.79 538.89 C2.05
							 539.17 2.47 539.17 2.73 538.9 ZM11.19 531.86 L11.6 532.31 C12.25 533.01 11.99 534.38 11.34 535.06 L4.47
							 542.18 C3.81 542.87 2.75 542.85 2.11 542.15 L0.48 540.38 C-0.17 539.67 -0.16 538.55 0.5 537.87 L7.37
							 530.75 C8.03 530.06 9.32 529.83 9.97 530.53 L10.38 530.98 L17.46 523.63 L18.2 521.38 L21.89 518.55 L23.17
							 519.94 L20.41 523.79 L18.28 524.52 L11.19 531.86 Z" class="st5"/>
			</g>
			<g id="shape126-140" v:mID="126" v:groupContext="shape" transform="translate(0,-20.5653)">
				<title>Sheet.126</title>
			</g>
			<g id="shape127-142" v:mID="127" v:groupContext="shape" transform="translate(5.03654,-26.5591)">
				<title>Sheet.127</title>
			</g>
			<g id="shape123-144" v:mID="123" v:groupContext="groupContent">
				<v:textBlock v:margins="rect(4,4,4,4)" v:tabSpace="34.0157"/>
				<v:textRect cx="17.0079" cy="553.889" width="11.3" height="22.4037"/>
			</g>
		</g>
		<g id="group128-145" transform="translate(11.2884,-170.324)" v:mID="128" v:groupContext="group">
			<v:custProps>
				<v:cp v:nameU="Text" v:lbl="Text" v:type="4" v:format="&#60;no master&#62;;" v:invis="false" v:langID="1033"
						v:val="VT4()"/>
				<v:cp v:nameU="ShapeClass" v:lbl="ShapeClass" v:type="0" v:invis="true" v:langID="1033" v:val="VT4(Annotation)"/>
				<v:cp v:nameU="ShapeType" v:lbl="ShapeType" v:type="0" v:invis="true" v:langID="1033"
						v:val="VT4(Points Of Interest)"/>
				<v:cp v:nameU="SubShapeType" v:lbl="SubShapeType" v:type="0" v:invis="true" v:langID="1033" v:val="VT4(Repairs)"/>
				<v:cp v:nameU="Text" v:lbl="" v:prompt="" v:type="0" v:format="Repairs;" v:sortKey="" v:invis="false" v:ask="false"
						v:langID="0" v:cal="0" v:val="VT0(0):26"/>
			</v:custProps>
			<v:userDefs>
				<v:ud v:nameU="Type" v:val="VT0(2):26"/>
				<v:ud v:nameU="AntiScale" v:val="VT0(1):26"/>
				<v:ud v:nameU="HasText" v:val="VT0(0):5"/>
				<v:ud v:nameU="ShowBorder" v:val="VT0(1):5"/>
				<v:ud v:nameU="visLegendSymbolID" v:val="VT15({05144766-0018-0000-8E40-00608CF305B2}):41"/>
				<v:ud v:nameU="ShapeClass" v:prompt="0" v:val="VT0(1):26"/>
				<v:ud v:nameU="ShapeType" v:prompt="0" v:val="VT0(53):26"/>
				<v:ud v:nameU="SubShapeType" v:prompt="0" v:val="VT0(201):26"/>
				<v:ud v:nameU="LastText" v:val="VT4()"/>
				<v:ud v:nameU="TextSync"/>
				<v:ud v:nameU="visVersion" v:val="VT0(16):26"/>
				<v:ud v:nameU="visLegendShape" v:prompt="" v:val="VT0(2):26"/>
			</v:userDefs>
			<title>Repairs.128</title>
			<g id="shape129-146" v:mID="129" v:groupContext="shape" transform="translate(0.0384632,0)">
				<title>Sheet.129</title>
				<path d="M33.94 485.99 L33.94 522.41 L8 522.41 L11.63 542.69 L0 522.41 L0 485.99 L33.94 485.99 Z" class="st9"/>
			</g>
			<g id="shape130-148" v:mID="130" v:groupContext="shape" transform="translate(5.03654,-26.5591)">
				<title>Sheet.130</title>
				<path d="M22.17 540.67 C22.84 540 22.87 538.88 22.23 538.17 C21.6 537.46 20.54 537.43 19.87 538.1 C19.2 538.78 19.18
							 539.9 19.81 540.61 C20.45 541.32 21.5 541.35 22.17 540.67 ZM23.14 537.25 C24.25 538.49 24.21 540.46
							 23.03 541.64 C21.87 542.82 20.02 542.77 18.9 541.52 C18.16 540.69 17.94 539.54 18.22 538.51 L12.21 531.79
							 L14.26 529.58 L20.34 536.37 C21.32 536.12 22.4 536.42 23.14 537.25 ZM8.29 528.63 L3.61 527.01 L2.68
							 522.33 L3.33 521.68 L5.74 524.37 L7.68 522.42 L5.27 519.72 L5.91 519.06 L10.26 520.29 L11.55 525.33
							 L10.98 525.91 L12.66 527.79 L10.55 529.94 L8.86 528.05 L8.29 528.63 ZM10.22 534.74 C10.48 534.46 10.49
							 534.01 10.23 533.73 C9.97 533.45 9.55 533.45 9.28 533.72 L3.49 539.73 C3.23 540 3.22 540.45 3.48 540.73
							 C3.74 541.01 4.16 541.02 4.42 540.74 L10.22 534.74 ZM2.73 538.9 L8.53 532.89 C8.79 532.62 8.79 532.17
							 8.54 531.89 C8.28 531.61 7.86 531.61 7.59 531.88 L1.8 537.88 C1.54 538.16 1.53 538.61 1.79 538.89 C2.05
							 539.17 2.47 539.17 2.73 538.9 ZM11.19 531.86 L11.6 532.31 C12.25 533.01 11.99 534.38 11.34 535.06 L4.47
							 542.18 C3.81 542.87 2.75 542.85 2.11 542.15 L0.48 540.38 C-0.17 539.67 -0.16 538.55 0.5 537.87 L7.37
							 530.75 C8.03 530.06 9.32 529.83 9.97 530.53 L10.38 530.98 L17.46 523.63 L18.2 521.38 L21.89 518.55 L23.17
							 519.94 L20.41 523.79 L18.28 524.52 L11.19 531.86 Z" class="st5"/>
			</g>
			<g id="shape131-150" v:mID="131" v:groupContext="shape" transform="translate(0,-20.5653)">
				<title>Sheet.131</title>
			</g>
			<g id="shape132-152" v:mID="132" v:groupContext="shape" transform="translate(5.03654,-26.5591)">
				<title>Sheet.132</title>
			</g>
			<g id="shape128-154" v:mID="128" v:groupContext="groupContent">
				<v:textBlock v:margins="rect(4,4,4,4)" v:tabSpace="34.0157"/>
				<v:textRect cx="17.0079" cy="553.889" width="11.3" height="22.4037"/>
			</g>
		</g>
		<g id="group143-155" transform="translate(268.482,-99.0947) rotate(-45)" v:mID="143" v:groupContext="group"
				v:layerMember="0">
			<v:userDefs>
				<v:ud v:nameU="visVersion" v:val="VT0(15):26"/>
			</v:userDefs>
			<title>Station.143</title>
			<g id="shape144-156" v:mID="144" v:groupContext="shape" v:layerMember="0">
				<title>Sheet.144</title>
				<path d="M0 528.51 A14.1732 14.1732 0 0 1 28.35 528.51 A14.1732 14.1732 0 1 1 0 528.51 Z" class="st4"/>
			</g>
			<g id="shape145-158" v:mID="145" v:groupContext="shape" v:layerMember="0" transform="translate(4.25197,-4.25197)">
				<title>Sheet.145</title>
				<path d="M0 532.77 A9.92126 9.92126 0 0 1 19.84 532.77 A9.92126 9.92126 0 1 1 0 532.77 Z" class="st5"/>
			</g>
			<g id="shape146-160" v:mID="146" v:groupContext="shape" transform="translate(28.3465,0)">
				<title>Sheet.146</title>
				<desc>Deployment</desc>
				<v:textBlock v:margins="rect(0,0,0,0)" v:tabSpace="42.5197"/>
				<v:textRect cx="29.8543" cy="528.514" width="59.71" height="28.3465"/>
				<rect x="0" y="514.34" width="59.7087" height="28.3465" class="st6"/>
				<text x="2.79" y="531.51" class="st7" v:langID="1033"><v:paragraph v:horizAlign="1"/><v:tabList/>Deployment</text>			</g>
		</g>
		<g id="group147-163" transform="translate(120.847,-458.082)" v:mID="147" v:groupContext="group">
			<v:custProps>
				<v:cp v:nameU="Text" v:lbl="Text" v:type="4" v:format="&#60;no master&#62;;" v:invis="false" v:langID="1033"
						v:val="VT4()"/>
				<v:cp v:nameU="ShapeClass" v:lbl="ShapeClass" v:type="0" v:invis="true" v:langID="1033" v:val="VT4(Annotation)"/>
				<v:cp v:nameU="ShapeType" v:lbl="ShapeType" v:type="0" v:invis="true" v:langID="1033"
						v:val="VT4(Points Of Interest)"/>
				<v:cp v:nameU="SubShapeType" v:lbl="SubShapeType" v:type="0" v:invis="true" v:langID="1033" v:val="VT4(Repairs)"/>
				<v:cp v:nameU="Text" v:lbl="" v:prompt="" v:type="0" v:format="Repairs;" v:sortKey="" v:invis="false" v:ask="false"
						v:langID="0" v:cal="0" v:val="VT0(0):26"/>
			</v:custProps>
			<v:userDefs>
				<v:ud v:nameU="Type" v:val="VT0(2):26"/>
				<v:ud v:nameU="AntiScale" v:val="VT0(1):26"/>
				<v:ud v:nameU="HasText" v:val="VT0(0):5"/>
				<v:ud v:nameU="ShowBorder" v:val="VT0(1):5"/>
				<v:ud v:nameU="visLegendSymbolID" v:val="VT15({05144766-0018-0000-8E40-00608CF305B2}):41"/>
				<v:ud v:nameU="ShapeClass" v:prompt="0" v:val="VT0(1):26"/>
				<v:ud v:nameU="ShapeType" v:prompt="0" v:val="VT0(53):26"/>
				<v:ud v:nameU="SubShapeType" v:prompt="0" v:val="VT0(201):26"/>
				<v:ud v:nameU="LastText" v:val="VT4()"/>
				<v:ud v:nameU="TextSync"/>
				<v:ud v:nameU="visVersion" v:val="VT0(16):26"/>
				<v:ud v:nameU="visLegendShape" v:prompt="" v:val="VT0(2):26"/>
			</v:userDefs>
			<title>Repairs.147</title>
			<g id="shape148-164" v:mID="148" v:groupContext="shape" transform="translate(0.0384632,0)">
				<title>Sheet.148</title>
				<path d="M33.94 485.99 L33.94 522.41 L8 522.41 L11.63 542.69 L0 522.41 L0 485.99 L33.94 485.99 Z" class="st9"/>
			</g>
			<g id="shape149-166" v:mID="149" v:groupContext="shape" transform="translate(5.03654,-26.5591)">
				<title>Sheet.149</title>
				<path d="M22.17 540.67 C22.84 540 22.87 538.88 22.23 538.17 C21.6 537.46 20.54 537.43 19.87 538.1 C19.2 538.78 19.18
							 539.9 19.81 540.61 C20.45 541.32 21.5 541.35 22.17 540.67 ZM23.14 537.25 C24.25 538.49 24.21 540.46
							 23.03 541.64 C21.87 542.82 20.02 542.77 18.9 541.52 C18.16 540.69 17.94 539.54 18.22 538.51 L12.21 531.79
							 L14.26 529.58 L20.34 536.37 C21.32 536.12 22.4 536.42 23.14 537.25 ZM8.29 528.63 L3.61 527.01 L2.68
							 522.33 L3.33 521.68 L5.74 524.37 L7.68 522.42 L5.27 519.72 L5.91 519.06 L10.26 520.29 L11.55 525.33
							 L10.98 525.91 L12.66 527.79 L10.55 529.94 L8.86 528.05 L8.29 528.63 ZM10.22 534.74 C10.48 534.46 10.49
							 534.01 10.23 533.73 C9.97 533.45 9.55 533.45 9.28 533.72 L3.49 539.73 C3.23 540 3.22 540.45 3.48 540.73
							 C3.74 541.01 4.16 541.02 4.42 540.74 L10.22 534.74 ZM2.73 538.9 L8.53 532.89 C8.79 532.62 8.79 532.17
							 8.54 531.89 C8.28 531.61 7.86 531.61 7.59 531.88 L1.8 537.88 C1.54 538.16 1.53 538.61 1.79 538.89 C2.05
							 539.17 2.47 539.17 2.73 538.9 ZM11.19 531.86 L11.6 532.31 C12.25 533.01 11.99 534.38 11.34 535.06 L4.47
							 542.18 C3.81 542.87 2.75 542.85 2.11 542.15 L0.48 540.38 C-0.17 539.67 -0.16 538.55 0.5 537.87 L7.37
							 530.75 C8.03 530.06 9.32 529.83 9.97 530.53 L10.38 530.98 L17.46 523.63 L18.2 521.38 L21.89 518.55 L23.17
							 519.94 L20.41 523.79 L18.28 524.52 L11.19 531.86 Z" class="st5"/>
			</g>
			<g id="shape150-168" v:mID="150" v:groupContext="shape" transform="translate(0,-20.5653)">
				<title>Sheet.150</title>
			</g>
			<g id="shape151-170" v:mID="151" v:groupContext="shape" transform="translate(5.03654,-26.5591)">
				<title>Sheet.151</title>
			</g>
			<g id="shape147-172" v:mID="147" v:groupContext="groupContent">
				<v:textBlock v:margins="rect(4,4,4,4)" v:tabSpace="34.0157"/>
				<v:textRect cx="17.0079" cy="553.889" width="11.3" height="22.4037"/>
			</g>
		</g>
		<g id="group152-173" transform="translate(-126.827,-263.315) rotate(-45)" v:mID="152" v:groupContext="group"
				v:layerMember="0">
			<v:userDefs>
				<v:ud v:nameU="visVersion" v:val="VT0(15):26"/>
			</v:userDefs>
			<title>Station.152</title>
			<g id="shape153-174" v:mID="153" v:groupContext="shape" v:layerMember="0">
				<title>Sheet.153</title>
				<path d="M0 528.51 A14.1732 14.1732 0 0 1 28.35 528.51 A14.1732 14.1732 0 1 1 0 528.51 Z" class="st4"/>
			</g>
			<g id="shape154-176" v:mID="154" v:groupContext="shape" v:layerMember="0" transform="translate(4.25197,-4.25197)">
				<title>Sheet.154</title>
				<path d="M0 532.77 A9.92126 9.92126 0 0 1 19.84 532.77 A9.92126 9.92126 0 1 1 0 532.77 Z" class="st5"/>
			</g>
			<g id="shape155-178" v:mID="155" v:groupContext="shape" transform="translate(28.3465,0)">
				<title>Sheet.155</title>
				<desc>Call Microsoft Graph (Sovereign)</desc>
				<v:textBlock v:margins="rect(0,0,0,0)" v:tabSpace="42.5197"/>
				<v:textRect cx="45.5526" cy="528.514" width="91.11" height="28.3465"/>
				<rect x="0" y="514.34" width="91.1052" height="28.3465" class="st6"/>
				<text x="3.68" y="525.51" class="st10" v:langID="1033"><v:paragraph v:horizAlign="1"/><v:tabList/>Call Microsoft Graph <v:lf/><tspan
							x="22.48" dy="1.2em" class="st8">(Sovereign)</tspan></text>			</g>
		</g>
		<g id="shape160-182" v:mID="160" v:groupContext="shape" transform="translate(233.5,-126.328)">
			<title>Sheet.160</title>
			<desc>Call Web APIs</desc>
			<v:textBlock v:margins="rect(4,4,4,4)" v:tabSpace="42.5197" v:verticalAlign="0"/>
			<v:textRect cx="135.721" cy="335.049" width="271.45" height="415.276"/>
			<rect x="0" y="127.411" width="271.442" height="415.276" class="st1"/>
			<text x="4" y="142.21" class="st2" v:langID="1033"><v:paragraph/><v:tabList/>Call Web APIs</text>		</g>
		<g id="shape161-185" v:mID="161" v:groupContext="shape" transform="translate(510.269,-127.036)">
			<title>Sheet.161</title>
			<desc>Advanced aspects</desc>
			<v:textBlock v:margins="rect(4,4,4,4)" v:tabSpace="42.5197" v:verticalAlign="0"/>
			<v:textRect cx="100.801" cy="335.049" width="201.61" height="415.276"/>
			<rect x="0" y="127.411" width="201.602" height="415.276" class="st1"/>
			<text x="4" y="142.21" class="st2" v:langID="1033"><v:paragraph/><v:tabList/>Advanced aspects</text>		</g>
	</g>
</svg>
