<?xml version="1.0" encoding="UTF-8" standalone="no"?>
<!DOCTYPE svg PUBLIC "-//W3C//DTD SVG 1.1//EN" "http://www.w3.org/Graphics/SVG/1.1/DTD/svg11.dtd">
<!-- Generated by Microsoft Visio, SVG Export web-app-calls-microsoft-apis.svg Page-1 -->
<svg xmlns="http://www.w3.org/2000/svg" xmlns:xlink="http://www.w3.org/1999/xlink" xmlns:ev="http://www.w3.org/2001/xml-events"
		xmlns:v="http://schemas.microsoft.com/visio/2003/SVGExtensions/" width="4.54289in" height="1.62478in"
		viewBox="0 0 327.088 116.984" xml:space="preserve" color-interpolation-filters="sRGB" class="st8">
	<v:documentProperties v:langID="1033"/>

	<style type="text/css">
	<![CDATA[
		.st1 {fill:#0078d7;stroke:none;stroke-linecap:round;stroke-linejoin:round;stroke-width:0.75}
		.st2 {fill:#a5a5a5;font-family:Calibri;font-size:0.75em}
		.st3 {font-size:1em}
		.st4 {fill:#0078d7;stroke:#ffffff;stroke-linecap:round;stroke-linejoin:round;stroke-width:0.75}
		.st5 {fill:#ffffff;stroke:none;stroke-linecap:round;stroke-linejoin:round;stroke-width:0.75}
		.st6 {marker-end:url(#mrkr5-72);stroke:#505050;stroke-linecap:round;stroke-linejoin:round;stroke-width:1.5}
		.st7 {fill:#505050;fill-opacity:1;stroke:#505050;stroke-opacity:1;stroke-width:0.3731343855673}
		.st8 {fill:none;fill-rule:evenodd;font-size:12px;overflow:visible;stroke-linecap:square;stroke-miterlimit:3}
	]]>
	</style>

	<defs id="Markers">
		<g id="lend5">
			<path d="M 2 1 L 0 0 L 1.98117 -0.993387 C 1.67173 -0.364515 1.67301 0.372641 1.98465 1.00043 " style="stroke:none"/>
		</g>
		<marker id="mrkr5-72" class="st7" v:arrowType="5" v:arrowSize="2" v:setback="4.69" refX="-4.6899992809276" orient="auto"
				markerUnits="strokeWidth" overflow="visible">
			<use xlink:href="#lend5" transform="scale(-2.6799995891015,-2.6799995891015) "/>
		</marker>
	</defs>
	<g v:mID="0" v:index="1" v:groupContext="foregroundPage">
		<title>Page-1</title>
		<v:pageProperties v:drawingScale="0.0393701" v:pageScale="0.0393701" v:drawingUnits="24" v:shadowOffsetX="8.50394"
				v:shadowOffsetY="-8.50394"/>
		<v:layer v:name="Azure" v:index="0"/>
		<v:layer v:name="Connector" v:index="1"/>
		<g id="group1-1" transform="translate(44.6663,-55.3955)" v:mID="1" v:groupContext="group" v:layerMember="0">
			<v:userDefs/>
			<title>Web App (Was Websites).186</title>
			<desc>Web App calls Microsoft APIs</desc>
			<g id="group2-2" v:mID="2" v:groupContext="group" v:layerMember="0">
				<title>Sheet.2</title>
				<g id="shape3-3" v:mID="3" v:groupContext="shape" v:layerMember="0">
					<title>Sheet.3</title>
					<path d="M22.89 112.6 C20.71 114.31 18.14 115.14 15.6 115.14 C11.99 115.14 8.42 113.48 6.05 110.31 C2.02 104.9
								 3.02 97.17 8.29 93.02 C10.47 91.31 13.04 90.49 15.58 90.49 C19.2 90.49 22.76 92.15 25.13 95.32 C29.16
								 100.72 28.16 108.46 22.89 112.6 ZM26.55 94.19 C23.83 90.54 19.73 88.64 15.58 88.64 C12.66 88.64
								 9.7 89.59 7.19 91.56 C1.15 96.32 0 105.22 4.64 111.43 C7.35 115.08 11.46 116.98 15.6 116.98 C18.53
								 116.98 21.49 116.04 23.99 114.06 C30.03 109.31 31.18 100.41 26.55 94.19 Z" class="st1"/>
				</g>
			</g>
			<g id="group4-5" transform="translate(4.95554,-4.39536)" v:mID="4" v:groupContext="group" v:layerMember="0">
				<title>Sheet.4</title>
				<g id="group5-6" transform="translate(0.341805,-0.176482)" v:mID="5" v:groupContext="group" v:layerMember="0">
					<title>Sheet.5</title>
					<g id="group6-7" transform="translate(0.437248,9.9476E-14)" v:mID="6" v:groupContext="group" v:layerMember="0">
						<title>Sheet.6</title>
						<g id="shape7-8" v:mID="7" v:groupContext="shape" v:layerMember="0">
							<title>Sheet.7</title>
							<path d="M3.62 109.96 C2.82 109.15 2.18 108.37 1.66 107.61 C0.51 110.03 0.1 112.51 0 114.49 C0.11 114.65
										 0.11 114.78 0.23 114.93 C0.81 115.69 1.53 116.41 2.23 116.98 C2.13 115.36 2.27 112.71 3.62
										 109.96 Z" class="st1"/>
						</g>
					</g>
					<g id="shape8-10" v:mID="8" v:groupContext="shape" v:layerMember="0" transform="translate(3.29213,-8.97695)">
						<title>Sheet.8</title>
						<path d="M4.94 109.49 C3.85 110.26 2.74 111.24 1.61 112.47 C0.99 113.14 0.46 113.82 0 114.52 C0.48 115.31
									 1.11 116.13 1.9 116.98 C2.49 116.12 3.22 115.26 4.1 114.42 C5.21 113.35 6.25 112.5 7.23 111.81
									 C6.43 111.05 5.65 110.28 4.94 109.49 Z" class="st1"/>
					</g>
					<g id="group9-12" transform="translate(9.93516,-15.1958)" v:mID="9" v:groupContext="group" v:layerMember="0">
						<title>Sheet.9</title>
						<g id="shape10-13" v:mID="10" v:groupContext="shape" v:layerMember="0">
							<title>Sheet.10</title>
							<path d="M9.77 114.91 C9.25 114.22 8.66 113.63 8.04 113.09 C6.18 112.79 3.3 112.83 0 114.63 C0.76 115.46
										 1.51 116.25 2.24 116.98 C6.64 114.55 9.77 114.91 9.77 114.91 Z" class="st1"/>
						</g>
					</g>
					<g id="group11-15" transform="translate(1.4988E-15,-9.38012)" v:mID="11" v:groupContext="group"
							v:layerMember="0">
						<title>Sheet.11</title>
						<g id="shape12-16" v:mID="12" v:groupContext="shape" v:layerMember="0">
							<title>Sheet.12</title>
							<path d="M2.1 116.98 C2.44 116.3 2.84 115.6 3.29 114.92 C1.4 111.85 1.49 109.31 1.69 108.13 C1.22 108.64
										 0.78 109.16 0.4 109.73 C0.02 111.34 0 113.9 2.1 116.98 Z" class="st1"/>
						</g>
					</g>
					<g id="group13-18" transform="translate(4.05148,-0.740211)" v:mID="13" v:groupContext="group" v:layerMember="0">
						<title>Sheet.13</title>
						<g id="shape14-19" v:mID="14" v:groupContext="shape" v:layerMember="0">
							<title>Sheet.14</title>
							<path d="M3.41 110.88 C2.53 110.16 1.78 109.44 1.14 108.74 C0.68 109.4 0.31 110.05 0 110.69 C0.6 111.32
										 1.3 111.95 2.09 112.6 C7.01 116.61 11.9 116.98 14.65 116.98 C14.83 116.98 15.69 115.79 16.19
										 115.04 C14.96 115.3 9.7 115.99 3.41 110.88 Z" class="st1"/>
						</g>
					</g>
					<g id="group15-21" transform="translate(2.10339,-7.03041)" v:mID="15" v:groupContext="group" v:layerMember="0">
						<title>Sheet.15</title>
						<g id="shape16-22" v:mID="16" v:groupContext="shape" v:layerMember="0">
							<title>Sheet.16</title>
							<path d="M0 114.63 C0.51 115.4 1.15 116.17 1.95 116.98 C2.26 116.34 2.64 115.69 3.09 115.04 C2.3 114.18
										 1.67 113.36 1.19 112.57 C0.72 113.25 0.33 113.95 0 114.63 Z" class="st1"/>
						</g>
					</g>
					<g id="group17-24" transform="translate(10.5195,-5.3233)" v:mID="17" v:groupContext="group" v:layerMember="0">
						<title>Sheet.17</title>
						<g id="shape18-25" v:mID="18" v:groupContext="shape" v:layerMember="0">
							<title>Sheet.18</title>
							<path d="M0 108.16 C4.49 112.42 9.8 116.04 11.15 116.98 C11.29 116.63 11.38 116.29 11.48 115.93 C10.03
										 114.83 6.22 111.77 1.65 107.11 C1.12 107.41 0.57 107.76 0 108.16 Z" class="st1"/>
						</g>
					</g>
					<g id="group19-27" transform="translate(4.98729,-16.4714)" v:mID="19" v:groupContext="group" v:layerMember="0">
						<title>Sheet.19</title>
						<g id="shape20-28" v:mID="20" v:groupContext="shape" v:layerMember="0">
							<title>Sheet.20</title>
							<path d="M4.95 115.9 C3.85 114.72 2.73 113.45 1.59 112.1 C1.04 112.27 0.51 112.5 0 112.76 C0.84 114.17
										 1.97 115.6 3.24 116.98 C3.82 116.57 4.38 116.21 4.95 115.9 Z" class="st1"/>
						</g>
					</g>
					<g id="shape21-30" v:mID="21" v:groupContext="shape" v:layerMember="0" transform="translate(8.13763,-14.0503)">
						<title>Sheet.21</title>
						<path d="M1.87 113.44 C1.31 113.75 0.57 114.21 0 114.63 C0.72 115.41 1.45 116.22 2.25 116.98 C2.82 116.58
									 3.59 116.1 4.12 115.8 C3.38 115.07 2.63 114.28 1.87 113.44 Z" class="st1"/>
					</g>
					<g id="shape22-32" v:mID="22" v:groupContext="shape" v:layerMember="0" transform="translate(8.1369,-14.0039)">
						<title>Sheet.22</title>
						<path d="M1.67 113.29 C1.1 113.6 0.57 114 0 114.41 C0.72 115.2 1.74 116.22 2.54 116.98 C3.11 116.58 3.59
									 116.18 4.12 115.88 C3.38 115.15 2.42 114.12 1.67 113.29 Z" class="st1"/>
					</g>
				</g>
				<g id="group23-34" transform="translate(14.8617,-6.23662)" v:mID="23" v:groupContext="group" v:layerMember="0">
					<title>Sheet.23</title>
					<g id="shape24-35" v:mID="24" v:groupContext="shape" v:layerMember="0">
						<title>Sheet.24</title>
						<path d="M1.34 111.9 C0.22 112.78 0 114.45 0.86 115.6 C1.74 116.78 3.36 116.98 4.49 116.11 C5.61 115.22 5.83
									 113.55 4.97 112.39 C4.1 111.24 2.49 111 1.34 111.9 Z" class="st1"/>
					</g>
				</g>
				<g id="group25-37" transform="translate(9.65099,-8.52651E-14)" v:mID="25" v:groupContext="group" v:layerMember="0">
					<title>Sheet.25</title>
					<g id="shape26-38" v:mID="26" v:groupContext="shape" v:layerMember="0">
						<title>Sheet.26</title>
						<path d="M1.24 112.28 C0.2 113.09 0 114.64 0.79 115.71 C1.6 116.78 3.1 116.98 4.15 116.16 C5.19 115.34 5.39
									 113.81 4.59 112.74 C3.79 111.66 2.29 111.46 1.24 112.28 Z" class="st1"/>
					</g>
				</g>
				<g id="group27-40" transform="translate(6.84452E-14,-5.36433)" v:mID="27" v:groupContext="group" v:layerMember="0">
					<title>Sheet.27</title>
					<g id="shape28-41" v:mID="28" v:groupContext="shape" v:layerMember="0">
						<title>Sheet.28</title>
						<path d="M1.89 109.82 C0.3 111.08 0 113.4 1.21 115.04 C2.44 116.67 4.72 116.98 6.31 115.73 C7.9 114.48 8.2
									 112.15 6.98 110.5 C5.76 108.89 3.48 108.57 1.89 109.82 Z" class="st1"/>
					</g>
				</g>
			</g>
			<g id="shape1-43" v:mID="1" v:groupContext="groupContent" v:layerMember="0">
				<v:textBlock v:margins="rect(4,4,4,4)" v:tabSpace="42.5197"/>
				<v:textRect cx="15.5906" cy="137.19" width="63.21" height="40.4036"/>
				<text x="-1.37" y="129.09" class="st2" v:langID="1036"><v:paragraph v:horizAlign="1"/><v:tabList/>Web App<v:lf/><tspan
							x="7.71" dy="1.2em" class="st3">calls <v:lf/></tspan><tspan x="-10.99" dy="1.2em" class="st3">Microsoft APIs</tspan></text>			</g>
		</g>
		<g id="shape29-47" v:mID="29" v:groupContext="shape" v:layerMember="0" transform="translate(274.095,-90.8286)">
			<title>API App.214</title>
			<desc>Microsoft Graph</desc>
			<v:userDefs/>
			<v:textBlock v:margins="rect(4,4,4,4)" v:tabSpace="42.5197"/>
			<v:textRect cx="11.3386" cy="131.79" width="45.53" height="29.6036"/>
			<path d="M21.59 91.47 L1.09 91.47 C0.49 91.47 0 91.96 0 92.58 L0 109.32 C0 109.93 0.49 110.42 1.09 110.42 L6.37 110.42
						 C6.79 111.77 8.06 112.69 9.58 112.69 C11.4 112.69 12.92 111.16 12.92 109.32 C12.92 107.48 11.4 105.95 9.58
						 105.95 C8.06 105.95 6.79 106.87 6.37 108.21 L2.18 108.21 L2.18 96.26 L20.49 96.26 L20.49 108.21 L17.04 108.21
						 C16.55 104.53 13.34 101.65 9.58 101.65 C8.31 101.65 7.03 102.02 5.94 102.57 L6.97 104.53 C7.7 104.11 8.67
						 103.86 9.52 103.86 C12.43 103.86 14.92 106.31 14.92 109.32 C14.92 112.32 12.49 114.78 9.52 114.78 C8.61
						 114.78 7.76 114.53 6.97 114.1 L5.94 116.06 C7.03 116.68 8.31 116.98 9.58 116.98 C13.34 116.98 16.55 114.1
						 17.04 110.42 L21.59 110.42 C22.19 110.42 22.68 109.93 22.68 109.32 L22.68 92.58 C22.68 92.02 22.19 91.47
						 21.59 91.47 Z" class="st1"/>
			<text x="-6.4" y="129.09" class="st2" v:langID="1036"><v:paragraph v:horizAlign="1"/><v:tabList/>Microsoft<v:lf/><tspan
						x="0.05" dy="1.2em" class="st3">Graph</tspan></text>		</g>
		<g id="group30-51" transform="translate(0.375,-61.0648)" v:mID="30" v:groupContext="group" v:layerMember="0">
			<title>User Permissions.215</title>
			<g id="group31-52" v:mID="31" v:groupContext="group" v:layerMember="0">
				<title>Sheet.31</title>
				<g id="group32-53" v:mID="32" v:groupContext="group" v:layerMember="0">
					<title>Sheet.32</title>
					<g id="group33-54" transform="translate(3.8518,-6.4617)" v:mID="33" v:groupContext="group" v:layerMember="0">
						<title>Sheet.33</title>
						<g id="shape34-55" v:mID="34" v:groupContext="shape" v:layerMember="0">
							<title>Sheet.34</title>
							<path d="M3.62 107.1 C1.32 107.66 0 110.21 0.66 112.77 C1.32 115.32 3.62 116.98 5.93 116.43 C8.23 115.87
										 9.55 113.32 8.89 110.77 C8.34 108.1 5.93 106.44 3.62 107.1 Z" class="st1"/>
						</g>
					</g>
					<g id="group35-57" v:mID="35" v:groupContext="group" v:layerMember="0">
						<title>Sheet.35</title>
						<g id="shape36-58" v:mID="36" v:groupContext="shape" v:layerMember="0">
							<title>Sheet.36</title>
							<path d="M12.41 110.66 C11.97 110.66 11.53 111.43 10.87 111.77 C10.21 112.1 9.55 112.65 7.69 111.77 C5.82
										 110.88 5.6 110.1 4.06 110.1 C2.53 110.1 0 112.88 0 116.98 L15.59 116.98 C15.59 116.98 15.37
										 114.21 14.49 112.77 C13.39 110.66 12.85 110.66 12.41 110.66 Z" class="st1"/>
						</g>
					</g>
				</g>
			</g>
			<g id="group37-60" transform="translate(9.0485,-0.85947)" v:mID="37" v:groupContext="group" v:layerMember="0">
				<title>Sheet.37</title>
				<g id="shape38-61" v:mID="38" v:groupContext="shape" v:layerMember="0">
					<title>Sheet.38</title>
					<path d="M4.77 106.58 L0.65 106.58 C0.33 106.58 0 106.9 0 107.23 L0 110.08 C0 110.41 0.33 110.74 0.76 110.74
								 L1.52 110.74 L1.52 115.89 C1.52 116.55 1.95 116.98 2.49 116.98 C3.03 116.98 3.47 116.55 3.47 116
								 C3.58 116 3.68 116 3.68 116 C3.68 116 3.68 115.45 3.68 115.34 C3.68 115.12 4.01 115.01 4.01 115.01
								 C4.01 115.01 4.01 114.68 4.01 114.68 C3.68 114.57 3.47 114.35 3.47 114.24 L3.47 113.92 C3.58 113.81
								 3.68 113.7 3.68 113.7 C3.79 113.59 4.01 113.15 4.01 113.15 C4.01 113.15 3.68 112.71 3.68 112.6 C3.58
								 112.49 3.58 112.27 3.47 112.16 L3.47 111.94 C3.58 111.4 4.23 110.85 4.23 110.85 L4.77 110.85 C5.09
								 110.85 5.42 110.52 5.42 110.19 L5.42 107.23 C5.42 106.9 5.2 106.58 4.77 106.58 ZM2.38 116.11 C2.38
								 116.33 2.38 116.44 2.17 116.44 C1.95 116.44 1.95 116.22 1.95 116.11 L1.95 111.29 C1.95 111.07 2.06
								 110.96 2.17 110.96 C2.38 110.96 2.38 111.18 2.38 111.29 L2.38 116.11 ZM2.71 108.33 C2.38 108.33
								 2.06 108 2.06 107.67 C2.06 107.34 2.38 107.01 2.71 107.01 C3.03 107.01 3.36 107.34 3.36 107.67 C3.36
								 108 3.14 108.33 2.71 108.33 Z" class="st4"/>
				</g>
				<g id="shape39-63" v:mID="39" v:groupContext="shape" v:layerMember="0" transform="translate(1.92482,-0.570755)">
					<title>Sheet.39</title>
					<path d="M0.22 116.98 C0.11 116.98 0 116.87 0 116.76 L0 111.77 C0 111.66 0.11 111.54 0.22 111.54 C0.33 111.54
								 0.44 111.66 0.44 111.77 L0.44 116.87 C0.44 116.98 0.33 116.98 0.22 116.98 Z" class="st5"/>
				</g>
				<g id="shape40-65" v:mID="40" v:groupContext="shape" v:layerMember="0" transform="translate(2.05993,-8.6591)">
					<title>Sheet.40</title>
					<ellipse cx="0.658756" cy="116.318" rx="0.658756" ry="0.666074" class="st5"/>
				</g>
			</g>
		</g>
		<g id="shape41-67" v:mID="41" v:groupContext="shape" v:layerMember="1;0" transform="translate(75.0386,-69.5687)">
			<title>Arrow (Azure Poster Style).226</title>
			<path d="M0 116.98 L37.48 116.98 A17.0079 17.0079 -180 0 0 54.49 99.98 A17.0079 17.0079 0 0 1 71.5 82.97 L191.59 82.97
						 L191.59 82.97" class="st6"/>
		</g>
		<g id="shape42-73" v:mID="42" v:groupContext="shape" v:layerMember="0" transform="translate(274.095,-29.6077)">
			<title>API App.227</title>
			<desc>Microsoft ARM, Azure Storage</desc>
			<v:userDefs/>
			<v:textBlock v:margins="rect(4,4,4,4)" v:tabSpace="42.5197"/>
			<v:textRect cx="11.3386" cy="131.79" width="83.32" height="29.6036"/>
			<path d="M21.59 91.47 L1.09 91.47 C0.49 91.47 0 91.96 0 92.58 L0 109.32 C0 109.93 0.49 110.42 1.09 110.42 L6.37 110.42
						 C6.79 111.77 8.06 112.69 9.58 112.69 C11.4 112.69 12.92 111.16 12.92 109.32 C12.92 107.48 11.4 105.95 9.58
						 105.95 C8.06 105.95 6.79 106.87 6.37 108.21 L2.18 108.21 L2.18 96.26 L20.49 96.26 L20.49 108.21 L17.04 108.21
						 C16.55 104.53 13.34 101.65 9.58 101.65 C8.31 101.65 7.03 102.02 5.94 102.57 L6.97 104.53 C7.7 104.11 8.67
						 103.86 9.52 103.86 C12.43 103.86 14.92 106.31 14.92 109.32 C14.92 112.32 12.49 114.78 9.52 114.78 C8.61
						 114.78 7.76 114.53 6.97 114.1 L5.94 116.06 C7.03 116.68 8.31 116.98 9.58 116.98 C13.34 116.98 16.55 114.1
						 17.04 110.42 L21.59 110.42 C22.19 110.42 22.68 109.93 22.68 109.32 L22.68 92.58 C22.68 92.02 22.19 91.47
						 21.59 91.47 Z" class="st1"/>
			<text x="-6.4" y="129.09" class="st2" v:langID="1036"><v:paragraph v:horizAlign="1"/><v:tabList/>Microsoft<v:lf/><tspan
						x="-25.3" dy="1.2em" class="st3">ARM, Azure Storage</tspan></text>		</g>
		<g id="shape43-77" v:mID="43" v:groupContext="shape" v:layerMember="1;0" transform="translate(75.0386,-42.3587)">
			<title>Arrow (Azure Poster Style).228</title>
			<path d="M0 89.77 L40.89 89.77 A13.6026 13.6026 0 0 1 54.49 103.38 A13.6026 13.6026 -180 0 0 68.09 116.98 L191.59 116.98
						 L191.59 116.98" class="st6"/>
		</g>
	</g>
</svg>
