<?xml version="1.0" encoding="UTF-8" standalone="no"?>
<!DOCTYPE svg PUBLIC "-//W3C//DTD SVG 1.1//EN" "http://www.w3.org/Graphics/SVG/1.1/DTD/svg11.dtd">
<!-- Generated by Microsoft Visio, SVG Export Web-app-signs-in-users.svg Page-1 -->
<svg xmlns="http://www.w3.org/2000/svg" xmlns:xlink="http://www.w3.org/1999/xlink" xmlns:ev="http://www.w3.org/2001/xml-events"
		xmlns:v="http://schemas.microsoft.com/visio/2003/SVGExtensions/" width="1.28161in" height="0.810972in"
		viewBox="0 0 92.2759 58.39" xml:space="preserve" color-interpolation-filters="sRGB" class="st6">
	<v:documentProperties v:langID="1033"/>

	<style type="text/css">
	<![CDATA[
		.st1 {fill:#0078d7;stroke:none;stroke-linecap:round;stroke-linejoin:round;stroke-width:0.750001}
		.st2 {fill:#0078d7;stroke:#ffffff;stroke-linecap:round;stroke-linejoin:round;stroke-width:0.750001}
		.st3 {fill:#ffffff;stroke:none;stroke-linecap:round;stroke-linejoin:round;stroke-width:0.750001}
		.st4 {fill:#a5a5a5;font-family:Calibri;font-size:0.75em}
		.st5 {font-size:1em}
		.st6 {fill:none;fill-rule:evenodd;font-size:12px;overflow:visible;stroke-linecap:square;stroke-miterlimit:3}
	]]>
	</style>

	<g v:mID="0" v:index="1" v:groupContext="foregroundPage">
		<title>Page-1</title>
		<v:pageProperties v:drawingScale="0.0393701" v:pageScale="0.0393701" v:drawingUnits="24" v:shadowOffsetX="8.50395"
				v:shadowOffsetY="-8.50395"/>
		<v:layer v:name="Azure" v:index="0"/>
		<g id="group1-1" transform="translate(0.375094,-35.2729)" v:mID="1" v:groupContext="group" v:layerMember="0">
			<title>User Permissions.1187</title>
			<g id="group2-2" v:mID="2" v:groupContext="group" v:layerMember="0">
				<title>Sheet.2</title>
				<g id="group3-3" v:mID="3" v:groupContext="group" v:layerMember="0">
					<title>Sheet.3</title>
					<g id="group4-4" transform="translate(3.85181,-6.46171)" v:mID="4" v:groupContext="group" v:layerMember="0">
						<title>Sheet.4</title>
						<g id="shape5-5" v:mID="5" v:groupContext="shape" v:layerMember="0">
							<title>Sheet.5</title>
							<path d="M3.62 48.51 C1.32 49.06 0 51.62 0.66 54.17 C1.32 56.72 3.62 58.39 5.93 57.83 C8.23 57.28 9.55
										 54.73 8.89 52.17 C8.34 49.51 5.93 47.84 3.62 48.51 Z" class="st1"/>
						</g>
					</g>
					<g id="group6-7" v:mID="6" v:groupContext="group" v:layerMember="0">
						<title>Sheet.6</title>
						<g id="shape7-8" v:mID="7" v:groupContext="shape" v:layerMember="0">
							<title>Sheet.7</title>
							<path d="M12.41 52.06 C11.97 52.06 11.53 52.84 10.87 53.17 C10.21 53.51 9.55 54.06 7.69 53.17 C5.82 52.28
										 5.6 51.51 4.06 51.51 C2.53 51.51 0 54.28 0 58.39 L15.59 58.39 C15.59 58.39 15.37 55.61 14.49
										 54.17 C13.39 52.06 12.85 52.06 12.41 52.06 Z" class="st1"/>
						</g>
					</g>
				</g>
			</g>
			<g id="group8-10" transform="translate(9.04851,-0.859471)" v:mID="8" v:groupContext="group" v:layerMember="0">
				<title>Sheet.8</title>
				<g id="shape9-11" v:mID="9" v:groupContext="shape" v:layerMember="0">
					<title>Sheet.9</title>
					<path d="M4.77 47.98 L0.65 47.98 C0.33 47.98 0 48.31 0 48.64 L0 51.49 C0 51.82 0.33 52.14 0.76 52.14 L1.52 52.14
								 L1.52 57.29 C1.52 57.95 1.95 58.39 2.49 58.39 C3.03 58.39 3.47 57.95 3.47 57.4 C3.58 57.4 3.68 57.4
								 3.68 57.4 C3.68 57.4 3.68 56.86 3.68 56.75 C3.68 56.53 4.01 56.42 4.01 56.42 C4.01 56.42 4.01 56.09
								 4.01 56.09 C3.68 55.98 3.47 55.76 3.47 55.65 L3.47 55.32 C3.58 55.21 3.68 55.1 3.68 55.1 C3.79 54.99
								 4.01 54.56 4.01 54.56 C4.01 54.56 3.68 54.12 3.68 54.01 C3.58 53.9 3.58 53.68 3.47 53.57 L3.47 53.35
								 C3.58 52.8 4.23 52.25 4.23 52.25 L4.77 52.25 C5.09 52.25 5.42 51.93 5.42 51.6 L5.42 48.64 C5.42
								 48.31 5.2 47.98 4.77 47.98 ZM2.38 57.51 C2.38 57.73 2.38 57.84 2.17 57.84 C1.95 57.84 1.95 57.62
								 1.95 57.51 L1.95 52.69 C1.95 52.47 2.06 52.36 2.17 52.36 C2.38 52.36 2.38 52.58 2.38 52.69 L2.38
								 57.51 ZM2.71 49.73 C2.38 49.73 2.06 49.41 2.06 49.08 C2.06 48.75 2.38 48.42 2.71 48.42 C3.03 48.42
								 3.36 48.75 3.36 49.08 C3.36 49.41 3.14 49.73 2.71 49.73 Z" class="st2"/>
				</g>
				<g id="shape10-13" v:mID="10" v:groupContext="shape" v:layerMember="0" transform="translate(1.92482,-0.570756)">
					<title>Sheet.10</title>
					<path d="M0.22 58.39 C0.11 58.39 0 58.28 0 58.17 L0 53.17 C0 53.06 0.11 52.95 0.22 52.95 C0.33 52.95 0.44 53.06
								 0.44 53.17 L0.44 58.28 C0.44 58.39 0.33 58.39 0.22 58.39 Z" class="st3"/>
				</g>
				<g id="shape11-15" v:mID="11" v:groupContext="shape" v:layerMember="0" transform="translate(2.05993,-8.66321)">
					<title>Sheet.11</title>
					<ellipse cx="0.658757" cy="57.7239" rx="0.658757" ry="0.666075" class="st3"/>
				</g>
			</g>
		</g>
		<g id="group12-17" transform="translate(47.1469,-29.6035)" v:mID="12" v:groupContext="group" v:layerMember="0">
			<v:userDefs/>
			<title>Web App (Was Websites).1464</title>
			<desc>Web App signs-in users</desc>
			<g id="group13-18" v:mID="13" v:groupContext="group" v:layerMember="0">
				<title>Sheet.13</title>
				<g id="shape14-19" v:mID="14" v:groupContext="shape" v:layerMember="0">
					<title>Sheet.14</title>
					<path d="M22.89 54.01 C20.71 55.71 18.14 56.55 15.6 56.55 C11.99 56.55 8.42 54.89 6.05 51.72 C2.02 46.3 3.02
								 38.58 8.29 34.43 C10.47 32.71 13.04 31.89 15.58 31.89 C19.2 31.89 22.76 33.56 25.13 36.73 C29.16
								 42.13 28.16 49.87 22.89 54.01 ZM26.55 35.6 C23.83 31.95 19.73 30.04 15.58 30.04 C12.66 30.04 9.7
								 31 7.19 32.96 C1.15 37.73 0 46.62 4.64 52.84 C7.35 56.48 11.46 58.39 15.6 58.39 C18.53 58.39 21.49
								 57.44 23.99 55.47 C30.03 50.71 31.18 41.81 26.55 35.6 Z" class="st1"/>
				</g>
			</g>
			<g id="group15-21" transform="translate(4.95555,-4.39537)" v:mID="15" v:groupContext="group" v:layerMember="0">
				<title>Sheet.15</title>
				<g id="group16-22" transform="translate(0.341805,-0.176482)" v:mID="16" v:groupContext="group" v:layerMember="0">
					<title>Sheet.16</title>
					<g id="group17-23" transform="translate(0.437249,2.13163E-14)" v:mID="17" v:groupContext="group"
							v:layerMember="0">
						<title>Sheet.17</title>
						<g id="shape18-24" v:mID="18" v:groupContext="shape" v:layerMember="0">
							<title>Sheet.18</title>
							<path d="M3.62 51.36 C2.82 50.55 2.18 49.77 1.66 49.01 C0.51 51.43 0.1 53.92 0 55.9 C0.11 56.06 0.11
										 56.18 0.23 56.34 C0.81 57.09 1.53 57.81 2.23 58.39 C2.13 56.77 2.27 54.12 3.62 51.36 Z"
									class="st1"/>
						</g>
					</g>
					<g id="shape19-26" v:mID="19" v:groupContext="shape" v:layerMember="0" transform="translate(3.29213,-8.97696)">
						<title>Sheet.19</title>
						<path d="M4.94 50.89 C3.85 51.66 2.74 52.64 1.61 53.87 C0.99 54.54 0.46 55.23 0 55.92 C0.48 56.72 1.11 57.54
									 1.9 58.39 C2.49 57.53 3.22 56.67 4.1 55.82 C5.21 54.76 6.25 53.91 7.23 53.22 C6.43 52.46 5.65
									 51.69 4.94 50.89 Z" class="st1"/>
					</g>
					<g id="group20-28" transform="translate(9.93517,-15.1958)" v:mID="20" v:groupContext="group" v:layerMember="0">
						<title>Sheet.20</title>
						<g id="shape21-29" v:mID="21" v:groupContext="shape" v:layerMember="0">
							<title>Sheet.21</title>
							<path d="M9.77 56.32 C9.25 55.63 8.66 55.04 8.04 54.49 C6.18 54.2 3.3 54.23 0 56.03 C0.76 56.87 1.51
										 57.65 2.24 58.39 C6.64 55.96 9.77 56.32 9.77 56.32 Z" class="st1"/>
						</g>
					</g>
					<g id="group22-31" transform="translate(2.2482E-15,-9.38013)" v:mID="22" v:groupContext="group"
							v:layerMember="0">
						<title>Sheet.22</title>
						<g id="shape23-32" v:mID="23" v:groupContext="shape" v:layerMember="0">
							<title>Sheet.23</title>
							<path d="M2.1 58.39 C2.44 57.7 2.84 57.01 3.29 56.32 C1.4 53.25 1.49 50.72 1.69 49.53 C1.22 50.04 0.78
										 50.57 0.4 51.14 C0.02 52.74 0 55.3 2.1 58.39 Z" class="st1"/>
						</g>
					</g>
					<g id="group24-34" transform="translate(4.05149,-0.740212)" v:mID="24" v:groupContext="group" v:layerMember="0">
						<title>Sheet.24</title>
						<g id="shape25-35" v:mID="25" v:groupContext="shape" v:layerMember="0">
							<title>Sheet.25</title>
							<path d="M3.41 52.28 C2.53 51.56 1.78 50.84 1.14 50.15 C0.68 50.8 0.31 51.46 0 52.1 C0.6 52.73 1.3 53.35
										 2.09 54.01 C7.01 58.01 11.9 58.39 14.65 58.39 C14.83 58.39 15.69 57.19 16.19 56.45 C14.96
										 56.71 9.7 57.39 3.41 52.28 Z" class="st1"/>
						</g>
					</g>
					<g id="group26-37" transform="translate(2.10339,-7.03042)" v:mID="26" v:groupContext="group" v:layerMember="0">
						<title>Sheet.26</title>
						<g id="shape27-38" v:mID="27" v:groupContext="shape" v:layerMember="0">
							<title>Sheet.27</title>
							<path d="M0 56.04 C0.51 56.8 1.15 57.58 1.95 58.39 C2.26 57.75 2.64 57.09 3.09 56.44 C2.3 55.59 1.67
										 54.77 1.19 53.97 C0.72 54.66 0.33 55.35 0 56.04 Z" class="st1"/>
						</g>
					</g>
					<g id="group28-40" transform="translate(10.5195,-5.32331)" v:mID="28" v:groupContext="group" v:layerMember="0">
						<title>Sheet.28</title>
						<g id="shape29-41" v:mID="29" v:groupContext="shape" v:layerMember="0">
							<title>Sheet.29</title>
							<path d="M0 49.57 C4.49 53.82 9.8 57.44 11.15 58.39 C11.29 58.04 11.38 57.7 11.48 57.34 C10.03 56.23
										 6.22 53.18 1.65 48.52 C1.12 48.81 0.57 49.16 0 49.57 Z" class="st1"/>
						</g>
					</g>
					<g id="group30-43" transform="translate(4.9873,-16.4714)" v:mID="30" v:groupContext="group" v:layerMember="0">
						<title>Sheet.30</title>
						<g id="shape31-44" v:mID="31" v:groupContext="shape" v:layerMember="0">
							<title>Sheet.31</title>
							<path d="M4.95 57.3 C3.85 56.12 2.73 54.86 1.59 53.5 C1.04 53.68 0.51 53.91 0 54.17 C0.84 55.58 1.97
										 57 3.24 58.39 C3.82 57.97 4.38 57.61 4.95 57.3 Z" class="st1"/>
						</g>
					</g>
					<g id="shape32-46" v:mID="32" v:groupContext="shape" v:layerMember="0" transform="translate(8.13764,-14.0503)">
						<title>Sheet.32</title>
						<path d="M1.87 54.85 C1.31 55.16 0.57 55.62 0 56.03 C0.72 56.82 1.45 57.63 2.25 58.39 C2.82 57.99 3.59 57.5
									 4.12 57.2 C3.38 56.47 2.63 55.68 1.87 54.85 Z" class="st1"/>
					</g>
					<g id="shape33-48" v:mID="33" v:groupContext="shape" v:layerMember="0" transform="translate(8.13691,-14.0039)">
						<title>Sheet.33</title>
						<path d="M1.67 54.69 C1.1 55 0.57 55.4 0 55.82 C0.72 56.61 1.74 57.63 2.54 58.39 C3.11 57.99 3.59 57.58 4.12
									 57.28 C3.38 56.55 2.42 55.53 1.67 54.69 Z" class="st1"/>
					</g>
				</g>
				<g id="group34-50" transform="translate(14.8617,-6.23663)" v:mID="34" v:groupContext="group" v:layerMember="0">
					<title>Sheet.34</title>
					<g id="shape35-51" v:mID="35" v:groupContext="shape" v:layerMember="0">
						<title>Sheet.35</title>
						<path d="M1.34 53.3 C0.22 54.19 0 55.85 0.86 57.01 C1.74 58.18 3.36 58.39 4.49 57.51 C5.61 56.63 5.83 54.96
									 4.97 53.8 C4.1 52.64 2.49 52.41 1.34 53.3 Z" class="st1"/>
					</g>
				</g>
				<g id="group36-53" transform="translate(9.651,3.55271E-14)" v:mID="36" v:groupContext="group" v:layerMember="0">
					<title>Sheet.36</title>
					<g id="shape37-54" v:mID="37" v:groupContext="shape" v:layerMember="0">
						<title>Sheet.37</title>
						<path d="M1.24 53.68 C0.2 54.5 0 56.05 0.79 57.12 C1.6 58.19 3.1 58.39 4.15 57.57 C5.19 56.75 5.39 55.21
									 4.59 54.14 C3.79 53.06 2.29 52.86 1.24 53.68 Z" class="st1"/>
					</g>
				</g>
				<g id="group38-56" transform="translate(7.24421E-14,-5.36434)" v:mID="38" v:groupContext="group" v:layerMember="0">
					<title>Sheet.38</title>
					<g id="shape39-57" v:mID="39" v:groupContext="shape" v:layerMember="0">
						<title>Sheet.39</title>
						<path d="M1.89 51.23 C0.3 52.48 0 54.81 1.21 56.44 C2.44 58.08 4.72 58.39 6.31 57.14 C7.9 55.89 8.2 53.56
									 6.98 51.91 C5.76 50.29 3.48 49.98 1.89 51.23 Z" class="st1"/>
					</g>
				</g>
			</g>
			<g id="shape12-59" v:mID="12" v:groupContext="groupContent" v:layerMember="0">
				<v:textBlock v:margins="rect(4.00001,4.00001,4.00001,4.00001)" v:tabSpace="42.5198"/>
				<v:textRect cx="15.5905" cy="73.1917" width="59.09" height="29.6036"/>
				<text x="-1.37" y="70.49" class="st4" v:langID="1036"><v:paragraph v:horizAlign="1"/><v:tabList/>Web App<v:lf/><tspan
							x="-8.93" dy="1.2em" class="st5">signs</tspan>-in users</text>			</g>
		</g>
	</g>
</svg>
